<?xml version="1.0" standalone="no"?>
<!DOCTYPE svg PUBLIC "-//W3C//DTD SVG 1.1//EN" "http://www.w3.org/Graphics/SVG/1.1/DTD/svg11.dtd" >
<svg xmlns="http://www.w3.org/2000/svg">
<metadata>
This is a custom SVG webfont generated by Font Squirrel.
Copyright   : Copyright c 2010 by SoftMaker Software GmbH All rights reserved
Foundry     : SoftMaker Software GmbH
</metadata>
<defs>
<font id="StaffordSerialHeavy" horiz-adv-x="1304" >
<font-face units-per-em="2048" ascent="1638" descent="-410" />
<missing-glyph horiz-adv-x="593" />
<glyph unicode=" "  horiz-adv-x="593" />
<glyph unicode="&#x09;" horiz-adv-x="593" />
<glyph unicode="&#xa0;" horiz-adv-x="593" />
<glyph unicode="!" horiz-adv-x="710" d="M117 0v420l518 2v-422h-518zM131 1012v465h502v-449l-78 -487h-356z" />
<glyph unicode="&#x22;" horiz-adv-x="1314" d="M74 688v234h26q102 0 135 25.5t41 107.5h-202v422h532v-447q0 -176 -117 -264q-57 -43 -133.5 -60.5t-220.5 -17.5h-61zM707 688v234h26q102 0 135 25.5t41 107.5h-202v422h532v-447q0 -176 -117 -264q-57 -43 -134 -60.5t-220 -17.5h-61z" />
<glyph unicode="#" horiz-adv-x="1298" d="M59 414l31 147h238l73 352h-235l31 148h237l86 414h148l-86 -414h176l88 414h147l-88 -414h236l-31 -148h-236l-75 -352h235l-30 -147h-236l-88 -414h-148l89 414h-179l-88 -414h-147l88 414h-236zM475 561h176l76 352h-178z" />
<glyph unicode="$" horiz-adv-x="1368" d="M23 1063q0 164 95 275.5t271 152.5v207h367v-217q96 -35 170 -68v60h336q-6 -199 -7 -269v-157l-333 -3q-39 186 -191 187q-57 0 -98 -34t-41 -81q0 -31 18 -53q23 -31 49 -43l12 -6l20 -12l26 -13l90 -41q10 -4 46 -22.5t58 -28.5q135 -59 203 -100q225 -129 225 -371 q0 -111 -47 -201q-41 -86 -116 -143q-57 -45 -110.5 -65.5t-158.5 -39.5v-194l-366 2v223q-68 25 -140 80v-88h-338q0 66 3.5 148.5t3.5 117.5q0 119 -4 213h342q14 -80 57 -125q70 -74 178 -73q47 0 81 27.5t34 68.5q0 43 -49.5 82t-173.5 94l-101 47l-106 53 q-63 31 -133 76q-80 53 -126 141.5t-46 192.5z" />
<glyph unicode="%" horiz-adv-x="1695" d="M45 1104q0 180 105.5 290.5t277.5 110.5q170 0 276.5 -110.5t106.5 -290.5q0 -176 -106.5 -286.5t-276.5 -110.5q-172 0 -277.5 110.5t-105.5 286.5zM305 31l942 1487l127 -86l-940 -1483zM358 1104q0 -119 15.5 -166t54.5 -47t53.5 47t14.5 166q0 121 -14.5 168 t-53.5 47t-54.5 -47t-15.5 -168zM889 383q0 182 104.5 290.5t278.5 108.5q172 0 275.5 -108.5t103.5 -290.5t-103.5 -290.5t-275.5 -108.5q-174 0 -278.5 108.5t-104.5 290.5zM1196 383q0 -125 17.5 -176t58.5 -51q39 0 55 52t16 175q0 125 -16 177t-55 52q-41 0 -58.5 -52 t-17.5 -177z" />
<glyph unicode="&#x26;" horiz-adv-x="1740" d="M33 428q0 180 133 309q57 57 125.5 92t208.5 80q-55 104 -56 181q0 186 144.5 293.5t396.5 107.5h78q86 -10 131 -16l-4 -318q-27 10 -47 10q-55 0 -90 -28.5t-35 -71.5q0 -35 26 -74l193 -276q63 94 89 143t69 156q63 -2 149 -2q92 0 168 4v-350l-108 -2 q-70 -121 -164 -228l67 -100h203v-338q-190 6 -283 6q-104 0 -315 -6l-82 115q-80 -53 -129 -78q-139 -72 -336 -72q-242 0 -387 126t-145 337zM498 489q0 -84 65.5 -151.5t147.5 -67.5q47 0 79.5 14.5t81.5 53.5l-237 338q-55 -31 -81 -54.5t-42 -60.5q-14 -31 -14 -72z " />
<glyph unicode="'" horiz-adv-x="681" d="M74 688v234h26q102 0 135 25.5t41 107.5h-202v422h532v-447q0 -176 -117 -264q-57 -43 -133.5 -60.5t-220.5 -17.5h-61z" />
<glyph unicode="(" horiz-adv-x="813" d="M59 780q0 412 234 686q88 104 196.5 164t323.5 121v-274q-129 -115 -164 -201q-29 -72 -49 -217.5t-20 -278.5q0 -135 20.5 -281.5t48.5 -215.5q33 -82 164 -203v-275q-213 61 -319.5 120t-200.5 167q-234 266 -234 688z" />
<glyph unicode=")" horiz-adv-x="813" d="M0 76q135 117 170 203q63 154 63 501q0 340 -63 498q-37 90 -170 203v276q211 -59 317.5 -118.5t206.5 -170.5q231 -258 232 -688q0 -428 -232 -692q-98 -111 -205.5 -169t-318.5 -118v275z" />
<glyph unicode="*" horiz-adv-x="1097" d="M29 985q70 172 112 332l342 -230l-110 398q70 -2 157 -2q98 0 195 4l-102 -397l358 200q41 -178 88 -340l-407 8l292 -286l-151 -92l-148 -91l-106 392l-164 -373l-135 104l-139 113l331 231z" />
<glyph unicode="+" d="M115 551v330h379v374h325v-374h371v-328h-373v-389h-325v387h-377z" />
<glyph unicode="," horiz-adv-x="681" d="M74 -133q18 -2 55 -2q82 0 114.5 29.5t35.5 105.5h-203v420h532v-436q0 -182 -114 -273q-57 -45 -135 -61.5t-226 -16.5q-10 0 -30.5 1t-28.5 1v232z" />
<glyph unicode="-" horiz-adv-x="776" d="M29 334v469h716v-469h-716z" />
<glyph unicode="." horiz-adv-x="673" d="M74 0v420h526v-420h-526z" />
<glyph unicode="/" horiz-adv-x="1081" d="M29 0l786 1477h238l-783 -1477h-241z" />
<glyph unicode="0" d="M59 735q0 346 163 556t431 210q266 0 429 -210t163 -556t-161.5 -556t-430 -210t-431.5 210t-163 556zM518 735q0 -188 9.5 -269t35.5 -126q33 -55 90 -55q39 0 70 32.5t43 90.5q20 92 20 327q0 182 -9 264t-36 129q-33 55 -88 56q-88 0 -114 -123q-21 -105 -21 -326z " />
<glyph unicode="1" d="M248 0v324l194 -5v797h-188v357q137 -2 309 -3q174 0 314 3v-1154l192 5v-324q-360 4 -405 4q-47 0 -416 -4z" />
<glyph unicode="2" d="M84 0q0 141 6 184q18 174 137 334q53 74 111 125q113 100 219 176l98 70q125 88 125 192q0 63 -44 104.5t-111 41.5q-154 0 -158 -197h-363q2 225 144.5 345t410.5 120q260 0 409 -119t149 -327q0 -162 -99 -277q-61 -68 -217 -149l-98 -54q-72 -37 -135 -104 q-53 -68 -64 -141h332v161h299q-4 -129 -4 -260q0 -125 2 -225q-492 4 -553 4q-68 0 -596 -4z" />
<glyph unicode="3" d="M33 498l379 20v-8q0 -111 51 -172.5t143 -61.5q78 0 128 51.5t50 131.5q0 78 -53 127t-137 49q-25 0 -43 -2v246h22q88 0 140.5 46t52.5 122q0 63 -43 107t-107 44q-143 0 -161 -172l-383 23q12 102 33.5 156.5t68.5 109.5q156 180 471 180q256 0 406.5 -113.5 t150.5 -306.5q0 -90 -43 -170q-31 -57 -71.5 -87t-124.5 -56q94 -25 139 -54.5t84 -89.5q55 -88 55 -192q0 -209 -165 -333t-443 -124q-231 0 -381 92q-90 55 -143 140q-37 59 -52.5 120.5t-23.5 176.5z" />
<glyph unicode="4" d="M2 852l594 629l489 -2v-705h150v-291h-152v-147l150 4v-340q-348 4 -395 4q-49 0 -439 -4v340l252 -4v147h-600zM242 741q68 33 143 33h268v307q0 27 39 158q-18 -51 -47 -92q-2 -2 -14.5 -17.5t-24.5 -27.5l-268 -293q-6 -10 -49 -37q-22 -13 -47 -31z" />
<glyph unicode="5" d="M39 403l381 33q59 -154 198 -153q76 0 127.5 52t51.5 128q0 82 -55.5 133t-141.5 51q-82 0 -186 -67l-312 102l45 791q479 -4 537 -5q55 0 510 5q-2 -88 -2 -199q0 -121 2 -215h-244l-32 112h-457l-19 -266l19 -14q137 53 254 53q233 0 384.5 -130t151.5 -331 q0 -227 -169 -366.5t-447 -139.5q-227 0 -379 105q-78 51 -123 118.5t-94 202.5z" />
<glyph unicode="6" d="M55 705q0 360 178.5 575t475.5 215q195 0 335 -92q78 -49 121 -111.5t82 -191.5l-362 -27q-23 68 -70 94q-45 27 -96 27q-203 0 -211 -338q16 10 40.5 23.5t26.5 13.5q86 39 207 39q209 0 338 -127t129 -334q0 -223 -154.5 -362.5t-402.5 -139.5q-301 0 -469 194 t-168 542zM498 567q2 -299 170 -299q70 0 110.5 50.5t40.5 134.5q0 82 -40 131t-107 49q-82 0 -174 -66z" />
<glyph unicode="7" d="M88 918q4 219 4 444v111q520 -4 584 -5q61 0 569 5v-304q-104 -139 -150 -215.5t-100 -208.5q-74 -186 -123 -409l156 4v-340q-164 2 -369 2q-221 0 -397 -2v340l166 -4q35 166 66.5 256t95.5 199q92 156 282 374l-489 -2v-245h-295z" />
<glyph unicode="8" d="M51 412q0 90 37 170q33 70 85 109.5t163 78.5q-94 37 -117 51q-57 37 -93 110t-36 152q0 186 154.5 299t408.5 113q252 0 405.5 -112.5t153.5 -299.5q0 -84 -36 -155q-29 -59 -73 -92t-136 -66q92 -31 145 -63q66 -41 103.5 -121t37.5 -174q0 -201 -163.5 -321 t-436.5 -120q-274 0 -438 120t-164 321zM479 440q0 -78 48 -127t126 -49q76 0 124 49t48 127q0 82 -48 134.5t-126 52.5q-74 0 -123 -50.5t-49 -127.5v-9zM502 1053q0 -63 45 -109.5t106.5 -46.5t105.5 46t44 110q0 68 -43 112.5t-107 44.5q-66 0 -108.5 -44.5t-42.5 -112.5 z" />
<glyph unicode="9" d="M53 987q0 223 160 366.5t410 143.5q293 0 460.5 -197.5t167.5 -543.5q0 -367 -170 -577t-465 -210q-203 0 -346 88q-80 47 -123 109.5t-88 191.5l363 29q27 -63 65.5 -90t104.5 -27q96 0 145 68q33 45 46.5 101.5t15.5 166.5l-66 -37q-92 -41 -215 -41q-207 0 -336 127 t-129 332zM485 1014q0 -84 40 -134.5t108 -50.5q72 0 174 68v16q0 137 -44 210t-126 73q-68 0 -110 -51t-42 -131z" />
<glyph unicode=":" horiz-adv-x="708" d="M117 0v420h516v-420h-516zM117 668v426l516 -2v-424h-516z" />
<glyph unicode=";" horiz-adv-x="727" d="M117 -133q20 -2 55 -2q82 0 116 29.5t36 105.5h-205v420h534v-436q0 -182 -114 -273q-57 -45 -136 -61.5t-227 -16.5q-8 0 -28.5 1t-30.5 1v232zM119 676v418h534v-428z" />
<glyph unicode="&#x3c;" horiz-adv-x="800" d="M55 586l377 573l275 -178l-265 -395l303 -467l-280 -174z" />
<glyph unicode="=" d="M53 324v315h1200v-315h-1200zM53 774v322h1198v-322h-1198z" />
<glyph unicode="&#x3e;" horiz-adv-x="796" d="M55 121l305 465l-268 403l266 174l383 -577l-409 -641z" />
<glyph unicode="?" horiz-adv-x="1280" d="M0 1067q12 66 20 90q23 90 89.5 166t154.5 115q158 68 373 67q225 0 379 -69q113 -49 181.5 -152.5t68.5 -218.5q0 -207 -179 -322q-70 -43 -138 -60t-193 -19l-25 -119h-287q-8 195 -18 381q84 -31 143 -31q94 0 154.5 48t60.5 126q0 74 -50 120t-130 46 q-168 0 -170 -168h-434zM332 0v418h524v-418h-524z" />
<glyph unicode="@" horiz-adv-x="1771" d="M121 629q-49 530 375 774q201 113 436 100q160 -8 292 -82.5t207.5 -193.5t99 -268.5t-35.5 -309.5q-86 -244 -268 -321q-109 -41 -186.5 -5.5t-88.5 115.5q-2 8 -2 25l-12 -25q-20 -35 -43 -59q-66 -78 -174.5 -71t-179.5 102q-80 109 -72 286q2 74 23 148 q57 201 194 295q113 74 217.5 52t136.5 -112l15 92h110l-73 -417l-25 -162q-6 -47 -6 -88q0 -49 31.5 -73.5t74.5 -10.5q41 14 101 78q35 35 61 86q45 78 64 172q4 25 8 82q10 258 -164 411.5t-438 114.5q-246 -35 -395.5 -235.5t-122.5 -477.5q8 -109 57 -211 q129 -268 389 -333.5t520 110.5q121 82 201 203l22 -137l-49 -62q-229 -254 -567 -254q-293 -2 -499.5 184.5t-233.5 477.5zM608 600q6 -80 27 -121q29 -57 96.5 -68.5t112.5 35.5q39 41 86 170q25 63 37 142l6 35l12 67q12 66 8 115q-4 70 -59 103.5t-123 6.5 q-100 -39 -162 -217q-20 -59 -26 -98q-19 -90 -15 -170z" />
<glyph unicode="A" horiz-adv-x="1527" d="M-29 0v340l115 -4l229 803l-122 -4v338q483 -4 542 -5q66 0 598 5v-338l-125 4l234 -803l114 4v-340q-336 4 -376 4q-45 0 -398 -4v340l119 -4l-33 145h-385l-37 -145l121 4v-340q-270 4 -301 4q-33 0 -295 -4zM545 709h258l-96 354l-19 80l-14 76q-23 -123 -29 -144z " />
<glyph unicode="B" horiz-adv-x="1611" d="M23 0v340l120 -4v803l-120 -4v338l524 -5l418 5h15q220 0 355 -56q98 -41 157.5 -128t59.5 -189q0 -100 -53 -182q-41 -61 -91 -92t-148 -54q119 -33 178 -65.5t108 -94.5q66 -78 66 -196q0 -106 -61.5 -199.5t-159.5 -140.5q-160 -76 -428 -76q-23 0 -78.5 1t-161 2 t-205.5 1q-34 1 -82 1q-144 0 -413 -5zM707 322h38q113 0 156 10q47 12 76 50t29 89q0 82 -60 119q-47 29 -184 28h-55v-296zM707 874h57h20q90 0 125 15q27 10 43 29q37 41 37 102q0 135 -164 135h-8l-61 -2l-49 2v-281z" />
<glyph unicode="C" horiz-adv-x="1560" d="M37 731q0 326 224 547t554 221q121 0 219 -35q59 -20 140 -75v88h358q-8 -156 -8 -265q0 -84 6 -249h-395q-23 94 -78 147q-78 72 -183 72q-121 0 -176 -92q-61 -98 -61 -371q0 -223 41 -313q45 -106 192 -107q127 0 193 94q31 43 44 92.5t21 141.5l433 -90 q-20 -158 -56.5 -239t-118.5 -151q-201 -172 -540 -172q-356 0 -582.5 211t-226.5 545z" />
<glyph unicode="D" horiz-adv-x="1665" d="M23 0v340l122 -4v803l-122 -4v338l393 -5l428 5h7q296 0 499 -164q131 -104 205.5 -256t74.5 -314q0 -158 -70.5 -312.5t-187.5 -252.5q-204 -174 -543 -174h-8l-415 4zM707 346q129 0 188 31q49 25 78 69q49 94 49 291q0 217 -61.5 305t-210.5 88h-43v-784z" />
<glyph unicode="E" horiz-adv-x="1427" d="M23 0v340l122 -4v803l-122 -4v338q578 -4 653 -5q74 0 663 5q-2 -111 -2 -252q0 -127 2 -230h-358v139l-272 5v-246h254v-297h-254v-248h301v135h360q-6 -160 -6 -237q0 -29 4 -242q-602 4 -682 4q-73 0 -663 -4z" />
<glyph unicode="F" horiz-adv-x="1368" d="M23 0v340l122 -4v803l-122 -4v340q442 -6 663 -7q72 0 653 5q-4 -225 -4 -254q0 -31 4 -252h-340v168h-290v-250h254v-289h-256v-260l151 4v-340q-360 4 -405 4q-49 0 -430 -4z" />
<glyph unicode="G" horiz-adv-x="1615" d="M37 735q0 326 224 546t556 220q102 0 217 -35q61 -20 142 -75v86h358q-6 -182 -6 -275q0 -131 4 -235h-404q-12 96 -67 147q-80 70 -184 70q-141 0 -193 -115q-45 -102 -45 -352q0 -203 39 -301q45 -115 180 -115q170 0 178 174h-139v285h684q-4 -274 -53 -412 q-61 -172 -244.5 -271.5t-439.5 -99.5q-354 0 -580.5 212t-226.5 546z" />
<glyph unicode="H" horiz-adv-x="1746" d="M23 0v340l120 -2v801l-120 -4v338l413.5 -4.5t388.5 4.5v-338l-116 4v-242h331v242l-118 -4v338q340 -4 381 -5q45 0 421 5v-338l-120 4v-801l120 2v-340q-178 4 -403 4q-221 0 -397 -4v340l116 -4v256h-331v-256l114 4v-340q-176 4 -397 4q-225 0 -403 -4z" />
<glyph unicode="I" horiz-adv-x="856" d="M23 0v340l122 -4v803l-120 -4v338q356 -4 405 -5q47 0 395 5v-338l-116 4v-803l114 4v-340q-352 4 -401 4q-47 0 -399 -4z" />
<glyph unicode="J" horiz-adv-x="858" d="M6 -23q18 -4 41 -4q51 0 72 31q16 16 22 49q10 41 11 113v973l-125 -4v338q369 -4 411.5 -4.5t390.5 4.5v-338l-118 4v-959q0 -211 -43 -327q-92 -246 -451 -246q-45 0 -211 12v358z" />
<glyph unicode="K" horiz-adv-x="1718" d="M29 0v340l116 -4v803l-112 -4v338q348 -4 389 -5q43 0 379 5v-334h-94v-803l92 4v-340q-332 4 -371 4q-43 0 -399 -4zM711 766l336 373l-109 -4v338q295 -4 330 -5q37 0 323 5v-338l-110 4l-240 -260l373 -543l133 4v-340q-369 4 -416 4q-43 0 -395 -4v340l70 -4z" />
<glyph unicode="L" horiz-adv-x="1368" d="M23 0v340l122 -4v803l-122 -4v338q360 -4 409 -5q41 0 406 5v-338l-129 4v-799h280q4 123 4 133q0 16 -4 143h348q-4 -266 -4 -299q0 -39 4 -317q-590 4 -663 4t-651 -4z" />
<glyph unicode="M" horiz-adv-x="2185" d="M37 0v340l110 -4v803l-110 -4v338q182 -2 409 -3q248 0 447 3l145 -426l21 -76l26 -117q10 121 37 193l164 426l428 -4.5t436 4.5v-338l-110 4v-803l108 4v-340q-340 4 -376 4q-43 0 -404 -4v340l115 -4v622q0 74 16 168l-35 -94l-20 -61l-350 -971h-238l-340 973 q-25 74 -41 157l-2 -98v-78v-618l111 4v-340q-238 4 -267 4q-30 0 -280 -4z" />
<glyph unicode="N" horiz-adv-x="1605" d="M37 0v340l115 -4v803l-115 -4v338q299 -4 334 -5q33 0 327 5l357 -596q33 -53 82 -168q0 20 -3.5 54t-3.5 46q-4 82 -4 90v240l-104 -4v338q250 -4 278 -5q33 0 267 5v-338l-113 4v-1139h-483l-428 700q-35 57 -72 164q8 -176 8 -178v-350l113 4v-340q-246 4 -273 4 q-32 0 -282 -4z" />
<glyph unicode="O" horiz-adv-x="1687" d="M37 739q0 336 226 549t580.5 213t580 -213t225.5 -549t-225.5 -549t-580 -213t-580.5 213t-226 549zM645 739.5q0 -153.5 8.5 -224.5t34.5 -122q45 -88 156 -88q113 0 155 88q27 53 35 122t8 224.5t-8 225t-35 120.5q-45 88 -155 89q-113 0 -156 -89q-27 -55 -35 -123.5 t-8 -222z" />
<glyph unicode="P" horiz-adv-x="1564" d="M23 0v340l122 -4v803l-122 -4v338l469 -5l471 5h27q120 0 194 -17q82 -18 164 -67q203 -123 202 -367q0 -209 -147.5 -333t-396.5 -124h-299v-229l137 4v-340q-356 4 -400 4t-421 -4zM707 870h73q113 0 152 31q53 41 53 119q0 88 -63 119q-41 20 -136 20h-10l-69 -2v-287 z" />
<glyph unicode="Q" horiz-adv-x="1689" d="M37 739q27 236 80 355.5t180 222.5q225 184 547 184q354 0 579.5 -213t225.5 -549q0 -360 -258 -577q-70 -57 -125.5 -86t-165.5 -64q84 -29 141 -28q104 0 258 73l152 -352q-111 -63 -185.5 -85.5t-177.5 -22.5q-86 0 -149.5 16t-182.5 70q-221 98 -294 98 q-41 0 -84 -14q-59 -16 -150 -76l-121 278q80 47 176 88q-88 41 -186 105q-117 80 -174 207.5t-86 369.5zM645 739.5q0 -153.5 8.5 -224.5t34.5 -122q45 -88 156 -88q113 0 155 88q27 53 35 122t8 224.5t-8 225t-35 120.5q-45 88 -155 89q-113 0 -156 -89 q-27 -55 -35 -123.5t-8 -222z" />
<glyph unicode="R" horiz-adv-x="1654" d="M23 0v340l122 -4v803l-122 -4v338l423 -5l515 5h30q158 0 244 -20q94 -22 182 -83q78 -53 122 -141t44 -189q0 -80 -29 -149q-29 -74 -66.5 -114t-123.5 -89l213 -352l98 4v-340q-242 4 -272 4q-29 0 -279 -4l-266 598h-151v-262l116 4v-340q-344 4 -387 4q-44 0 -413 -4 zM709 868h104q180 0 180 146q0 135 -172 135h-14h-98v-281z" />
<glyph unicode="S" horiz-adv-x="1368" d="M23 1061q0 197 139 319.5t364 122.5q76 0 168 -16q111 -20 232 -74v60h336q-6 -199 -7 -269v-157l-331 -3q-43 186 -193 187q-57 0 -98 -34t-41 -81q0 -31 18 -53q23 -31 49 -43l58 -31l90 -41l104 -51q162 -76 203 -100q225 -129 225 -371q0 -207 -149.5 -332 t-396.5 -125q-94 0 -191 23q-111 27 -201 96v-88h-338q0 66 3.5 148.5t3.5 117.5q0 119 -4 213h342q14 -80 57 -125q70 -74 178 -73q47 0 81 27.5t34 68.5q0 43 -49.5 82t-173.5 94l-101 47l-106 53q-70 35 -133 76q-80 53 -126 140.5t-46 191.5z" />
<glyph unicode="T" horiz-adv-x="1658" d="M16 821q6 223 6.5 332t-6.5 320q721 -4 811 -5q92 0 818 5q-4 -162 -5 -369q0 -156 2 -283h-323v307h-207v-792l127 4v-340q-352 4 -397 4q-47 0 -420 -4v340l125 -4v790l-207 2v-307h-324z" />
<glyph unicode="U" horiz-adv-x="1499" d="M29 1135v338l389 -4.5t381 4.5v-338l-101 4v-619q0 -109 23 -145q35 -59 147 -60q104 0 144 62q25 35 24 143v619l-102 -4v338q250 -4 278 -5q31 0 256 5v-338l-102 4v-584q0 -152 -39 -250t-131 -176q-182 -154 -448 -154q-268 0 -447 154q-90 78 -129 176t-39 250v584z " />
<glyph unicode="V" horiz-adv-x="1462" d="M-45 1135v338q365 -4 410 -5q131 0 385 7v-340l-105 4l143 -451q31 -98 35 -246q16 162 49 252l160 445l-110 -4v338q254 -4 286 -5q31 0 297 5v-338l-121 4l-426 -1139h-464l-412 1139z" />
<glyph unicode="W" horiz-adv-x="2142" d="M-29 1135v338q336 -4 379 -5q41 0 352 5v-338l-94 4l107 -434q16 -72 16 -211q18 158 37 213l139 432l-90 -4v338l369 -4.5t352 4.5v-338l-90 4l115 -434q16 -59 26 -213q14 172 27 213l127 434l-88 -4v338q229 -4 260 -5q29 0 258 5v-338l-82 4l-381 -1139h-471 l-129 432q-27 88 -37 268q-10 -180 -39 -270l-137 -430h-465l-373 1139z" />
<glyph unicode="X" horiz-adv-x="1701" d="M6 0v340l125 -4l299 448l-246 355l-139 -4v338q365 -4 412 -5q49 0 454 5v-310l-104 4l94 -139q37 -55 70 -180l28 119l31 51l84 149l-86 -4v310q279 -4 311 -5q39 0 322 5v-338l-164 4l-225 -353l305 -450l119 4v-340q-377 4 -420 4q-55 0 -461 -4v315l119 -6l-117 178 q-35 53 -78 203l-51 -141l-41 -57l-125 -183l144 6v-315q-283 4 -318 4q-39 0 -342 -4z" />
<glyph unicode="Y" horiz-adv-x="1476" d="M-74 1135v338q365 -4 408 -5q41 0 393 5v-320l-92 4l145 -221q31 -47 42.5 -78t25.5 -100q29 125 63 174l160 225l-94 -4v320l286.5 -4.5t286.5 4.5v-338l-100 4l-395 -582v-221l119 4v-340q-365 4 -410 4q-43 0 -404 -4v340l119 -4v239l-450 564z" />
<glyph unicode="Z" horiz-adv-x="1435" d="M16 0v299l633 788q31 39 144 107q-135 -41 -175 -41l-243 -4v-184h-332q4 221 4 247q0 31 -4 261q594 -4 674 -5q76 0 674 5v-283l-635 -789q-33 -39 -172 -122q145 43 213 43l258 2v200h331l-2 -262v-262q-602 4 -675 4q-79 0 -693 -4z" />
<glyph unicode="[" horiz-adv-x="638" d="M74 -336v2148q164 -8 278 -8q127 0 287 11v-338l-119 6v-1489l119 6v-338q-211 10 -287 10q-114 0 -278 -8z" />
<glyph unicode="\" horiz-adv-x="727" d="M59 1475h295l258 -1475h-295z" />
<glyph unicode="]" horiz-adv-x="638" d="M0 0l119 -6v1489l-119 -6v338q162 -10 289 -11q113 0 276 8v-2148q-164 8 -276 8q-74 0 -289 -10v338z" />
<glyph unicode="^" horiz-adv-x="843" d="M-12 1186l260 325h354l254 -327h-311l-115 196l-125 -196z" />
<glyph unicode="_" horiz-adv-x="925" d="M59 0h738v-137h-738v137z" />
<glyph unicode="`" horiz-adv-x="552" d="M-74 1509h414l154 -325l-310 -2z" />
<glyph unicode="a" horiz-adv-x="1464" d="M29 328q0 164 131 263t350 99q55 0 82 -2q96 -8 211 -45v66q0 66 -11.5 93t-43.5 50q-47 31 -117 31q-131 0 -174 -119l-406 18q23 106 56.5 157.5t113.5 96.5q164 92 465 92q330 0 481.5 -99t151.5 -314v-381l123 4v-338q-287 4 -322 4q-33 0 -319 -4v78 q-57 -31 -99 -45q-123 -49 -258 -49q-186 0 -300.5 96t-114.5 248zM537 348.5q0 -59.5 32.5 -95.5t87.5 -36q68 0 144 55v162q-76 45 -135.5 45t-94 -35.5t-34.5 -95z" />
<glyph unicode="b" horiz-adv-x="1574" d="M23 1135v342q219 -6 327 -7q102 0 312 7v-449q61 33 73 39q133 59 254 59q231 0 389 -165.5t158 -409.5q0 -248 -162 -409.5t-409 -161.5q-61 0 -123 12q-90 16 -174 74v-66q-274 4 -308 4q-39 0 -329 -4v338l114 -2v803zM657 549q0 -113 48.5 -183.5t125.5 -70.5 q82 0 128.5 66.5t46.5 185.5t-46.5 184.5t-128.5 65.5q-78 0 -126 -68.5t-48 -179.5z" />
<glyph unicode="c" horiz-adv-x="1310" d="M37 551q0 248 166 407.5t426 159.5q106 0 196 -33q63 -23 127 -73v80h328q-6 -174 -6 -236q0 -25 4 -213l-354 2q-25 86 -62 123q-55 55 -125 55q-86 0 -136 -77.5t-50 -210.5q0 -266 180 -267q72 0 111 36t59 124l410 -78q-45 -102 -80 -152.5t-96 -95.5 q-158 -121 -424 -120q-309 0 -491.5 154.5t-182.5 414.5z" />
<glyph unicode="d" horiz-adv-x="1554" d="M37 551q0 244 153.5 406.5t382.5 162.5q53 0 142 -18q94 -20 184 -80v115l-135 -2v342q143 -4 328 -4q180 0 323 4v-1143l131 4v-338q-283 4 -315 4q-37 0 -332 -4v63l-21 -13l-20 -12q-8 -5 -14 -7q-96 -51 -246 -51q-244 0 -402.5 161.5t-158.5 409.5zM561 539 q0 -117 45 -182.5t127 -65.5t126 66.5t44 191.5q0 121 -43 186.5t-125 65.5q-80 0 -127 -70.5t-47 -191.5z" />
<glyph unicode="e" horiz-adv-x="1441" d="M37 545q0 256 192.5 415.5t501.5 159.5q305 0 498 -168q100 -88 139 -187t45 -290h-848q12 -98 57.5 -142t135.5 -44q115 0 180 102l426 -80q-57 -96 -99 -142t-114 -93q-168 -104 -412 -105q-317 0 -509.5 157t-192.5 417zM567 655l338 -2v6q0 74 -45 120t-116.5 46 t-124 -46t-52.5 -111v-13z" />
<glyph unicode="f" horiz-adv-x="868" d="M16 0v338l140 -4v420h-140v338l140 -2v26q0 139 74.5 236.5t197.5 126.5q121 27 293 26q49 0 78 -2q82 -2 172 -12l-13 -307q-49 12 -79 14q-20 0 -43 2h-35q-31 0 -60.5 -10t-38.5 -25l-26 -45l-4 -8v-22l192 2v-342h-192v-416l192 4v-338q-365 4 -409 4q-50 0 -439 -4z " />
<glyph unicode="g" horiz-adv-x="1540" d="M29 553q0 236 150.5 395.5t373.5 159.5q70 0 147 -18q61 -16 98.5 -35t96.5 -64v103q143 -4 324 -4q174 0 315 4v-340l-133 4v-549q0 -166 -38 -268.5t-126 -178.5q-176 -152 -580 -151q-133 0 -270 16q-123 16 -301 62l135 282q111 -43 182 -55q92 -14 158 -14 q160 0 252 53t96 149l2 43q-14 -12 -80 -55q-109 -57 -266 -57q-242 0 -389 142.5t-147 375.5zM549 543q0 -113 47 -178.5t125 -65.5q80 0 126 64.5t46 179.5q0 109 -47 173t-125 64q-76 0 -124 -65.5t-48 -171.5z" />
<glyph unicode="h" horiz-adv-x="1589" d="M16 0v338l136 -4v805l-134 -2v340q219 -6 330 -7q106 0 318 7v-502l102 65q139 82 301 82q205 0 307 -161q72 -115 72 -361v-266l119 4v-338q-274 4 -310 4q-41 0 -327 -4v586q0 98 -29 133q-33 37 -86 37q-31 0 -84 -23q-8 -4 -15 -8l-22 -12l-30 -19v-358l151 2v-338 q-352 4 -393 4q-50 0 -406 -4z" />
<glyph unicode="i" horiz-adv-x="817" d="M23 0v338l137 -4v422l-135 -2v338l333.5 -4.5t321.5 4.5v-758l115 4v-338q-344 4 -385 4q-43 0 -387 -4zM125 1339q0 82 83 138.5t201.5 56.5t201.5 -57.5t83 -139.5q0 -84 -85 -142t-203 -58q-117 0 -199 59t-82 143z" />
<glyph unicode="j" horiz-adv-x="729" d="M-51 -82q35 -6 53 -6q76 0 106.5 48t30.5 167v631l-112 -4v338q291 -4 329 -5q33 0 299 5v-967q0 -281 -116.5 -398.5t-395.5 -117.5q-53 0 -194 6v303zM111 1339q0 82 82.5 138.5t199.5 56.5q115 0 197 -58.5t82 -142.5q0 -80 -80 -136t-193 -56q-119 0 -203.5 58 t-84.5 140z" />
<glyph unicode="k" horiz-adv-x="1478" d="M16 0v338l121 -4v807l-121 -4v340q141 -4 319.5 -4t319.5 4v-967l291 311l-170 -2v273q295 -4 328 -5q37 0 319 5v-275l-104 2l-197 -215l221 -270l150 4v-338q-205 4 -229 4q-31 0 -236 -4l-373 475v-475q-274 4 -309 4q-39 0 -330 -4z" />
<glyph unicode="l" horiz-adv-x="798" d="M29 0v338l114 -4v805l-112 -2v340q143 -4 323 -4q170 0 308 4v-1143l114 4v-338q-319 4 -364 4q-43 0 -383 -4z" />
<glyph unicode="m" horiz-adv-x="2263" d="M37 0v338l121 -4v422l-119 -2v338q287 -4 319 -5q31 0 314 5v-93l34 19l32 17l22 12q133 70 258 69q205 0 315 -160q57 41 99 66q168 92 317 92q178 0 295 -129q49 -55 64.5 -110.5t15.5 -180.5v-360l117 4v-338q-283 4 -320 4q-33 0 -315 -4v606q0 70 -17 96 q-20 37 -78 37q-51 0 -112 -30v-373l114 2v-338q-274 4 -311 4q-31 0 -321 -4v586q0 80 -15 108q-29 45 -86 45q-49 0 -108 -32v-373l112 4v-338q-319 4 -358 4q-41 0 -389 -4z" />
<glyph unicode="n" horiz-adv-x="1593" d="M16 754v338q295 -4 336 -5q37 0 312 5v-119q25 12 61.5 33.5t48.5 27.5q150 84 301 84q203 0 305 -139q49 -68 60.5 -122t11.5 -228v-295l127 4v-338q-283 4 -319 4q-39 0 -326 -4v567q0 68 -5 91.5t-26 46.5q-29 35 -84 34q-20 0 -47 -6q-23 -6 -82 -35q-2 -4 -22 -12 v-352l143 6v-340q-328 4 -369 4q-47 0 -424 -4v338l138 -4v424z" />
<glyph unicode="o" horiz-adv-x="1437" d="M37 547q0 252 190.5 412.5t489.5 160.5q301 0 491.5 -160.5t190.5 -412.5q0 -254 -190.5 -414t-491.5 -160q-299 0 -489.5 161t-190.5 413zM557 547q0 -123 42 -187.5t118 -64.5q160 0 160 252t-160 252q-76 0 -118 -65.5t-42 -186.5z" />
<glyph unicode="p" horiz-adv-x="1556" d="M0 -53h143v811l-137 -4v338q303 -4 342 -5q35 0 314 5v-70q63 37 96 51q104 43 221 43q236 0 389.5 -156.5t153.5 -398.5q0 -240 -149.5 -400.5t-373.5 -160.5q-76 0 -155 23q-100 31 -187 92v-185h134v-301q-291 10 -394 11q-104 0 -397 -11v318zM655 537 q0 -104 44 -163t124 -59t125 65.5t45 182.5q0 96 -45 157.5t-119 61.5q-76 0 -125 -64.5t-49 -166.5v-14z" />
<glyph unicode="q" horiz-adv-x="1558" d="M37 561q0 244 156.5 400.5t398.5 156.5q55 0 119 -14q94 -23 188 -84v72q287 -4 324 -5q35 0 329 5v-338l-139 4v-828h137v-301q-174 6 -387 6q-225 0 -405 -6v301h139v189q-37 -27 -76 -49q-121 -70 -264 -70q-223 0 -371.5 159.5t-148.5 401.5zM563 551 q0 -109 44 -170.5t124 -61.5t123 60.5t43 173.5q0 106 -45 167.5t-123 61.5t-122 -62.5t-44 -168.5z" />
<glyph unicode="r" horiz-adv-x="1064" d="M6 0v340l137 -6v422l-133 -2v338q274 -4 314 -5q37 0 307 5v-224q80 119 160 172q55 37 105 49.5t136 12.5h49v-463q-82 12 -129 12q-141 0 -217 -73.5t-76 -215.5v-26l156 2v-338q-344 4 -389 4q-47 0 -420 -4z" />
<glyph unicode="s" horiz-adv-x="1267" d="M23 756q0 168 121.5 271t318.5 103q98 0 182 -20q88 -23 197 -90l2 72h342q-4 -147 -4 -164q0 -72 8 -172h-350q-2 80 -52.5 129t-128.5 49q-49 0 -80.5 -23.5t-31.5 -62.5q0 -43 45 -64q6 -4 39 -20l170 -53l98 -31q152 -47 217 -88q121 -76 121 -242 q0 -168 -124 -273.5t-325 -105.5q-78 0 -165 17q-74 14 -114 30.5t-108 59.5v-78h-358q2 78 2 174q0 61 -6 184l352 2q2 -102 55 -139q53 -39 132 -39q115 0 114 86q0 31 -30.5 50.5t-118.5 48.5l-97 30l-100 29q-172 49 -247.5 126t-75.5 204z" />
<glyph unicode="t" horiz-adv-x="849" d="M16 754v338h115v241l524 103v-344h181v-338h-183v-267q0 -80 13 -102q18 -23 51 -23q43 0 110 44v-349q-109 -51 -174 -67.5t-153 -16.5q-180 0 -277 90q-51 45 -71.5 109t-20.5 172v410h-115z" />
<glyph unicode="u" horiz-adv-x="1576" d="M16 754v338l322 -4.5t317 4.5v-582q0 -156 113 -156q57 0 150 54v348l-127 -2v338q299 -4 335 -5q35 0 310 5v-758l127 4v-338q-287 4 -322 4t-330 -4v115q-27 -18 -102 -62q-147 -80 -297 -80q-209 0 -311 160q-43 66 -52.5 113t-9.5 200v310z" />
<glyph unicode="v" horiz-adv-x="1306" d="M-45 754v338q328 -4 371 -5q45 0 372 5v-338l-98 2l107 -209q27 -53 35 -84t16 -105q10 96 49 179l102 219l-102 -2v338q250 -4 280 -5q29 0 263 5v-338l-103 2l-364 -756h-437l-407 758z" />
<glyph unicode="w" horiz-adv-x="2070" d="M-45 754v338l401 -4.5t381 4.5v-338l-121 4l66 -207q20 -66 33 -191q14 119 43 189l217 543q168 -4 190 -5q25 0 197 5l174 -531q25 -76 33 -201l22 136l27 59l80 201l-117 -2v338q238 -4 268 -5q27 0 265 5v-338l-89 4l-335 -758h-449l-158 381q-29 66 -41 192 q-12 -117 -43 -194l-155 -379h-438l-349 758z" />
<glyph unicode="x" horiz-adv-x="1327" d="M6 0v340l148 -4l147 190l-186 232l-103 -4v338q238 -4 267 -5q27 0 247 5l154 -234q33 -47 57 -176q8 51 29 113q4 4 37 63l133 234q152 -4 172 -5q18 0 190 5v-338l-131 2l-114 -176l155 -244l109 2v-338q-225 4 -254 4q-27 0 -264 -4l-140 229q-33 53 -57 162 q-8 -47 -29 -96q0 -2 -43 -68l-149 -227q-152 4 -170 4q-21 0 -205 -4z" />
<glyph unicode="y" horiz-adv-x="1294" d="M-45 754v338q348 -4 389 -4.5t369 4.5v-338l-103 2l105 -232q23 -47 43 -180q12 106 45 180l106 232l-96 -2v338q254 -4 287 -5q27 0 256 5v-338l-111 4l-540 -1129q-98 6 -222 6q-133 0 -239 -6v318l190 -2l21 43l-418 770z" />
<glyph unicode="z" horiz-adv-x="1329" d="M23 0v285l446 426q41 41 209 129q-92 -27 -139 -31q-6 -2 -103 -6l-137 -4v-119h-264q8 184 8 209q0 23 -8 203q578 -4 649 -5q68 0 604 5v-275l-426 -432q-20 -20 -60 -45t-175 -100l170 49l104 4l135 4v131h271q-6 -141 -7 -209q0 -72 7 -219q-541 4 -609 4 q-73 0 -675 -4z" />
<glyph unicode="{" horiz-adv-x="813" d="M59 737q59 2 98.5 43t39.5 105v635q0 96 53 150t149 54h293v-176h-26q-61 0 -88 -22.5t-27 -75.5v-520q0 -59 -35 -108.5t-92 -71.5q-27 -8 -55 -13q29 -4 55 -12q57 -23 92 -72t35 -108v-520q0 -53 26.5 -76t88.5 -23h26v-176h-293q-94 0 -148 54.5t-54 150.5v635 q0 63 -39.5 104t-98.5 43z" />
<glyph unicode="|" horiz-adv-x="446" d="M59 0v1475h295v-1475h-295z" />
<glyph unicode="}" horiz-adv-x="813" d="M59 -74h27q61 0 88 22.5t27 76.5v520q0 59 35.5 108t93.5 72q25 8 53 12q-29 4 -53 13q-57 23 -93 71.5t-36 108.5v520q0 53 -27 75.5t-88 22.5h-27v176h293q94 0 148.5 -54t54.5 -150v-635q0 -61 40 -103.5t97 -44.5q-57 -2 -97 -44t-40 -103v-635q0 -96 -53 -150.5 t-150 -54.5h-293v176z" />
<glyph unicode="~" horiz-adv-x="892" d="M-12 1739q78 106 155 147q63 35 123 35q61 0 146 -39l67 -31q104 -47 133 -47q68 0 136 86l157 -141q-45 -66 -78 -100q-35 -35 -88 -58.5t-100 -23.5q-68 0 -141 37l-60 28q-6 4 -57 25q-70 27 -96 26q-37 0 -66 -19t-80 -77z" />
<glyph unicode="&#xa1;" horiz-adv-x="710" d="M117 1057v422h518v-420zM121 2v451l76 485h356l72 -471v-465h-504z" />
<glyph unicode="&#xa2;" horiz-adv-x="1310" d="M37 553q0 201 114.5 350.5t307.5 194.5v217h325l-2 -211q8 -4 23.5 -10.5t19.5 -8.5q66 -29 127 -73v80h328q-6 -174 -6 -236q0 -25 4 -213l-354 2q-25 86 -62 123q-55 55 -125 55q-86 0 -136 -77.5t-50 -210.5q0 -266 180 -267q72 0 111 37t59 123l410 -78 q-45 -102 -80 -152.5t-96 -95.5q-72 -55 -146 -78.5t-209 -35.5l-4 -205l-319 -2l-2 237q-115 39 -176 72q-109 61 -175.5 187t-66.5 276z" />
<glyph unicode="&#xa3;" horiz-adv-x="1400" d="M33 256q0 106 80 180t194 74q70 0 152 -27q-2 35 -13 58q-8 31 -90 127l-301 -6v204l172 -2l-24 49q-37 74 -37 158q0 174 176 298t426 124q190 0 330 -76q84 -43 141 -110q39 -45 55.5 -93.5t20.5 -136.5l-365 -37q-31 188 -176 189q-59 0 -98 -34t-39 -85 q0 -41 43 -127l37 -74l24 -43l320 4v-204l-258 2q25 -98 24 -148q0 -55 -30 -155q82 -31 125 -31q72 0 111.5 29.5t56.5 97.5l278 -76q-35 -141 -74 -211t-108 -121q-102 -74 -230 -73q-90 0 -186 45q-55 25 -121 77q-90 -72 -141 -92q-72 -29 -150 -28q-137 0 -231 79.5 t-94 194.5zM248 256q0 -35 24.5 -57.5t65.5 -22.5q94 0 135 109q-63 49 -127 49q-43 0 -70.5 -21.5t-27.5 -56.5z" />
<glyph unicode="&#xa4;" horiz-adv-x="1017" d="M59 426l109 106q-92 147 -45 318q16 57 45 102l-105 105q43 59 89 96l112 -115q94 68 208 68t208 -66l111 115l49 -47q35 -39 43 -53l-107 -101q72 -96 68 -217q0 -115 -70 -209l109 -106q-25 -29 -41 -45q-27 -29 -51 -51l-111 110q-92 -68 -207 -67.5t-207 67.5 l-116 -108l-44 45zM236 737.5q0 -100.5 70.5 -170t168.5 -69.5q100 0 170 69q72 72 72 170.5t-72 169.5q-70 70 -170 70q-98 0 -168.5 -69.5t-70.5 -170z" />
<glyph unicode="&#xa5;" horiz-adv-x="1763" d="M55 1135v338l410 -4.5t389 4.5v-320l-90 4l145 -221q49 -76 68 -178q31 127 63 174l160 225l-92 -4v320q254 -4 287 -5q29 0 286 5v-338l-102 4l-285 -428h410l4 -88h-471l-53 -66v-29h520v-88h-520v-104l119 4v-340q-365 4 -408 4t-403 -4v340l116 -4l2 104h-516v88h518 v47l-37 43h-477v89h416l-356 432z" />
<glyph unicode="&#xa7;" horiz-adv-x="1368" d="M33 539q0 16 4 57q12 94 43 146.5t113 119.5q-57 74 -78 123t-21 119q0 186 157 295.5t423 109.5q297 0 469 -141q72 -59 102.5 -122.5t44.5 -184.5h-385q-18 86 -63 119q-72 57 -158 57q-45 0 -82 -24.5t-37 -55.5q0 -51 78 -80l385 -143q303 -113 303 -406 q0 -106 -30.5 -168.5t-124.5 -144.5q57 -66 74.5 -110t17.5 -117q0 -199 -158 -308.5t-444 -109.5q-236 0 -396 94q-111 66 -153.5 143.5t-53.5 235.5h394q4 -66 17 -97.5t52 -58.5q63 -47 150 -47q53 0 88 24.5t35 63.5q0 51 -78 80l-397 150q-291 109 -291 381zM463 586 q0 -74 88 -107l315 -119q39 66 39 107t-32.5 84t-77.5 59l-277 105q-55 -66 -55 -129z" />
<glyph unicode="&#xa8;" horiz-adv-x="817" d="M-76 1358q0 76 64.5 131t152.5 55t150.5 -55t62.5 -133q0 -76 -63.5 -129t-153.5 -53q-88 0 -150.5 54t-62.5 130zM465 1356q0 78 62.5 133t150.5 55t151.5 -55t63.5 -131t-62.5 -130t-150.5 -54q-90 0 -152.5 53t-62.5 129z" />
<glyph unicode="&#xa9;" horiz-adv-x="1908" d="M119 737q0 317 224 541.5t540 224.5q317 -2 540.5 -226t223.5 -539.5t-223.5 -540t-541 -224.5t-540.5 224.5t-223 539.5zM260 737q0 -258 184 -448q182 -184 439.5 -184.5t437.5 184.5q184 186 184 448t-184 451q-180 182 -438 182t-439 -182q-184 -185 -184 -451z M475 817q35 188 182.5 292.5t339.5 72.5q117 -18 211 -95l-90 -133q-57 47 -127 60q-121 25 -219 -43t-117 -189q-20 -127 46.5 -221t187.5 -115q88 -14 158 19q37 14 71 47l88 -135q-88 -68 -182 -88q-199 -45 -351.5 52t-193.5 288q-18 96 -4 188z" />
<glyph unicode="&#xaa;" horiz-adv-x="999" d="M68 1196q18 92 72.5 163t123 105.5t148.5 33.5t147 -44q57 -37 88 -86v107h215l2 -725h-219v112q-6 -14 -16 -26q-39 -57 -120 -86t-175 -11q-145 29 -223 157t-43 300zM78 457v196h786v-196h-786zM283 1114q0 -76 39.5 -127t109.5 -63q78 -14 139.5 28.5t75.5 124.5 q6 37 0 74q-23 127 -141 154q-90 20 -155.5 -36.5t-67.5 -154.5z" />
<glyph unicode="&#xab;" horiz-adv-x="1357" d="M55 586l375 581l272 -180l-262 -401l303 -473l-278 -174zM612 586l375 581l273 -180l-261 -401l301 -473l-280 -174z" />
<glyph unicode="&#xac;" horiz-adv-x="1402" d="M59 737v295h1180v-590h-221v295h-959z" />
<glyph unicode="&#xad;" horiz-adv-x="776" d="M29 334v469h716v-469h-716z" />
<glyph unicode="&#xae;" horiz-adv-x="1908" d="M119 737q0 317 224 541.5t540 224.5q317 -2 540.5 -226t223.5 -539.5t-223.5 -540t-541 -224.5t-540.5 224.5t-223 539.5zM260 737q0 -258 184 -448q182 -184 439.5 -184.5t437.5 184.5q184 186 184 448t-184 451q-180 182 -438 182t-439 -182q-184 -185 -184 -451z M606 309v875h275q139 0 209 -54q70 -51 88 -141q25 -113 -20.5 -192.5t-147.5 -108.5q-8 0 -17 -4l246 -375h-209l-246 396v-396h-178zM784 776h68q125 0 147 103q16 72 -22.5 115.5t-118.5 43.5h-74v-262z" />
<glyph unicode="&#xaf;" horiz-adv-x="735" d="M-2 1208v217h739v-217h-739z" />
<glyph unicode="&#xb1;" horiz-adv-x="1216" d="M90 39v139h946v-139h-946zM90 539v139h404v250h139v-250h403v-139h-403v-250h-139v250h-404z" />
<glyph unicode="&#xb2;" d="M84 0q0 141 6 184q18 174 137 334q53 74 111 125q113 100 219 176l98 70q125 88 125 192q0 63 -44 104.5t-111 41.5q-154 0 -158 -197h-363q2 225 144.5 345t410.5 120q260 0 409 -119t149 -327q0 -162 -99 -277q-61 -68 -217 -149l-98 -54q-72 -37 -135 -104 q-53 -68 -64 -141h332v161h299q-4 -129 -4 -260q0 -125 2 -225q-492 4 -553 4q-68 0 -596 -4z" />
<glyph unicode="&#xb3;" d="M33 498l379 20v-8q0 -111 51 -172.5t143 -61.5q78 0 128 51.5t50 131.5q0 78 -53 127t-137 49q-25 0 -43 -2v246h22q88 0 140.5 46t52.5 122q0 63 -43 107t-107 44q-143 0 -161 -172l-383 23q12 102 33.5 156.5t68.5 109.5q156 180 471 180q256 0 406.5 -113.5 t150.5 -306.5q0 -90 -43 -170q-31 -57 -71.5 -87t-124.5 -56q94 -25 139 -54.5t84 -89.5q55 -88 55 -192q0 -209 -165 -333t-443 -124q-231 0 -381 92q-90 55 -143 140q-37 59 -52.5 120.5t-23.5 176.5z" />
<glyph unicode="&#xb4;" horiz-adv-x="501" d="M74 1186l190 327h385l-274 -323z" />
<glyph unicode="&#xb5;" horiz-adv-x="1275" d="M150 -285q0 4 1 19.5t2 43t1 56.5q4 131 4 182q0 117 -2 207q-4 180 -4 195v502h188v-607q0 -145 28.5 -194t102.5 -49q117 -2 195 163q78 168 77 420v267h189v-672q0 -92 18 -135q18 -41 60 -43q41 0 65 43q23 41 23 125v28h43q0 -10 2 -18v-27q0 -115 -49 -178 q-45 -61 -136 -61q-98 -2 -155 88q-49 82 -53 264q-47 -182 -125 -266q-78 -82 -199 -86q-90 0 -150 53q-57 51 -81 158q0 -4 -1 -23.5t-1 -34.5q-2 -127 65 -289q66 -160 66 -188q0 -41 -22.5 -63.5t-63.5 -22.5q-45 -2 -68 35q-16 28 -20 108z" />
<glyph unicode="&#xb6;" horiz-adv-x="1372" d="M59 1024q0 186 131.5 318.5t315.5 132.5h704v-162h-706q-119 0 -203 -86t-82 -205t85 -202t200 -83h123v457h176v-1194h-176v575h-123q-184 0 -314.5 131.5t-130.5 317.5zM922 0v1194h176v-1194h-176z" />
<glyph unicode="&#xb7;" horiz-adv-x="788" d="M133 319v422h522v-422h-522z" />
<glyph unicode="&#xb8;" horiz-adv-x="288" d="M0 -86h319v-225q0 -131 -73 -211q-39 -39 -89.5 -59.5t-146.5 -36.5v153q63 2 91 27.5t36 91.5h-137v260z" />
<glyph unicode="&#xb9;" d="M248 0v324l194 -5v797h-188v357q137 -2 309 -3q174 0 314 3v-1154l192 5v-324q-360 4 -405 4q-47 0 -416 -4z" />
<glyph unicode="&#xba;" horiz-adv-x="999" d="M59 1114q0 188 144.5 303t337.5 80q143 -27 233 -134.5t90 -248.5q2 -164 -114.5 -277.5t-288.5 -113.5t-287 112.5t-115 278.5zM72 457v196h782v-196h-782zM274 1114q0 -12 5 -37q14 -70 63 -111.5t119 -41.5q78 -2 132 53t54 137q0 12 -4 37q-23 123 -145 149 q-37 6 -74 0q-119 -27 -145 -151q-5 -21 -5 -35z" />
<glyph unicode="&#xbb;" horiz-adv-x="1353" d="M55 113l303 473l-266 409l264 176l383 -585l-407 -649zM612 113l306 473l-269 409l264 176l381 -585l-405 -649z" />
<glyph unicode="&#xbf;" horiz-adv-x="1294" d="M12 414q0 98 48.5 183t132.5 138q70 45 137 60.5t194 19.5l25 119h289q10 -274 16 -381q-82 31 -141 31q-96 0 -156.5 -48.5t-60.5 -125.5q0 -74 51 -120t131 -46q166 0 168 168h434q-8 -49 -18 -90q-25 -90 -90.5 -165t-155.5 -114q-158 -70 -373 -70q-291 0 -461 119 t-170 322zM422 1061v418h526v-418h-526z" />
<glyph unicode="&#xc0;" horiz-adv-x="1527" d="M-29 0v340l115 -4l229 803l-122 -4v338q483 -4 542 -5q66 0 598 5v-338l-125 4l234 -803l114 4v-340q-336 4 -376 4q-45 0 -398 -4v340l119 -4l-33 145h-385l-37 -145l121 4v-340q-270 4 -301 4q-33 0 -295 -4zM373 1962h413l154 -326l-309 -2zM545 709h258l-96 354 l-19 80l-14 76q-23 -123 -29 -144z" />
<glyph unicode="&#xc1;" horiz-adv-x="1527" d="M-29 0v340l115 -4l229 803l-122 -4v338q483 -4 542 -5q66 0 598 5v-338l-125 4l234 -803l114 4v-340q-336 4 -376 4q-45 0 -398 -4v340l119 -4l-33 145h-385l-37 -145l121 4v-340q-270 4 -301 4q-33 0 -295 -4zM545 709h258l-96 354l-19 80l-14 76q-23 -123 -29 -144z M627 1638l190 328h385l-274 -324z" />
<glyph unicode="&#xc2;" horiz-adv-x="1527" d="M-29 0v340l115 -4l229 803l-122 -4v338q483 -4 542 -5q66 0 598 5v-338l-125 4l234 -803l114 4v-340q-336 4 -376 4q-45 0 -398 -4v340l119 -4l-33 145h-385l-37 -145l121 4v-340q-270 4 -301 4q-33 0 -295 -4zM340 1638l260 326h354l254 -328h-311l-115 197l-125 -197z M545 709h258l-96 354l-19 80l-14 76q-23 -123 -29 -144z" />
<glyph unicode="&#xc3;" horiz-adv-x="1527" d="M-29 0v340l115 -4l229 803l-122 -4v338q483 -4 542 -5q66 0 598 5v-338l-125 4l234 -803l114 4v-340q-336 4 -376 4q-45 0 -398 -4v340l119 -4l-33 145h-385l-37 -145l121 4v-340q-270 4 -301 4q-33 0 -295 -4zM346 1776q68 109 143 153q63 37 123 37q59 0 133 -33 l68 -28q90 -37 123 -37q39 0 67.5 18.5t65.5 67.5l156 -127q-45 -70 -72 -98q-80 -90 -184 -91q-68 0 -129 33l-62 23q-4 4 -55 22q-55 23 -86 23q-39 0 -66.5 -19.5t-72.5 -77.5zM545 709h258l-96 354l-19 80l-14 76q-23 -123 -29 -144z" />
<glyph unicode="&#xc4;" horiz-adv-x="1527" d="M-29 0v340l115 -4l229 803l-122 -4v338h122l2 184h383l-6 -184q35 -4 64 -5q16 0 82 5l2 186h381v-182l110 -4v-338l-125 4l234 -803l114 4v-340q-336 4 -376 4q-45 0 -398 -4v340l119 -4l-33 145h-385l-37 -145l121 4v-340q-270 4 -301 4q-33 0 -295 -4zM545 709h258 l-96 354l-19 80l-14 76q-23 -123 -29 -144z" />
<glyph unicode="&#xc5;" horiz-adv-x="1527" d="M-29 0v340l115 -4l229 803l-122 -4v338l469 -3q-201 123 -201 189q0 84 84 142.5t203 58.5q113 0 191.5 -57.5t78.5 -139.5q0 -74 -205 -193l520 3v-338l-125 4l234 -803l114 4v-340q-336 4 -376 4q-45 0 -398 -4v340l119 -4l-33 145h-385l-37 -145l121 4v-340 q-270 4 -301 4q-33 0 -295 -4zM545 709h258l-96 354l-19 80l-14 76q-23 -123 -29 -144zM659 1659q0 -35 25 -59.5t59.5 -24.5t59 23.5t24.5 58.5t-24.5 59.5t-57.5 24.5q-35 0 -60.5 -24.5t-25.5 -57.5z" />
<glyph unicode="&#xc6;" horiz-adv-x="2166" d="M-29 0v340l119 -4l359 803l-123 -4v338q786 -4 891 -5q96 0 862 5q-4 -217 -4 -244t4 -244h-355v145h-276v-241h250v-305l-250 2v-248h303v145h358q-4 -113 -4 -256q0 -125 2 -227q-590 4 -661 4q-70 0 -660 -4v340l121 -4v260h-329l-115 -260l117 4v-340q-266 4 -301 4 q-34 0 -308 -4zM700 874h207v285h-80z" />
<glyph unicode="&#xc7;" horiz-adv-x="1560" d="M37 731q0 326 224 547t554 221q121 0 219 -35q59 -20 140 -75v88h358q-8 -156 -8 -265q0 -84 6 -249h-395q-23 94 -78 147q-78 72 -183 72q-121 0 -176 -92q-61 -98 -61 -371q0 -223 41 -313q45 -106 192 -107q127 0 193 94q31 43 44 92.5t21 141.5l433 -90 q-20 -158 -56.5 -239t-118.5 -151q-201 -172 -540 -172q-356 0 -582.5 211t-226.5 545zM616 -53h351v-162q0 -139 -82 -231q-43 -45 -98.5 -69t-159.5 -38v168q70 4 98.5 30.5t42.5 102.5h-152v199z" />
<glyph unicode="&#xc8;" horiz-adv-x="1427" d="M23 0v340l122 -4v803l-122 -4v338q578 -4 653 -5q74 0 663 5q-2 -111 -2 -252q0 -127 2 -230h-358v139l-272 5v-246h254v-297h-254v-248h301v135h360q-6 -160 -6 -237q0 -29 4 -242q-602 4 -682 4q-73 0 -663 -4zM342 1962h414l153 -326l-309 -2z" />
<glyph unicode="&#xc9;" horiz-adv-x="1427" d="M23 0v340l122 -4v803l-122 -4v338q578 -4 653 -5q74 0 663 5q-2 -111 -2 -252q0 -127 2 -230h-358v139l-272 5v-246h254v-297h-254v-248h301v135h360q-6 -160 -6 -237q0 -29 4 -242q-602 4 -682 4q-73 0 -663 -4zM584 1638l190 328h385l-274 -324z" />
<glyph unicode="&#xca;" horiz-adv-x="1427" d="M23 0v340l122 -4v803l-122 -4v338q578 -4 653 -5q74 0 663 5q-2 -111 -2 -252q0 -127 2 -230h-358v139l-272 5v-246h254v-297h-254v-248h301v135h360q-6 -160 -6 -237q0 -29 4 -242q-602 4 -682 4q-73 0 -663 -4zM295 1638l260 326h354l254 -328h-311l-115 197l-125 -197 z" />
<glyph unicode="&#xcb;" horiz-adv-x="1427" d="M23 0v340l122 -4v803l-122 -4v338q578 -4 653 -5q74 0 663 5q-2 -111 -2 -252q0 -127 2 -230h-358v139l-272 5v-246h254v-297h-254v-248h301v135h360q-6 -160 -6 -237q0 -29 4 -242q-602 4 -682 4q-73 0 -663 -4zM229 1810.5q0 75.5 64.5 131t153 55.5t150.5 -55.5 t62 -133.5q0 -76 -63.5 -129t-153.5 -53q-88 0 -150.5 54.5t-62.5 130zM770 1808q0 78 62.5 133.5t150.5 55.5t151.5 -55.5t63.5 -131t-62.5 -130t-150.5 -54.5q-90 0 -152.5 53t-62.5 129z" />
<glyph unicode="&#xcc;" horiz-adv-x="856" d="M23 0v340l122 -4v803l-120 -4v338q356 -4 405 -5q47 0 395 5v-338l-116 4v-803l114 4v-340q-352 4 -401 4q-47 0 -399 -4zM47 1962h414l153 -326l-309 -2z" />
<glyph unicode="&#xcd;" horiz-adv-x="856" d="M23 0v340l122 -4v803l-120 -4v338q356 -4 405 -5q47 0 395 5v-338l-116 4v-803l114 4v-340q-352 4 -401 4q-47 0 -399 -4zM291 1638l190 328h385l-274 -324z" />
<glyph unicode="&#xce;" horiz-adv-x="856" d="M-8 1638l260 326h354l254 -328h-311l-115 197l-125 -197zM23 0v340l122 -4v803l-120 -4v338q356 -4 405 -5q47 0 395 5v-338l-116 4v-803l114 4v-340q-352 4 -401 4q-47 0 -399 -4z" />
<glyph unicode="&#xcf;" horiz-adv-x="856" d="M-47 1810.5q0 75.5 64.5 131t152.5 55.5t150.5 -55.5t62.5 -133.5q0 -76 -63.5 -129t-153.5 -53q-88 0 -150.5 54.5t-62.5 130zM23 0v340l122 -4v803l-120 -4v338q356 -4 405 -5q47 0 395 5v-338l-116 4v-803l114 4v-340q-352 4 -401 4q-47 0 -399 -4zM494 1808 q0 78 62 133.5t150.5 55.5t152 -55.5t63.5 -131t-62.5 -130t-150.5 -54.5q-90 0 -152.5 53t-62.5 129z" />
<glyph unicode="&#xd1;" horiz-adv-x="1605" d="M37 0v340l115 -4v803l-115 -4v338q299 -4 334 -5q33 0 327 5l357 -596q33 -53 82 -168q0 20 -3.5 54t-3.5 46q-4 82 -4 90v240l-104 -4v338q250 -4 278 -5q33 0 267 5v-338l-113 4v-1139h-483l-428 700q-35 57 -72 164q8 -176 8 -178v-350l113 4v-340q-246 4 -273 4 q-32 0 -282 -4zM397 1776q68 109 144 153q66 37 123 37q59 0 133 -33l67 -28q90 -37 123 -37q39 0 67.5 18.5t65.5 67.5l156 -127q-45 -70 -72 -98q-80 -90 -184 -91q-68 0 -129 33l-62 23q-4 4 -55 22q-55 23 -86 23q-39 0 -66.5 -19.5t-72.5 -77.5z" />
<glyph unicode="&#xd2;" horiz-adv-x="1687" d="M37 739q0 336 226 549t580.5 213t580 -213t225.5 -549t-225.5 -549t-580 -213t-580.5 213t-226 549zM455 1962h413l154 -326l-309 -2zM645 739.5q0 -153.5 8.5 -224.5t34.5 -122q45 -88 156 -88q113 0 155 88q27 53 35 122t8 224.5t-8 225t-35 120.5q-45 88 -155 89 q-113 0 -156 -89q-27 -55 -35 -123.5t-8 -222z" />
<glyph unicode="&#xd3;" horiz-adv-x="1687" d="M37 739q0 336 226 549t580.5 213t580 -213t225.5 -549t-225.5 -549t-580 -213t-580.5 213t-226 549zM645 739.5q0 -153.5 8.5 -224.5t34.5 -122q45 -88 156 -88q113 0 155 88q27 53 35 122t8 224.5t-8 225t-35 120.5q-45 88 -155 89q-113 0 -156 -89q-27 -55 -35 -123.5 t-8 -222zM707 1638l190 328h385l-274 -324z" />
<glyph unicode="&#xd4;" horiz-adv-x="1687" d="M37 739q0 336 226 549t580.5 213t580 -213t225.5 -549t-225.5 -549t-580 -213t-580.5 213t-226 549zM428 1638l260 326h354l254 -328h-311l-115 197l-125 -197zM645 739.5q0 -153.5 8.5 -224.5t34.5 -122q45 -88 156 -88q113 0 155 88q27 53 35 122t8 224.5t-8 225 t-35 120.5q-45 88 -155 89q-113 0 -156 -89q-27 -55 -35 -123.5t-8 -222z" />
<glyph unicode="&#xd5;" horiz-adv-x="1687" d="M37 739q0 336 226 549t580.5 213t580 -213t225.5 -549t-225.5 -549t-580 -213t-580.5 213t-226 549zM444 1776q68 109 144 153q63 37 123 37q59 0 133 -33l67 -28q90 -37 123 -37q39 0 67.5 18.5t65.5 67.5l156 -127q-45 -70 -72 -98q-80 -90 -184 -91q-68 0 -129 33 l-61 23q-4 4 -56 22q-55 23 -86 23q-39 0 -66.5 -19.5t-72.5 -77.5zM645 739.5q0 -153.5 8.5 -224.5t34.5 -122q45 -88 156 -88q113 0 155 88q27 53 35 122t8 224.5t-8 225t-35 120.5q-45 88 -155 89q-113 0 -156 -89q-27 -55 -35 -123.5t-8 -222z" />
<glyph unicode="&#xd6;" horiz-adv-x="1687" d="M37 729q0 182 44 288.5t183 266.5l-153 2l2 371l409 -2v-211q92 35 149.5 46t151.5 11q158 0 355 -57l2 207h409l2 -363l-155 -2q129 -164 171 -272.5t42 -272.5q0 -336 -225.5 -550t-579.5 -214q-352 0 -579.5 212t-227.5 540zM645 739q0 -154 8.5 -222t34.5 -124 q43 -88 156 -88q111 0 155 88q27 51 35 122t8 224q0 158 -8 225.5t-35 120.5q-43 88 -155 89q-111 0 -156 -89q-27 -51 -35 -120.5t-8 -225.5z" />
<glyph unicode="&#xd7;" d="M152 436l274 275l-266 266l231 233l268 -266l265 262l229 -229l-262 -264l260 -260l-231 -234l-265 264l-274 -276z" />
<glyph unicode="&#xd8;" horiz-adv-x="1687" d="M37 733q0 338 224 553t579 215q141 0 268 -35q94 -27 142 -49t122 -78l178 168l99 -108l-168 -160q100 -154 134 -253t34 -247q0 -336 -226.5 -549t-584.5 -213q-152 0 -262.5 37t-249.5 133l-189 -176l-98 111l178 166q-111 141 -145.5 234t-34.5 251zM637 786 q0 -23 6 -47l6 -32l2 -50l383 361q-45 90 -85 123t-105 33q-106 0 -156.5 -93.5t-50.5 -294.5zM668 471q23 -88 61.5 -124t112.5 -36q109 0 160 84t51 264l-4 17v92v61z" />
<glyph unicode="&#xd9;" horiz-adv-x="1499" d="M29 1135v338l389 -4.5t381 4.5v-338l-101 4v-619q0 -109 23 -145q35 -59 147 -60q104 0 144 62q25 35 24 143v619l-102 -4v338q250 -4 278 -5q31 0 256 5v-338l-102 4v-584q0 -152 -39 -250t-131 -176q-182 -154 -448 -154q-268 0 -447 154q-90 78 -129 176t-39 250v584z M440 1962h414l154 -326l-310 -2z" />
<glyph unicode="&#xda;" horiz-adv-x="1499" d="M29 1135v338l389 -4.5t381 4.5v-338l-101 4v-619q0 -109 23 -145q35 -59 147 -60q104 0 144 62q25 35 24 143v619l-102 -4v338q250 -4 278 -5q31 0 256 5v-338l-102 4v-584q0 -152 -39 -250t-131 -176q-182 -154 -448 -154q-268 0 -447 154q-90 78 -129 176t-39 250v584z M653 1638l191 328h385l-275 -324z" />
<glyph unicode="&#xdb;" horiz-adv-x="1499" d="M29 1135v338l389 -4.5t381 4.5v-338l-101 4v-619q0 -109 23 -145q35 -59 147 -60q104 0 144 62q25 35 24 143v619l-102 -4v338q250 -4 278 -5q31 0 256 5v-338l-102 4v-584q0 -152 -39 -250t-131 -176q-182 -154 -448 -154q-268 0 -447 154q-90 78 -129 176t-39 250v584z M377 1638l260 326h354l254 -328h-311l-115 197l-125 -197z" />
<glyph unicode="&#xdc;" horiz-adv-x="1499" d="M29 1135v338l278 -3l2 193h416v-188l74 -2v-338l-101 4v-619q0 -102 23 -143q33 -59 149 -60q102 0 142 60q25 39 24 143v619l-102 -4v338l76 2v188l415 -2l-2 -184l45 -4v-338l-102 4v-598q0 -152 -39 -247t-131 -179q-90 -80 -193.5 -114t-259.5 -34q-147 0 -249.5 34 t-192.5 114q-92 80 -130 176t-38 250v598z" />
<glyph unicode="&#xdd;" horiz-adv-x="1476" d="M588 1624l190 327h385l-274 -323zM-74 1135v338q365 -4 408 -5q41 0 393 5v-320l-92 4l145 -221q31 -47 42.5 -78t25.5 -100q29 125 63 174l160 225l-94 -4v320l286.5 -4.5t286.5 4.5v-338l-100 4l-395 -582v-221l119 4v-340q-365 4 -410 4q-43 0 -404 -4v340l119 -4v239 l-450 564z" />
<glyph unicode="&#xdf;" horiz-adv-x="1564" d="M6 0v319l139 -2v703q0 164 37 248t133 141q166 96 455 96q301 0 463 -91t162 -261q0 -59 -23 -117q-23 -53 -48.5 -80.5t-86.5 -58.5q70 -14 104.5 -32.5t77.5 -61.5q111 -121 111 -316q0 -227 -134 -366t-356 -139q-90 0 -256 28v338q66 -8 88 -8q76 0 117 54.5 t41 152.5q0 207 -182 207q-39 0 -64 -4v229h13q127 0 127 131q0 63 -37 101t-96 38q-68 0 -105 -49q-27 -37 -27 -151v-1049q-291 4 -294 4q-44 0 -359 -4z" />
<glyph unicode="&#xe0;" horiz-adv-x="1464" d="M29 328q0 164 131 263t350 99q55 0 82 -2q96 -8 211 -45v66q0 66 -11.5 93t-43.5 50q-47 31 -117 31q-131 0 -174 -119l-406 18q23 106 56.5 157.5t113.5 96.5q164 92 465 92q330 0 481.5 -99t151.5 -314v-381l123 4v-338q-287 4 -322 4q-33 0 -319 -4v78 q-57 -31 -99 -45q-123 -49 -258 -49q-186 0 -300.5 96t-114.5 248zM360 1509h414l154 -325l-310 -2zM537 348.5q0 -59.5 32.5 -95.5t87.5 -36q68 0 144 55v162q-76 45 -135.5 45t-94 -35.5t-34.5 -95z" />
<glyph unicode="&#xe1;" horiz-adv-x="1464" d="M29 328q0 164 131 263t350 99q55 0 82 -2q96 -8 211 -45v66q0 66 -11.5 93t-43.5 50q-47 31 -117 31q-131 0 -174 -119l-406 18q23 106 56.5 157.5t113.5 96.5q164 92 465 92q330 0 481.5 -99t151.5 -314v-381l123 4v-338q-287 4 -322 4q-33 0 -319 -4v78 q-57 -31 -99 -45q-123 -49 -258 -49q-186 0 -300.5 96t-114.5 248zM537 348.5q0 -59.5 32.5 -95.5t87.5 -36q68 0 144 55v162q-76 45 -135.5 45t-94 -35.5t-34.5 -95zM575 1186l191 327h385l-274 -323z" />
<glyph unicode="&#xe2;" horiz-adv-x="1464" d="M29 328q0 164 131 263t350 99q55 0 82 -2q96 -8 211 -45v66q0 66 -11.5 93t-43.5 50q-47 31 -117 31q-131 0 -174 -119l-406 18q23 106 56.5 157.5t113.5 96.5q164 92 465 92q330 0 481.5 -99t151.5 -314v-381l123 4v-338q-287 4 -322 4q-33 0 -319 -4v78 q-57 -31 -99 -45q-123 -49 -258 -49q-186 0 -300.5 96t-114.5 248zM317 1186l261 325h354l254 -327h-312l-114 196l-125 -196zM537 348.5q0 -59.5 32.5 -95.5t87.5 -36q68 0 144 55v162q-76 45 -135.5 45t-94 -35.5t-34.5 -95z" />
<glyph unicode="&#xe3;" horiz-adv-x="1464" d="M29 328q0 164 131 263t350 99q55 0 82 -2q96 -8 211 -45v66q0 66 -11.5 93t-43.5 50q-47 31 -117 31q-131 0 -174 -119l-406 18q23 106 56.5 157.5t113.5 96.5q164 92 465 92q330 0 481.5 -99t151.5 -314v-381l123 4v-338q-287 4 -322 4q-33 0 -319 -4v78 q-57 -31 -99 -45q-123 -49 -258 -49q-186 0 -300.5 96t-114.5 248zM334 1323q68 109 143 154q63 37 123 36q59 0 133 -32l68 -29q90 -37 123 -37q39 0 67.5 18.5t65.5 67.5l155 -127q-45 -70 -71 -98q-80 -90 -185 -90q-68 0 -129 33l-61 22q-4 4 -55 23q-55 23 -86 22 q-39 0 -67 -19.5t-73 -76.5zM537 348.5q0 -59.5 32.5 -95.5t87.5 -36q68 0 144 55v162q-76 45 -135.5 45t-94 -35.5t-34.5 -95z" />
<glyph unicode="&#xe4;" horiz-adv-x="1464" d="M29 328q0 164 131 263t350 99q55 0 82 -2q96 -8 211 -45v66q0 66 -11.5 93t-43.5 50q-47 31 -117 31q-131 0 -174 -119l-406 18q23 106 56.5 157.5t113.5 96.5q164 92 465 92q330 0 481.5 -99t151.5 -314v-381l123 4v-338q-287 4 -322 4q-33 0 -319 -4v78 q-57 -31 -99 -45q-123 -49 -258 -49q-186 0 -300.5 96t-114.5 248zM172 1333q0 78 70.5 133.5t171 55.5t171 -54.5t70.5 -132.5t-70.5 -132t-172.5 -54q-100 0 -170 54t-70 130zM537 348.5q0 -59.5 32.5 -95.5t87.5 -36q68 0 144 55v162q-76 45 -135.5 45t-94 -35.5 t-34.5 -95zM760 1335q0 78 70.5 132.5t171 54.5t172 -55.5t71.5 -133.5q0 -76 -70.5 -130t-170.5 -54q-102 0 -173 54t-71 132z" />
<glyph unicode="&#xe5;" horiz-adv-x="1464" d="M29 328q0 164 131 263t350 99q55 0 82 -2q96 -8 211 -45v66q0 66 -11.5 93t-43.5 50q-47 31 -117 31q-131 0 -174 -119l-406 18q23 106 56.5 157.5t113.5 96.5q164 92 465 92q330 0 481.5 -99t151.5 -314v-381l123 4v-338q-287 4 -322 4q-33 0 -319 -4v78 q-57 -31 -99 -45q-123 -49 -258 -49q-186 0 -300.5 96t-114.5 248zM485 1397q0 88 83 150.5t198 62.5t194.5 -62.5t79.5 -152.5q0 -84 -80.5 -144.5t-193.5 -60.5q-115 0 -198 60.5t-83 146.5zM537 348.5q0 -59.5 32.5 -95.5t87.5 -36q68 0 144 55v162q-76 45 -135.5 45 t-94 -35.5t-34.5 -95zM674 1397q0 -37 25.5 -62.5t62.5 -25.5t62.5 25.5t25.5 62.5t-25.5 62.5t-60.5 25.5q-39 0 -64.5 -25.5t-25.5 -62.5z" />
<glyph unicode="&#xe6;" horiz-adv-x="2136" d="M29 319q0 152 137 248.5t356 96.5q51 0 105 -7q76 -8 182 -39v91v65q0 31 -37 68q-51 47 -135 47q-68 0 -109 -29t-69 -94l-428 18q53 143 113.5 204t189.5 95q150 41 346 41q285 0 455 -82l43 25q119 51 295 51q166 0 299 -57q139 -59 227 -170q63 -78 85.5 -158 t22.5 -223v-35h-784v-14q0 -100 39 -160q43 -61 123 -61q109 0 164 116l446 -63q-63 -102 -110.5 -150.5t-124.5 -89.5q-156 -86 -383 -86q-96 0 -215 25q-92 20 -146.5 48t-136.5 97q-98 -76 -199 -112q-150 -51 -291 -52q-209 0 -334.5 94t-125.5 252zM539 326 q0 -53 31.5 -85t86.5 -32q74 0 152 49v158q-96 39 -147 39q-53 0 -88 -36t-35 -93zM1323 672h281v18q0 66 -39 108t-99 42q-133 0 -143 -168z" />
<glyph unicode="&#xe7;" horiz-adv-x="1310" d="M37 551q0 248 166 407.5t426 159.5q106 0 196 -33q63 -23 127 -73v80h328q-6 -174 -6 -236q0 -25 4 -213l-354 2q-25 86 -62 123q-55 55 -125 55q-86 0 -136 -77.5t-50 -210.5q0 -266 180 -267q72 0 111 36t59 124l410 -78q-45 -102 -80 -152.5t-96 -95.5 q-158 -121 -424 -120q-309 0 -491.5 154.5t-182.5 414.5zM512 16h317v-227q0 -131 -71 -209q-39 -39 -89.5 -59.5t-146.5 -36.5v154q63 2 90 27.5t37 90.5h-137v260z" />
<glyph unicode="&#xe8;" horiz-adv-x="1441" d="M37 545q0 256 192.5 415.5t501.5 159.5q305 0 498 -168q100 -88 139 -187t45 -290h-848q12 -98 57.5 -142t135.5 -44q115 0 180 102l426 -80q-57 -96 -99 -142t-114 -93q-168 -104 -412 -105q-317 0 -509.5 157t-192.5 417zM354 1509h414l154 -325l-310 -2zM567 655 l338 -2v6q0 74 -45 120t-116.5 46t-124 -46t-52.5 -111v-13z" />
<glyph unicode="&#xe9;" horiz-adv-x="1441" d="M37 545q0 256 192.5 415.5t501.5 159.5q305 0 498 -168q100 -88 139 -187t45 -290h-848q12 -98 57.5 -142t135.5 -44q115 0 180 102l426 -80q-57 -96 -99 -142t-114 -93q-168 -104 -412 -105q-317 0 -509.5 157t-192.5 417zM563 1186l191 327h385l-275 -323zM567 655 l338 -2v6q0 74 -45 120t-116.5 46t-124 -46t-52.5 -111v-13z" />
<glyph unicode="&#xea;" horiz-adv-x="1441" d="M37 545q0 256 192.5 415.5t501.5 159.5q305 0 498 -168q100 -88 139 -187t45 -290h-848q12 -98 57.5 -142t135.5 -44q115 0 180 102l426 -80q-57 -96 -99 -142t-114 -93q-168 -104 -412 -105q-317 0 -509.5 157t-192.5 417zM307 1186l260 325h355l254 -327h-312l-114 196 l-125 -196zM567 655l338 -2v6q0 74 -45 120t-116.5 46t-124 -46t-52.5 -111v-13z" />
<glyph unicode="&#xeb;" horiz-adv-x="1441" d="M37 545q0 256 192.5 415.5t501.5 159.5q305 0 498 -168q100 -88 139 -187t45 -290h-848q12 -98 57.5 -142t135.5 -44q115 0 180 102l426 -80q-57 -96 -99 -142t-114 -93q-168 -104 -412 -105q-317 0 -509.5 157t-192.5 417zM260 1358q0 76 64.5 131t152.5 55t150.5 -55 t62.5 -133q0 -76 -63.5 -129t-153.5 -53q-88 0 -150.5 54t-62.5 130zM567 655l338 -2v6q0 74 -45 120t-116.5 46t-124 -46t-52.5 -111v-13zM801 1356q0 78 62.5 133t150.5 55t151.5 -55t63.5 -131t-62.5 -130t-150.5 -54q-90 0 -152.5 53t-62.5 129z" />
<glyph unicode="&#xec;" horiz-adv-x="815" d="M12 1509h414l154 -325l-310 -2zM20 0v338l138 -4v422l-133 -2v338q295 -4 331 -5q39 0 322 5v-758l115 4v-338q-340 4 -385 4q-44 0 -388 -4z" />
<glyph unicode="&#xed;" horiz-adv-x="815" d="M20 0v338l138 -4v422l-133 -2v338q295 -4 331 -5q39 0 322 5v-758l115 4v-338q-340 4 -385 4q-44 0 -388 -4zM272 1186l191 327h385l-275 -323z" />
<glyph unicode="&#xee;" horiz-adv-x="815" d="M-18 1186l260 325h354l254 -327h-311l-115 196l-125 -196zM20 0v338l138 -4v422l-133 -2v338q295 -4 331 -5q39 0 322 5v-758l115 4v-338q-340 4 -385 4q-44 0 -388 -4z" />
<glyph unicode="&#xef;" horiz-adv-x="815" d="M-59 1358q0 76 64.5 131t152.5 55t150.5 -55t62.5 -133q0 -76 -63.5 -129t-153.5 -53q-88 0 -150.5 54t-62.5 130zM20 0v338l138 -4v422l-133 -2v338q295 -4 331 -5q39 0 322 5v-758l115 4v-338q-340 4 -385 4q-44 0 -388 -4zM481 1356q0 78 62.5 133t150.5 55t151.5 -55 t63.5 -131t-62.5 -130t-150.5 -54q-90 0 -152.5 53t-62.5 129z" />
<glyph unicode="&#xf1;" horiz-adv-x="1593" d="M16 754v338q295 -4 336 -5q37 0 312 5v-119q25 12 61.5 33.5t48.5 27.5q150 84 301 84q203 0 305 -139q49 -68 60.5 -122t11.5 -228v-295l127 4v-338q-283 4 -319 4q-39 0 -326 -4v567q0 68 -5 91.5t-26 46.5q-29 35 -84 34q-20 0 -47 -6q-23 -6 -82 -35q-2 -4 -22 -12 v-352l143 6v-340q-328 4 -369 4q-47 0 -424 -4v338l138 -4v424zM395 1323q68 109 144 154q63 37 123 36q59 0 133 -32l67 -29q90 -37 123 -37q39 0 67.5 18.5t65.5 67.5l156 -127q-45 -70 -72 -98q-80 -90 -184 -90q-68 0 -129 33l-62 22q-4 4 -55 23q-55 23 -86 22 q-39 0 -66.5 -19.5t-72.5 -76.5z" />
<glyph unicode="&#xf2;" horiz-adv-x="1437" d="M37 547q0 252 190.5 412.5t489.5 160.5q301 0 491.5 -160.5t190.5 -412.5q0 -254 -190.5 -414t-491.5 -160q-299 0 -489.5 161t-190.5 413zM348 1509h414l153 -325l-309 -2zM557 547q0 -123 42 -187.5t118 -64.5q160 0 160 252t-160 252q-76 0 -118 -65.5t-42 -186.5z " />
<glyph unicode="&#xf3;" horiz-adv-x="1437" d="M37 547q0 252 190.5 412.5t489.5 160.5q301 0 491.5 -160.5t190.5 -412.5q0 -254 -190.5 -414t-491.5 -160q-299 0 -489.5 161t-190.5 413zM557 547q0 -123 42 -187.5t118 -64.5q160 0 160 252t-160 252q-76 0 -118 -65.5t-42 -186.5zM580 1186l190 327h385l-274 -323z " />
<glyph unicode="&#xf4;" horiz-adv-x="1437" d="M37 547q0 252 190.5 412.5t489.5 160.5q301 0 491.5 -160.5t190.5 -412.5q0 -254 -190.5 -414t-491.5 -160q-299 0 -489.5 161t-190.5 413zM299 1186l260 325h354l254 -327h-311l-115 196l-125 -196zM557 547q0 -123 42 -187.5t118 -64.5q160 0 160 252t-160 252 q-76 0 -118 -65.5t-42 -186.5z" />
<glyph unicode="&#xf5;" horiz-adv-x="1437" d="M37 547q0 252 190.5 412.5t489.5 160.5q301 0 491.5 -160.5t190.5 -412.5q0 -254 -190.5 -414t-491.5 -160q-299 0 -489.5 161t-190.5 413zM322 1323q68 109 143 154q63 37 123 36q59 0 133 -32l67 -29q90 -37 123 -37q39 0 68 18.5t65 67.5l156 -127q-45 -70 -72 -98 q-80 -90 -184 -90q-68 0 -129 33l-61 22q-4 4 -56 23q-55 23 -86 22q-39 0 -66.5 -19.5t-72.5 -76.5zM557 547q0 -123 42 -187.5t118 -64.5q160 0 160 252t-160 252q-76 0 -118 -65.5t-42 -186.5z" />
<glyph unicode="&#xf6;" horiz-adv-x="1437" d="M37 547q0 252 190.5 412.5t489.5 160.5q301 0 491.5 -160.5t190.5 -412.5q0 -254 -190.5 -414t-491.5 -160q-299 0 -489.5 161t-190.5 413zM188 1329q0 76 72 130t172 54t173 -54t73 -128q0 -78 -71.5 -133t-174 -55t-173.5 54t-71 132zM557 547q0 -123 42 -187.5 t118 -64.5q160 0 160 252t-160 252q-76 0 -118 -65.5t-42 -186.5zM801 1331q0 74 70.5 128t171 54t173 -54t72.5 -130q0 -78 -71.5 -132t-174.5 -54q-100 0 -170.5 55t-70.5 133z" />
<glyph unicode="&#xf7;" horiz-adv-x="1216" d="M88 414v139h948v-139h-948zM446 207q0 49 33 82q39 35 84 35q49 0 82 -33t33 -84q0 -49 -35 -82q-31 -35 -80 -35t-84 35q-33 37 -33 82zM446 758q0 49 33 82q35 31 84 34q49 0 80 -34q35 -35 35 -82q0 -49 -35 -82q-31 -35 -80 -35t-84 35q-33 33 -33 82z" />
<glyph unicode="&#xf8;" horiz-adv-x="1447" d="M37 63l143 121q-86 106 -114.5 177t-28.5 180q0 256 189.5 416.5t492.5 160.5q113 0 202 -23.5t246 -90.5l160 133l84 -97l-151 -122q86 -111 114.5 -186t28.5 -181q0 -256 -190.5 -417t-497.5 -161q-123 0 -208 26t-226 105l-166 -137zM561 561q0 -2 4 -59l277 231 q-59 66 -121 66q-74 0 -117 -63.5t-43 -174.5zM600 367q49 -63 125 -64q154 0 154 262v35z" />
<glyph unicode="&#xf9;" horiz-adv-x="1576" d="M16 754v338l322 -4.5t317 4.5v-582q0 -156 113 -156q57 0 150 54v348l-127 -2v338q299 -4 335 -5q35 0 310 5v-758l127 4v-338q-287 4 -322 4t-330 -4v115q-27 -18 -102 -62q-147 -80 -297 -80q-209 0 -311 160q-43 66 -52.5 113t-9.5 200v310zM397 1509h414l154 -325 l-310 -2z" />
<glyph unicode="&#xfa;" horiz-adv-x="1576" d="M16 754v338l322 -4.5t317 4.5v-582q0 -156 113 -156q57 0 150 54v348l-127 -2v338q299 -4 335 -5q35 0 310 5v-758l127 4v-338q-287 4 -322 4t-330 -4v115q-27 -18 -102 -62q-147 -80 -297 -80q-209 0 -311 160q-43 66 -52.5 113t-9.5 200v310zM631 1186l190 327h385 l-274 -323z" />
<glyph unicode="&#xfb;" horiz-adv-x="1576" d="M16 754v338l322 -4.5t317 4.5v-582q0 -156 113 -156q57 0 150 54v348l-127 -2v338q299 -4 335 -5q35 0 310 5v-758l127 4v-338q-287 4 -322 4t-330 -4v115q-27 -18 -102 -62q-147 -80 -297 -80q-209 0 -311 160q-43 66 -52.5 113t-9.5 200v310zM334 1186l260 325h354 l254 -327h-311l-115 196l-125 -196z" />
<glyph unicode="&#xfc;" horiz-adv-x="1576" d="M16 754v338l322 -4.5t317 4.5v-582q0 -156 113 -156q57 0 150 54v348l-127 -2v338q299 -4 335 -5q35 0 310 5v-758l127 4v-338q-287 4 -322 4t-330 -4v115q-27 -18 -102 -62q-147 -80 -297 -80q-209 0 -311 160q-43 66 -52.5 113t-9.5 200v310zM219 1335q0 78 70.5 132.5 t171 54.5t171 -54.5t70.5 -132.5t-71.5 -132t-172 -54t-170 54t-69.5 132zM825 1335q0 78 72 132.5t172 54.5t170 -54.5t70 -130.5q0 -78 -70 -133t-170 -55t-172 54t-72 132z" />
<glyph unicode="&#xfd;" horiz-adv-x="1294" d="M504 1243l190 327h385l-274 -323zM-45 754v338q348 -4 389 -4.5t369 4.5v-338l-103 2l105 -232q23 -47 43 -180q12 106 45 180l106 232l-96 -2v338q254 -4 287 -5q27 0 256 5v-338l-111 4l-540 -1129q-98 6 -222 6q-133 0 -239 -6v318l190 -2l21 43l-418 770z" />
<glyph unicode="&#xff;" horiz-adv-x="1294" d="M-45 754v338q348 -4 389 -4.5t369 4.5v-338l-103 2l105 -232q23 -47 43 -180q12 106 45 180l106 232l-96 -2v338q254 -4 287 -5q27 0 256 5v-338l-111 4l-540 -1129q-98 6 -222 6q-133 0 -239 -6v318l190 -2l21 43l-418 770zM203 1358q0 76 64.5 131t152.5 55t150.5 -55 t62.5 -133q0 -76 -63.5 -129t-153.5 -53q-88 0 -150.5 54t-62.5 130zM743 1356q0 78 62.5 133t150.5 55t151.5 -55t63.5 -131t-62 -130t-151 -54q-90 0 -152.5 53t-62.5 129z" />
<glyph unicode="&#x152;" horiz-adv-x="2250" d="M35 731q0 336 221 551q90 84 201 133q84 37 159.5 48.5t221.5 11.5h116q61 0 273.5 -4.5t351.5 -2.5l584 5q-2 -104 -2 -238q0 -135 2 -244h-355v144h-297v-236h265v-307h-265v-252h330v147h350v-225v-262q-139 0 -307 1t-263 2t-169 1q-106 0 -274 -2t-230 -2h-94 q-178 0 -270 16.5t-183 61.5q-168 86 -267 263t-99 390zM616 748q0 -297 148 -369q66 -31 207 -39v795h-23q-172 0 -252 -94t-80 -293z" />
<glyph unicode="&#x153;" horiz-adv-x="2230" d="M35 545q0 260 183 419.5t482 159.5q119 0 228 -24q90 -20 223 -84l33 19q18 11 20 12q143 74 342 73q287 0 471 -159q98 -86 136 -187.5t47 -292.5h-807q0 -131 39 -180q49 -59 133 -59q115 0 178 118l436 -55q-55 -111 -104.5 -163t-137.5 -95q-162 -78 -372 -78 q-96 0 -195 19q-74 12 -120 29.5t-120 60.5q-102 -66 -200 -86q-113 -23 -219 -23q-307 0 -491.5 157t-184.5 419zM561 541q0 -260 164 -260q76 0 118 69.5t42 194.5t-43 193.5t-123 68.5q-158 0 -158 -266zM1393 672h303v8q0 72 -45 121t-110.5 49t-105.5 -48t-42 -130z " />
<glyph unicode="&#x178;" horiz-adv-x="1476" d="M-74 1135v338q365 -4 408 -5q41 0 393 5v-320l-92 4l145 -221q31 -47 42.5 -78t25.5 -100q29 125 63 174l160 225l-94 -4v320l286.5 -4.5t286.5 4.5v-338l-100 4l-395 -582v-221l119 4v-340q-365 4 -410 4q-43 0 -404 -4v340l119 -4v239l-450 564zM307 1810.5 q0 75.5 64.5 131t152.5 55.5t150.5 -55.5t62.5 -133.5q0 -76 -63.5 -129t-153.5 -53q-88 0 -150.5 54.5t-62.5 130zM848 1808q0 78 62.5 133.5t150.5 55.5t151.5 -55.5t63.5 -131t-62.5 -130t-150.5 -54.5q-90 0 -152.5 53t-62.5 129z" />
<glyph unicode="&#x2c6;" horiz-adv-x="843" d="M-12 1186l260 325h354l254 -327h-311l-115 196l-125 -196z" />
<glyph unicode="&#x2dc;" horiz-adv-x="851" d="M-12 1323q68 109 143 154q66 37 123 36q59 0 133 -32l68 -29q90 -37 123 -37q39 0 67.5 18.5t65.5 67.5l155 -127q-45 -70 -71 -98q-80 -90 -185 -90q-68 0 -129 33l-61 22q-4 4 -55 23q-55 23 -86 22q-39 0 -67 -19.5t-73 -76.5z" />
<glyph unicode="&#x2013;" d="M53 553v321h1200v-321h-1200z" />
<glyph unicode="&#x2014;" horiz-adv-x="2039" d="M61 561v352h1917v-352h-1917z" />
<glyph unicode="&#x2018;" horiz-adv-x="679" d="M74 690v440q0 180 121 271q61 43 139 60.5t221 17.5q35 0 51 -2v-232h-39q-92 0 -128 -29.5t-38 -103.5h205v-422h-532z" />
<glyph unicode="&#x2019;" horiz-adv-x="681" d="M74 688v234h26q102 0 135 25.5t41 107.5h-202v422h532v-447q0 -176 -117 -264q-57 -43 -133.5 -60.5t-220.5 -17.5h-61z" />
<glyph unicode="&#x201a;" horiz-adv-x="681" d="M74 -133q18 -2 55 -2q82 0 114.5 29.5t35.5 105.5h-203v420h532v-436q0 -182 -114 -273q-57 -45 -135 -61.5t-226 -16.5q-10 0 -30.5 1t-28.5 1v232z" />
<glyph unicode="&#x201c;" horiz-adv-x="1312" d="M74 690v440q0 180 121 271q61 43 139 60.5t221 17.5q35 0 51 -2v-232h-39q-92 0 -128 -29.5t-38 -103.5h205v-422h-532zM707 690v440q0 180 120 271q61 43 139 60.5t224 17.5q33 0 49 -2v-232h-39q-92 0 -128 -29.5t-38 -103.5h205v-422h-532z" />
<glyph unicode="&#x201d;" horiz-adv-x="1314" d="M74 688v234h26q102 0 135 25.5t41 107.5h-202v422h532v-447q0 -176 -117 -264q-57 -43 -133.5 -60.5t-220.5 -17.5h-61zM707 688v234h26q102 0 135 25.5t41 107.5h-202v422h532v-447q0 -176 -117 -264q-57 -43 -134 -60.5t-220 -17.5h-61z" />
<glyph unicode="&#x201e;" horiz-adv-x="1314" d="M74 -133q18 -2 55 -2q82 0 114.5 29.5t35.5 105.5h-203v420h532v-436q0 -182 -114 -273q-57 -45 -135 -61.5t-226 -16.5q-10 0 -30.5 1t-28.5 1v232zM707 -133q20 -2 55 -2q82 0 114.5 29.5t34.5 105.5h-202v420h532v-436q0 -182 -115 -273q-57 -45 -136 -61.5 t-226 -16.5q-8 0 -27.5 1t-29.5 1v232z" />
<glyph unicode="&#x2022;" horiz-adv-x="788" d="M133 319v422h522v-422h-522z" />
<glyph unicode="&#x2026;" horiz-adv-x="2039" d="M121 193q0 90 64.5 155.5t156.5 65.5t156.5 -65.5t64.5 -155.5q0 -92 -64.5 -157t-156.5 -65t-156.5 65t-64.5 157zM803 193q0 90 64.5 155.5t156.5 65.5t156.5 -65.5t64.5 -155.5q0 -92 -64.5 -157t-156.5 -65t-156.5 65t-64.5 157zM1485 193q0 90 64.5 155.5 t156.5 65.5t156.5 -65.5t64.5 -155.5q0 -92 -64.5 -157t-156.5 -65t-156.5 65t-64.5 157z" />
<glyph unicode="&#x2039;" horiz-adv-x="800" d="M55 586l377 573l275 -178l-265 -395l303 -467l-280 -174z" />
<glyph unicode="&#x203a;" horiz-adv-x="796" d="M55 121l305 465l-268 403l266 174l383 -577l-409 -641z" />
<glyph unicode="&#x20ac;" horiz-adv-x="1855" d="M59 492l86 200h127v39v51h-213l86 201h166q80 231 280 373.5t460 142.5q121 0 219 -35q59 -20 139 -75v88h358q-8 -156 -8 -265q0 -84 6 -249h-395q-23 94 -78 147q-78 72 -182 72q-121 0 -176 -92q-29 -43 -43 -107h350l-86 -201h-283v-63v-27h246l-86 -200h-145 q8 -47 26 -86q45 -106 193 -107q125 0 192 94q53 78 66 234l432 -90q-20 -156 -57 -238t-117 -152q-205 -172 -541 -172q-287 0 -493.5 139.5t-280.5 377.5h-248z" />
<glyph unicode="&#x2122;" horiz-adv-x="1554" d="M59 1335v140h455v-140l-152 2v-600h-153v600zM489 737l121 738h152l131 -357q39 -102 41 -184q2 82 41 184l131 357h154l118 -738h-147l-62 391q-4 23 -6 54q-2 33 2 98q-4 -18 -13 -51l-13 -47l-11 -39l-6 -15l-141 -391h-94l-142 391l-4 15l-12 39q-14 45 -27 98 q6 -43 3 -98q-2 -29 -7 -54l-61 -391h-148z" />
<glyph unicode="&#xe000;" horiz-adv-x="1090" d="M0 1090h1090v-1090h-1090v1090z" />
<glyph unicode="&#xfb01;" horiz-adv-x="1685" d="M891 0v338l137 -4v422l-135 -2v338l333.5 -4.5t321.5 4.5v-758l115 4v-338q-344 4 -385 4q-43 0 -387 -4zM993 1339q0 82 83 138.5t201.5 56.5t201.5 -57.5t83 -139.5q0 -84 -85 -142t-203 -58q-117 0 -199 59t-82 143zM16 0v338l140 -4v420h-140v338l140 -2v26 q0 139 74.5 236.5t197.5 126.5q121 27 293 26q49 0 78 -2q82 -2 172 -12l-13 -307q-49 12 -79 14q-20 0 -43 2h-35q-31 0 -60.5 -10t-38.5 -25l-26 -45l-4 -8v-22l192 2v-342h-192v-416l192 4v-338q-365 4 -409 4q-50 0 -439 -4z" />
<glyph unicode="&#xfb02;" horiz-adv-x="1667" d="M897 0v338l114 -4v805l-112 -2v340q143 -4 323 -4q170 0 308 4v-1143l114 4v-338q-319 4 -364 4q-43 0 -383 -4zM16 0v338l140 -4v420h-140v338l140 -2v26q0 139 74.5 236.5t197.5 126.5q121 27 293 26q49 0 78 -2q82 -2 172 -12l-13 -307q-49 12 -79 14q-20 0 -43 2h-35 q-31 0 -60.5 -10t-38.5 -25l-26 -45l-4 -8v-22l192 2v-342h-192v-416l192 4v-338q-365 4 -409 4q-50 0 -439 -4z" />
<glyph unicode="&#xfb03;" horiz-adv-x="2553" d="M1760 0v338l137 -4v422l-135 -2v338l333.5 -4.5t321.5 4.5v-758l115 4v-338q-344 4 -385 4q-43 0 -387 -4zM1862 1339q0 82 83 138.5t201.5 56.5t201.5 -57.5t83 -139.5q0 -84 -85 -142t-203 -58q-117 0 -199 59t-82 143zM884 0v338l140 -4v420h-140v338l140 -2v26 q0 139 74.5 236.5t197.5 126.5q121 27 293 26q49 0 78 -2q82 -2 172 -12l-13 -307q-49 12 -79 14q-20 0 -43 2h-35q-31 0 -60.5 -10t-38.5 -25l-26 -45l-4 -8v-22l192 2v-342h-192v-416l192 4v-338q-365 4 -409 4q-50 0 -439 -4zM16 0v338l140 -4v420h-140v338l140 -2v26 q0 139 74.5 236.5t197.5 126.5q121 27 293 26q49 0 78 -2q82 -2 172 -12l-13 -307q-49 12 -79 14q-20 0 -43 2h-35q-31 0 -60.5 -10t-38.5 -25l-26 -45l-4 -8v-22l192 2v-342h-192v-416l192 4v-338q-365 4 -409 4q-50 0 -439 -4z" />
<glyph unicode="&#xfb04;" horiz-adv-x="2535" d="M1766 0v338l114 -4v805l-112 -2v340q143 -4 323 -4q170 0 308 4v-1143l114 4v-338q-319 4 -364 4q-43 0 -383 -4zM884 0v338l140 -4v420h-140v338l140 -2v26q0 139 74.5 236.5t197.5 126.5q121 27 293 26q49 0 78 -2q82 -2 172 -12l-13 -307q-49 12 -79 14q-20 0 -43 2 h-35q-31 0 -60.5 -10t-38.5 -25l-26 -45l-4 -8v-22l192 2v-342h-192v-416l192 4v-338q-365 4 -409 4q-50 0 -439 -4zM16 0v338l140 -4v420h-140v338l140 -2v26q0 139 74.5 236.5t197.5 126.5q121 27 293 26q49 0 78 -2q82 -2 172 -12l-13 -307q-49 12 -79 14q-20 0 -43 2 h-35q-31 0 -60.5 -10t-38.5 -25l-26 -45l-4 -8v-22l192 2v-342h-192v-416l192 4v-338q-365 4 -409 4q-50 0 -439 -4z" />
</font>
</defs>
</svg>
