<?xml version="1.0" standalone="no"?>
<!DOCTYPE svg PUBLIC "-//W3C//DTD SVG 1.1//EN" "http://www.w3.org/Graphics/SVG/1.1/DTD/svg11.dtd" >
<svg xmlns="http://www.w3.org/2000/svg">
<metadata>
This is a custom SVG webfont generated by Font Squirrel.
Copyright   : Copyright c 2010 by SoftMaker Software GmbH All rights reserved
Foundry     : SoftMaker Software GmbH
</metadata>
<defs>
<font id="StaffordSerialMedium" horiz-adv-x="1120" >
<font-face units-per-em="2048" ascent="1638" descent="-410" />
<missing-glyph horiz-adv-x="593" />
<glyph unicode=" "  horiz-adv-x="593" />
<glyph unicode="&#x09;" horiz-adv-x="593" />
<glyph unicode="&#xa0;" horiz-adv-x="593" />
<glyph unicode="!" horiz-adv-x="491" d="M127 0v322h266v-322h-266zM129 979v498h264v-498l-59 -561h-154z" />
<glyph unicode="&#x22;" horiz-adv-x="817" d="M82 813v143q66 18 90 60q27 41 27 127l-117 -2v336h270v-320q0 -178 -76 -264q-35 -41 -75.5 -57.5t-118.5 -22.5zM463 813v143q41 10 59.5 22.5t32.5 37.5q25 39 25 127l-117 -2v336h272v-320q0 -178 -76 -264q-35 -41 -76.5 -57.5t-119.5 -22.5z" />
<glyph unicode="#" horiz-adv-x="1189" d="M129 451l23 110h237l74 352h-236l23 111h237l91 428h110l-90 -428h205l92 428h111l-93 -428h238l-25 -111h-235l-76 -352h238l-25 -110h-235l-91 -428h-110l90 428h-207l-90 -428h-111l91 428h-236zM500 561h205l75 352h-207z" />
<glyph unicode="$" horiz-adv-x="1144" d="M66 1092q0 104 47 192q37 76 104 127q53 43 108.5 61.5t161.5 32.5v121h134v-131q72 -25 108.5 -46.5t97.5 -72.5v115h203q-8 -205 -8 -234q0 -23 8 -223h-213q-18 127 -41 158q-20 31 -63 61q-33 25 -92 39v-393q197 -88 243 -117q104 -61 166 -166.5t62 -222.5 q0 -170 -131.5 -295t-309.5 -125q-2 0 -13 1t-17 1l-3 -120l-133 2l2 135q-72 20 -109.5 42.5t-101.5 84.5v-135h-192q8 158 8 266q0 84 -6 250h203v-37q0 -111 39 -172q49 -76 159 -107v453q-145 53 -229 106q-192 130 -192 349zM348 1128q0 -76 53 -122q20 -18 86 -52v346 q-139 -29 -139 -172zM621 176q84 10 132 65.5t48 141.5q0 49 -39 98q-31 39 -49 47q-4 6 -51 27q-8 6 -41 23v-402z" />
<glyph unicode="%" horiz-adv-x="1591" d="M82 1104q0 168 94 283.5t233.5 115.5t233.5 -115.5t94 -283.5t-95 -283.5t-232.5 -115.5t-232.5 115.5t-95 283.5zM279 1104q0 -279 131 -279t131 279q0 281 -131 281t-131 -281zM319 16l824 1516l129 -66l-828 -1523zM850 365q0 172 95 287.5t234.5 115.5t234.5 -115.5 t95 -287.5q0 -170 -95 -285t-234.5 -115t-234.5 115t-95 285zM1047 365q0 -279 133 -279t133 279q0 283 -133 283t-133 -283z" />
<glyph unicode="&#x26;" horiz-adv-x="1495" d="M49 426q0 113 45 203q47 90 111.5 145t202.5 119q-74 94 -96.5 146.5t-22.5 123.5q0 145 102.5 239.5t257.5 94.5q143 0 250 -84q49 -41 71.5 -88t35.5 -139l-218 -2q-6 137 -135 137q-57 0 -94 -39t-37 -98q0 -45 56 -121l411 -545q61 104 84 159.5t53 172.5 q139 -4 156 -4q18 0 162 4v-197l-180 4q-41 -109 -65.5 -157.5t-84.5 -143.5l125 -163l205 4v-197q-160 4 -180 4q-18 0 -174 -4l-129 170q-72 -68 -113 -98q-135 -102 -326 -103q-201 0 -337 131t-136 326zM301 473q0 -113 82 -196.5t192 -83.5q106 0 191 71q31 23 72 66 l-322 415q-90 -49 -132 -85.5t-65 -90.5q-18 -37 -18 -96z" />
<glyph unicode="'" horiz-adv-x="434" d="M82 813v143q66 18 90 60q27 41 27 127l-117 -2v336h270v-320q0 -178 -76 -264q-35 -41 -75.5 -57.5t-118.5 -22.5z" />
<glyph unicode="(" horiz-adv-x="657" d="M74 756q0 260 86 483q61 156 293 508l204 -64q-193 -358 -235 -481q-68 -197 -68 -446q0 -252 68 -447q39 -115 235 -481l-204 -64q-233 356 -293 508q-86 226 -86 484z" />
<glyph unicode=")" horiz-adv-x="655" d="M0 -172q195 362 236 483q63 188 63 445q0 254 -63 444q-43 127 -236 486l207 61q233 -356 291 -508q84 -217 84 -483q0 -270 -84 -484q-59 -156 -291 -510z" />
<glyph unicode="*" horiz-adv-x="991" d="M37 1075q47 109 67 207l328 -158l-43 367q66 -8 111 -8q47 0 106 8l-49 -367l340 150q16 -102 59 -207l-362 -55l242 -283q-98 -47 -185 -119l-155 328l-172 -322q-84 74 -177 127l252 265z" />
<glyph unicode="+" d="M76 616v191h389v391h190v-391h389v-191h-389v-395h-188v395h-391z" />
<glyph unicode="," horiz-adv-x="432" d="M82 0v322l270 2v-344q0 -152 -78 -242q-35 -39 -74.5 -55.5t-117.5 -20.5v145q63 14 90 58q25 37 25 123v14z" />
<glyph unicode="-" horiz-adv-x="665" d="M23 459v243l622 3v-246h-622z" />
<glyph unicode="." horiz-adv-x="432" d="M82 0v324h270v-324h-270z" />
<glyph unicode="/" horiz-adv-x="870" d="M37 0l567 1475h232l-574 -1475h-225z" />
<glyph unicode="0" d="M66 739q0 367 129 566.5t366 199.5q236 0 365 -200.5t129 -565t-129 -564.5t-364.5 -200t-365.5 199.5t-130 564.5zM334 739q0 -559 227 -559t227 561.5t-227 561t-227 -563.5z" />
<glyph unicode="1" d="M225 1278v203q102 -4 232 -4q80 0 241 6v-1286l199 6v-203q-225 6 -334 6q-113 0 -330 -6v203l205 -6v1087z" />
<glyph unicode="2" d="M94 0q27 223 78 350q35 82 94 164q76 106 223 231q131 113 168 154q92 98 93 211q0 88 -48.5 140.5t-128.5 52.5q-96 0 -148 -73t-52 -208q0 -43 2 -68l-244 9q2 188 53 297q55 119 161 184t241 65q184 0 307 -115.5t123 -289.5q0 -137 -80 -250q-74 -104 -150 -162 l-88 -67q-84 -66 -159 -146q-43 -45 -74 -92q-49 -80 -76 -186h432v262l205 -2q-10 -182 -10 -293q0 -96 2 -168q-297 6 -447 6q-158 0 -477 -6z" />
<glyph unicode="3" d="M63 457l230 28q2 -102 31 -168q61 -137 213 -137q104 0 169.5 69.5t65.5 182.5q0 106 -66.5 173t-177.5 67q-31 0 -92 -10v219q27 -2 72 -2q100 0 156.5 58t56.5 163q0 90 -48 145t-128 55q-184 0 -197 -245l-233 14q14 209 127.5 323.5t308.5 114.5q188 0 308 -109.5 t120 -281.5q0 -96 -41 -178q-29 -59 -70 -92t-125 -66q74 -18 115 -39q82 -37 133 -125t51 -190q0 -197 -139 -327t-350 -130q-203 0 -330 109q-59 53 -98 129q-31 53 -42.5 103.5t-19.5 146.5z" />
<glyph unicode="4" d="M43 590l590 887h250v-885l166 2v-186h-168v-211l147 4v-201q-188 6 -278 6q-94 0 -287 -6v201l186 -4v213l-520 -2zM258 582q49 10 102 10h289v450q0 59 10 150q-33 -74 -69 -131l-264 -393q-25 -37 -27 -37q-8 -12 -41 -49z" />
<glyph unicode="5" d="M51 414l232 26q18 -119 61 -176q68 -88 172 -88q109 0 175.5 83t66.5 220q0 127 -60.5 203t-162.5 76q-45 0 -93 -21q-41 -18 -68.5 -44.5t-68.5 -86.5l-201 47l58 828q297 -10 403 -11q102 0 393 11q-6 -121 -6 -181q0 -63 6 -188l-190 -2v168l-397 2l-33 -401l14 -11 q68 55 121 76t131 21q186 0 304 -134.5t118 -345.5q0 -225 -141.5 -370.5t-362.5 -145.5q-203 0 -336 133q-59 57 -87 122t-48 190z" />
<glyph unicode="6" d="M92 680q0 389 141.5 606t391.5 217q190 0 307 -139q45 -55 67.5 -114.5t42.5 -172.5l-235 -18q-16 125 -62.5 182t-128.5 57q-113 0 -182 -122q-33 -57 -47 -121q-23 -88 -31 -238q33 33 47 45q100 90 242 90q174 0 284.5 -130t110.5 -335q0 -229 -127 -373.5 t-327 -144.5q-238 0 -366 184.5t-128 526.5zM354 557q0 -174 60.5 -275.5t167.5 -101.5q96 0 154.5 78t58.5 207q0 131 -57.5 204.5t-157.5 73.5q-92 0 -160 -51q-31 -23 -64 -53q-2 -35 -2 -82z" />
<glyph unicode="7" d="M109 1049q4 96 4 217q0 119 -2 213q264 -8 450 -9q182 0 451 9v-187q-127 -172 -181.5 -276.5t-109.5 -282.5q-49 -156 -64.5 -256t-21.5 -280l192 4v-201q-215 6 -325 6q-109 0 -330 -6v201l203 -4q14 201 37.5 312.5t83.5 272.5q59 156 110 249t162 241h-461v-225z" />
<glyph unicode="8" d="M63 408q0 96 46 190q35 68 77.5 105.5t135.5 76.5q-8 2 -80 39q-61 41 -99.5 118t-38.5 165q0 174 131.5 289.5t326 115.5t324.5 -115.5t130 -289.5q0 -92 -41 -174q-29 -57 -65 -87t-111 -61q66 -27 98 -49q72 -45 116 -133t44 -190q0 -197 -137.5 -318t-358.5 -121 q-223 0 -360.5 121t-137.5 318zM311 418q0 -104 73 -174t177 -70q106 0 177 72.5t71 183.5q0 113 -69.5 183.5t-178.5 70.5q-111 0 -180.5 -70.5t-69.5 -183.5v-12zM346 1075q0 -94 59.5 -152.5t155.5 -58.5q94 0 153.5 58.5t59.5 152.5q0 100 -59.5 164t-153.5 64 t-154.5 -64t-60.5 -164z" />
<glyph unicode="9" d="M78 401l241 17q12 -236 189 -236q231 0 256 473q-63 -66 -127 -94q-88 -37 -158 -37q-170 0 -284.5 133.5t-114.5 329.5q0 229 130 374.5t333 145.5q137 0 244.5 -70.5t166.5 -201.5q76 -160 76 -451q0 -377 -141 -594t-385 -217q-186 0 -309 140q-51 59 -75 117t-42 171 zM330 1012q0 -127 58 -203t154.5 -76t159.5 51q31 23 64 54q4 78 4 88q0 170 -62.5 271t-166.5 101q-96 0 -153.5 -78.5t-57.5 -207.5z" />
<glyph unicode=":" horiz-adv-x="493" d="M127 0v324h270v-324h-270zM129 666v327l268 -2v-325h-268z" />
<glyph unicode=";" horiz-adv-x="493" d="M127 0v322l270 2v-344q0 -152 -78 -242q-35 -39 -75.5 -55.5t-116.5 -20.5v145q61 14 90 58q25 37 25 123v14zM127 666v323h272v-325z" />
<glyph unicode="&#x3c;" horiz-adv-x="688" d="M37 551l319 455h293l-315 -453l317 -455h-291z" />
<glyph unicode="=" d="M57 473v172l1006 -2v-172zM57 754v170l1008 -2v-168h-1008z" />
<glyph unicode="&#x3e;" horiz-adv-x="688" d="M37 98l321 455l-315 453h293l317 -453l-323 -455h-293z" />
<glyph unicode="?" horiz-adv-x="1005" d="M29 1016v45q0 195 133 319.5t340 124.5q211 0 346 -129t135 -329q0 -178 -113 -297q-59 -63 -123.5 -88t-183.5 -31l-18 -221h-160q-8 231 -25 434q70 -25 123 -25q104 0 171 68.5t67 177.5q0 104 -62.5 172t-163 68t-161 -64.5t-60.5 -171.5q0 -35 2 -55zM330 0v322h272 v-322h-272z" />
<glyph unicode="@" horiz-adv-x="1601" d="M119 786q18 322 248 527q180 162 403 186q227 27 406.5 -67.5t263.5 -280.5t43 -414q-47 -258 -207 -379q-111 -76 -210 -56t-126 108q-6 20 -6 59q-12 -37 -41 -70q-111 -133 -268 -65q-174 78 -160 364q4 49 8 72q27 190 135 317q106 119 227 118t177 -105 q6 -10 10 -21l18 111h101l-76 -436l-27 -174q-12 -80 2 -129q10 -35 44 -50.5t69 -3.5q43 16 113 92q84 98 110 269q47 305 -133 490.5t-469 144.5q-244 -37 -396.5 -246t-125.5 -492q16 -166 95 -298t194.5 -200.5t258 -86t283.5 46.5q150 61 267 188q25 25 51 62l37 -88 q-33 -41 -52 -60q-236 -248 -548 -248q-322 0 -530.5 233.5t-188.5 581.5zM586 596q6 -80 26 -125q29 -59 96.5 -70.5t116.5 35.5q47 47 93 176q18 51 38 150l2 20l15 86q10 68 4 119q-10 74 -67.5 107.5t-121.5 7.5q-53 -23 -89.5 -73t-73.5 -155q-14 -43 -25 -98 q-18 -100 -14 -180z" />
<glyph unicode="A" horiz-adv-x="1454" d="M-45 0l2 201l160 -4l364 1079l-188 -4v203q297 -6 448 -7q147 0 437 7l2 -203l-189 4l365 -1079l143 4v-201q-203 6 -305 6q-104 0 -305 -6v201l176 -4l-88 292h-479l-90 -292l178 4l-2 -201q-207 6 -310 6q-104 0 -319 -6zM553 688h367l-146 467q-8 25 -37 152l-13 -58 l-12 -51q-5 -20 -14 -43z" />
<glyph unicode="B" horiz-adv-x="1265" d="M23 0v201l172 -4v1079l-172 -4v203l301 -7l309 7h31q215 0 331 -62q82 -43 130.5 -129t48.5 -186q0 -90 -44 -172q-31 -59 -69.5 -90t-120.5 -60q76 -16 117 -37q78 -39 126 -125t48 -188q0 -111 -51.5 -205t-139.5 -147q-119 -74 -372 -74h-39l-291 6zM473 201 q61 -4 121 -4q182 0 256 57q82 63 82 182q0 229 -281 230q-53 0 -98 -2l-80 -2v-461zM473 858q27 0 55.5 -1t38.5 -1q117 0 169 13.5t89 50.5q57 61 58 149q0 76 -41 129t-111 68q-55 10 -108 10q-12 0 -31 -1t-51.5 -2t-67.5 -1v-414z" />
<glyph unicode="C" horiz-adv-x="1521" d="M66 737q0 330 207.5 550t519.5 220q121 0 225 -37q72 -27 114 -57.5t103 -97.5v178h197q-6 -170 -7 -256q0 -115 11 -264l-207 -2q-35 123 -99 192q-117 129 -311 129q-203 0 -323.5 -151.5t-120.5 -407.5q0 -248 121.5 -392t328.5 -144q209 0 334 161q59 74 113 232 l227 -78q-43 -125 -78 -189.5t-94 -127.5q-197 -215 -532 -215q-322 0 -525.5 211.5t-203.5 545.5z" />
<glyph unicode="D" horiz-adv-x="1501" d="M23 0v201l172 -4v1079l-172 -4v203l301 -7l311 7h39q172 0 288 -33q128 -37 236 -127q113 -92 175.5 -243.5t62.5 -336.5q0 -356 -209 -561q-180 -174 -527 -174h-8l-364 4zM475 201q156 -4 182 -4q244 0 359 133q129 154 129 395q0 262 -131 407.5t-369 145.5 q-66 0 -170 -6v-1071z" />
<glyph unicode="E" horiz-adv-x="1302" d="M23 0v201l172 -4v1079l-172 -4v203q403 -6 604 -7q197 0 585 7q-2 -104 -2 -234q0 -127 2 -229l-221 -2v262h-518v-426l438 2v-201l-438 2v-448h543v262l219 2q-4 -106 -4 -242q0 -123 2 -223q-399 6 -600 6q-202 0 -610 -6z" />
<glyph unicode="F" horiz-adv-x="1181" d="M23 0v201l174 -4v1079l-172 -4v203q389 -6 583.5 -6.5t581.5 6.5q-6 -156 -6 -234q0 -74 6 -223l-217 2v252h-498v-424l371 2v-197l-371 2v-458l187 4v-201q-211 6 -322 6q-106 0 -317 -6z" />
<glyph unicode="G" horiz-adv-x="1603" d="M66 729q0 336 210.5 558t532.5 222q125 0 229 -34q84 -27 130 -58t106 -100v174h205q-10 -188 -11 -301q0 -127 5 -225l-211 2q-23 84 -48.5 128t-74.5 87q-127 111 -303 110q-207 0 -335 -152.5t-128 -398.5q0 -248 128 -396t343 -148q182 0 303 110q45 43 67.5 91 t45.5 143h-367v198h672q-4 -123 -15.5 -187.5t-40.5 -143.5q-72 -201 -254 -317t-430 -116q-336 0 -547.5 210t-211.5 544z" />
<glyph unicode="H" horiz-adv-x="1474" d="M23 0v201l170 -4v1079l-170 -4v203q209 -6 311 -7q98 0 301 7v-203l-164 4v-395h533v395l-164 -4v203q203 -6 301 -7q102 0 311 7v-203l-170 4v-1079l170 4v-201q-135 4 -305 4q-168 0 -303 -4v201l160 -4v485h-531v-485l158 4v-201q-133 4 -297 4q-172 0 -311 -4z" />
<glyph unicode="I" horiz-adv-x="671" d="M23 0v201l174 -4v1079l-174 -4v203q209 -6 311 -7q106 0 315 7v-203l-170 4v-1079l170 4v-201q-139 4 -313 4t-313 -4z" />
<glyph unicode="J" horiz-adv-x="655" d="M-133 -162q66 -23 110 -22q55 0 101 22q47 25 65.5 79t18.5 175v1184l-172 -4v203q209 -6 313 -7q109 0 324 7v-203l-185 4v-1176q0 -246 -67 -350q-45 -72 -136.5 -114t-205.5 -42q-74 0 -164 25z" />
<glyph unicode="K" horiz-adv-x="1398" d="M23 0v201l172 -4v1079l-172 -4v203q209 -6 311 -7q104 0 313 7v-203l-174 4v-1079l172 4v-201q-207 6 -313 6q-102 0 -309 -6zM487 770l478 506l-148 -4v203q197 -6 295 -7q100 0 291 7v-203l-178 4l-445 -467l500 -612l147 4v-201q-209 6 -313 6q-106 0 -319 -6v203 l159 -6z" />
<glyph unicode="L" horiz-adv-x="1202" d="M23 0v201l172 -4v1079l-172 -4v203q211 -6 315 -7q106 0 315 7v-203l-178 4v-1075h477q2 78 2 182q0 72 -6 283h217q-10 -225 -10 -365q0 -35 4 -301q-381 6 -575 6q-186 0 -561 -6z" />
<glyph unicode="M" horiz-adv-x="2004" d="M23 0v201l172 -4v1079l-172 -4v203q209 -6 315 -7q96 0 287 7l333 -945l27 -69l21 -88l20 88l29 80l313 934q201 -6 297 -7q104 0 317 7v-203l-172 4v-1079l175 4v-201q-135 4 -308 4q-174 0 -313 -4v201l180 -4v876q0 43 12 182l-36 -98l-29 -76l-410 -1081h-155 l-400 1071l-30 84l-35 105l4 -105v-98v-860l174 4v-201q-129 4 -295 4q-180 0 -321 -4z" />
<glyph unicode="N" horiz-adv-x="1667" d="M23 0v201l170 -4v1079l-168 -4v203q193 -6 292 -7q86 0 258 7l562 -979l34 -58l39 -90q-8 109 -8 172v756l-174 -4v203q193 -6 295 -7q106 0 322 7v-203l-168 4v-1274h-326l-610 1061l-41 72l-39 86q2 -25 5 -58t3 -37v-86v-843l174 4v-201q-197 6 -297 6q-108 0 -323 -6 z" />
<glyph unicode="O" horiz-adv-x="1634" d="M66 739q0 344 207.5 557t543.5 213t543 -213t207 -557t-207 -556t-543 -212t-543.5 212t-207.5 556zM375 739q0 -256 120.5 -410.5t321.5 -154.5t322 154.5t121 410.5t-121 411t-322 155t-321.5 -155t-120.5 -411z" />
<glyph unicode="P" horiz-adv-x="1232" d="M23 0v201l174 -4v1079l-168 -4v203l309 -7l287 7h28q248 0 381 -86q90 -57 141.5 -156.5t51.5 -218.5q0 -117 -50.5 -217.5t-136.5 -159.5q-70 -47 -155.5 -66.5t-229.5 -19.5h-180v-354l182 4v-201q-141 4 -317 4t-317 -4zM475 750q66 -2 143 -2q311 0 312 262 q0 266 -305 266q-27 0 -150 -4v-522z" />
<glyph unicode="Q" horiz-adv-x="1634" d="M66 739q20 246 75.5 371t188.5 233q203 166 487 166q336 0 543 -213t207 -557q0 -297 -152.5 -495.5t-431.5 -259.5q51 -31 53 -31q4 -2 66 -19l54 -17q28 -9 39 -12t13 -3q25 -4 31 -4q53 0 215 51v-217q-164 -35 -235 -35q-115 0 -293 88q-154 74 -219 74 q-35 0 -74 -13q-63 -18 -135 -73l-109 149q70 53 152 90q-133 51 -211 123q-141 127 -192.5 244.5t-71.5 359.5zM375 739q0 -256 120.5 -410.5t321.5 -154.5t322 154.5t121 410.5t-121 411t-322 155t-321.5 -155t-120.5 -411z" />
<glyph unicode="R" horiz-adv-x="1302" d="M23 0v201l172 -4v1079l-170 -4v203q203 -6 303 -7q23 0 129 3.5t188 3.5h62q131 0 197.5 -12.5t133.5 -51.5q84 -49 132.5 -136t48.5 -194q0 -109 -48 -196q-37 -72 -84 -110t-139 -70l248 -508l158 4v-201q-78 4 -178.5 4t-182.5 -4l-313 666h-207v-469l178 4v-201 q-139 4 -313 4q-176 0 -315 -4zM473 872q100 -6 162 -6q147 0 216 50.5t69 158.5q0 106 -71 153.5t-228 47.5q-12 0 -148 -4v-400z" />
<glyph unicode="S" horiz-adv-x="1144" d="M63 1071q0 193 124 313.5t321 120.5q78 0 147 -24q90 -33 172 -105v115h203q-8 -205 -8 -234q0 -23 8 -223h-186q-4 98 -43 158q-35 49 -104.5 82t-143.5 33q-90 0 -148.5 -51.5t-58.5 -129.5q0 -82 60 -122q23 -18 73 -46q57 -29 84 -38q2 -2 111 -46q127 -51 200 -94 q219 -123 220 -368q0 -188 -132.5 -313.5t-330.5 -125.5q-76 0 -156 23q-63 18 -102 42.5t-97 80.5v-135h-192q8 158 8 266q0 84 -6 250h203v-37q0 -115 39 -172q37 -57 105.5 -90t146.5 -33q98 0 159.5 55.5t61.5 143.5q0 84 -64 143q-47 33 -65 43q-68 37 -193 84 q-141 53 -225 106q-191 123 -191 328z" />
<glyph unicode="T" horiz-adv-x="1271" d="M23 911q6 227 6 306q0 143 -4 258q406 -6 608 -7q205 0 616 7q-4 -131 -4 -293q0 -150 4 -273l-209 2v361h-264v-1075l215 4v-201q-229 6 -346 6q-125 0 -369 -6v201l220 -4v1075h-269v-363z" />
<glyph unicode="U" horiz-adv-x="1419" d="M16 1276v201q203 -6 306 -7q100 0 305 7v-201l-156 4v-788q0 -106 10.5 -149.5t44.5 -80.5q68 -72 185 -72q115 0 182 72q35 35 45 78t10 152v788l-153 -4v201q203 -6 303 -7q102 0 307 7v-201l-176 4v-795q0 -145 -34 -237t-110 -156q-139 -121 -374 -121 q-223 0 -377 121q-143 117 -144 393v795z" />
<glyph unicode="V" horiz-adv-x="1337" d="M-66 1272v203q213 -6 315.5 -6.5t307.5 6.5v-203l-168 4l248 -803l12 -38.5t10.5 -29t4.5 -14.5l20 -96q4 39 16 96q4 20 21 78l250 807l-170 -4v203q199 -6 299 -6.5t303 6.5v-203l-162 4l-410 -1276h-288l-451 1276z" />
<glyph unicode="W" horiz-adv-x="2134" d="M-51 1272v203q207 -6 313 -7q98 0 299 7v-201l-160 2l211 -801q27 -102 37 -153q12 78 15 84q0 10 20 79l217 791l-176 -4v203q233 -6 352 -7q113 0 340 7v-203l-184 4l209 -787l22 -79l17 -84l16 84l23 73l219 793l-164 -4v203q199 -6 299 -7q104 0 313 7v-203l-162 4 l-387 -1276h-315l-215 850l-23 78l-18 110l-18 -102l-19 -72l-229 -864h-303l-385 1276z" />
<glyph unicode="X" horiz-adv-x="1568" d="M0 0v201l186 -4l387 557l-374 522l-193 -4v203q221 -6 330 -7q115 0 346 7v-203l-143 4l192 -289q35 -53 60 -186q23 129 57 184l186 291l-145 -4v203q225 -6 340 -7q102 0 309 7v-203l-192 4l-357 -522l367 -557l213 4v-201q-217 6 -332 6q-111 0 -334 -6v201l144 -4 l-211 319q-39 57 -62 160q-20 -102 -53 -150l-213 -329l143 4v-201q-209 6 -317 6q-113 0 -334 -6z" />
<glyph unicode="Y" horiz-adv-x="1359" d="M-66 1272v203q217 -6 328 -6.5t322 6.5v-203l-148 4l203 -371q4 -8 8 -15t7 -11.5l5.5 -8.5t2.5 -6q16 -47 22 -76l23 74l36 60l201 354l-149 -4v203q205 -6 307 -7q109 0 323 7v-203l-168 4l-436 -672v-407l174 4v-201q-213 6 -321 6q-104 0 -309 -6v201l178 -4v411 l-428 668z" />
<glyph unicode="Z" horiz-adv-x="1153" d="M23 0v190l659 984q37 55 100 108q-84 -10 -147 -10h-363v-285h-200q4 209 4 235.5t-4 252.5q338 -6 506 -7q172 0 509 7v-181l-665 -989q-41 -61 -111 -117q88 12 156 13l430 2v295h201q-2 -94 -2 -219q0 -70 6 -279q-344 6 -520 6q-184 0 -559 -6z" />
<glyph unicode="[" horiz-adv-x="520" d="M104 -221v1917q176 -4 201 -4q74 0 215 6v-203l-158 4v-1522l158 5v-203q-141 6 -215 6q-68 0 -201 -6z" />
<glyph unicode="\" horiz-adv-x="618" d="M88 1475h184l258 -1475h-184z" />
<glyph unicode="]" horiz-adv-x="520" d="M0 -18l158 -5v1522l-158 -4v203q141 -6 215 -6q23 0 203 4v-1917q-135 6 -203 6q-74 0 -215 -6v203z" />
<glyph unicode="^" horiz-adv-x="647" d="M-6 1184l227 301h201l229 -301h-207l-120 174l-125 -174h-205z" />
<glyph unicode="_" horiz-adv-x="913" d="M88 0h737v-66h-737v66z" />
<glyph unicode="`" horiz-adv-x="475" d="M-45 1491h260l172 -301h-184z" />
<glyph unicode="a" horiz-adv-x="1173" d="M59 330q0 154 111 252t285 98q131 0 284 -76v117q0 98 -56 151.5t-161 53.5q-170 0 -233 -140l-228 43q37 76 69 114t85 77q137 92 328 92q201 0 327 -92q63 -47 89 -111.5t26 -179.5v-541l166 5v-193q-180 4 -204.5 4t-209.5 -4v113q-37 -33 -51 -43q-121 -92 -270 -93 q-154 0 -255.5 100.5t-101.5 252.5zM309 332q0 -72 48.5 -119t123.5 -47q51 0 119 29q61 29 139 98v139q-90 47 -147 62q-61 14 -94 14q-82 0 -135.5 -49t-53.5 -127z" />
<glyph unicode="b" horiz-adv-x="1294" d="M23 1282v195q137 -6 213 -7q68 0 200 7v-541q35 47 43 53q47 57 126 90t163 33q201 0 331 -158.5t130 -406.5q0 -244 -133 -404.5t-334 -160.5q-88 0 -172 38q-53 23 -85 53.5t-75 98.5v-172q-184 4 -203 4q-113 0 -202 -4v193l159 -5v1098zM428 549q0 -164 73.5 -259 t200.5 -95q121 0 196 96t75 252q0 158 -74 255t-192 97q-127 0 -203 -95t-76 -251z" />
<glyph unicode="c" horiz-adv-x="1175" d="M66 545q0 244 150.5 407.5t373.5 163.5q86 0 176 -35q68 -29 152 -108v139h186q-6 -158 -6 -235q0 -74 6 -222h-197q-20 102 -76 156q-82 82 -210 82q-133 0 -216 -97.5t-83 -250.5q0 -158 85 -253t224 -95q123 0 211 77q51 45 94 140l203 -99q-45 -86 -78 -129t-88 -86 q-147 -121 -352 -120q-244 0 -399.5 158.5t-155.5 406.5z" />
<glyph unicode="d" horiz-adv-x="1304" d="M66 547q0 246 136 406.5t343 160.5q80 0 168 -37q84 -37 157 -137v346l-170 -4v195q139 -6 211 -7q72 0 209 7v-1289l162 5v-193q-180 4 -205 4q-23 0 -207 -4v162l-47 -60q-104 -121 -282 -120q-207 0 -341 158.5t-134 406.5zM326 540.5q0 -157.5 74.5 -252.5t195.5 -95 q127 0 204 97t77 257q0 152 -77 248t-202 96q-123 0 -197.5 -96.5t-74.5 -254z" />
<glyph unicode="e" horiz-adv-x="1185" d="M66 537q0 250 153.5 414.5t386.5 164.5q121 0 228.5 -51t179.5 -141q66 -84 90 -180.5t24 -278.5l-823 2q12 -82 28.5 -124t55.5 -81q88 -94 229 -94q119 0 209 68q53 37 103 116l207 -84q-80 -113 -156 -170q-160 -123 -371 -123q-248 0 -396 154t-148 408zM307 653h572 q-18 115 -66 170q-82 98 -215 99q-123 0 -211 -95q-57 -61 -80 -174z" />
<glyph unicode="f" horiz-adv-x="675" d="M23 0v193l178 -5v715l-178 -4v195l180 -4v57q0 158 73 246q96 113 265 112q119 0 202 -63q57 -43 109 -142l-188 -100q-45 115 -121 115q-53 0 -76 -47q-12 -33 -12 -121v-60l209 5v-195l-211 4v-713l211 5v-193q-143 4 -326 4q-174 0 -315 -4z" />
<glyph unicode="g" horiz-adv-x="1300" d="M66 549q0 242 135 402.5t338 160.5q88 0 168 -37q51 -25 84.5 -51.5t80.5 -85.5v154q184 -4 209 -5q23 0 203 5v-193l-162 4v-846q0 -201 -102 -311q-137 -150 -422 -149q-147 0 -276 45q-68 25 -183 84l127 168q76 -47 146 -70q76 -25 163 -25q141 0 222.5 69t81.5 189 v115q-35 -68 -65 -101.5t-75 -58.5q-78 -43 -190 -43q-215 0 -349 160t-134 420zM332 545q0 -170 71.5 -272.5t192.5 -102.5q129 0 202.5 100.5t73.5 278.5q0 162 -74.5 257t-201.5 95q-125 0 -194.5 -94t-69.5 -262z" />
<glyph unicode="h" horiz-adv-x="1230" d="M23 0v193l163 -5v1098l-161 -4v195q139 -6 208 -7q70 0 205 7v-502q23 20 54 51q113 90 258 90q156 0 239 -100q39 -45 51.5 -95.5t12.5 -177.5v-555l155 5v-193q-125 4 -282 4q-156 0 -279 -4v193l152 -3v502v88q0 33 -17 62q-33 53 -114 53q-41 0 -88 -21 q-70 -31 -146 -112v-574l158 5v-193q-186 6 -277 6q-97 0 -292 -6z" />
<glyph unicode="i" horiz-adv-x="638" d="M37 0v193l172 -5v715l-170 -4v193q96 -2 215 -2q117 0 207 2v-904l157 5v-193q-190 6 -284 6q-100 0 -297 -6zM184 1347.5q0 65.5 45 111.5t109 46q66 0 111 -46t45 -113q0 -63 -45.5 -107.5t-110.5 -44.5q-63 0 -108.5 44t-45.5 109.5z" />
<glyph unicode="j" horiz-adv-x="528" d="M-111 -201q68 -12 93 -12q61 0 108 27q37 23 49 49q25 41 25 188v852l-174 -4v193q188 -4 217 -5q25 0 209 5v-1043q0 -203 -54 -301q-84 -156 -356 -156q-57 0 -117 7v200zM139 1349.5q0 63.5 46 109.5t112 46q63 0 106 -46t43 -111q0 -63 -44 -107.5t-107.5 -44.5 t-109.5 45t-46 108.5z" />
<glyph unicode="k" horiz-adv-x="1232" d="M23 1282v195q137 -6 213 -7q66 0 200 7v-897l393 338l-182 -7v181q279 -4 311.5 -4.5t298.5 4.5v-181l-122 7l-410 -334l393 -396l154 5v-193q-143 4 -160 4q-14 0 -158 -4l-520 557v-367l158 3v-193q-125 4 -283 4q-156 0 -284 -4v193l157 -5v1098z" />
<glyph unicode="l" horiz-adv-x="622" d="M23 0v193l167 -5v1098l-165 -4v195q139 -6 213 -7q68 0 202 7v-1289l160 5v-193q-129 4 -285 4q-161 0 -292 -4z" />
<glyph unicode="m" horiz-adv-x="1861" d="M37 899v193q94 -2 211 -2q115 0 209 2v-119q88 82 164 110q86 31 153 31q211 0 268 -160q47 43 70 62q129 100 270 100q145 0 230 -88q41 -41 56 -99.5t15 -170.5v-570l156 5v-193q-121 4 -276 4q-160 0 -289 -4v193l156 -3v496q0 88 -3 102q-2 29 -24 60q-29 41 -98 41 q-121 0 -234 -133v-568l160 5v-193q-190 6 -284.5 6t-284.5 -6v193h157v485q0 78 -4 104.5t-20 53.5q-37 53 -113 53q-115 0 -227 -133v-568l161 5v-193q-195 6 -286 6q-96 0 -291 -6v193l162 -5v715z" />
<glyph unicode="n" horiz-adv-x="1247" d="M37 0v193l162 -5v713l-160 -2v193q188 -4 209 -5q25 0 201 5v-121l47 37l26 22q111 82 248 82q147 0 229 -86q41 -45 55.5 -103.5t14.5 -179.5v-555l156 5v-193q-184 6 -277 6q-96 0 -286 -6v193l155 -3v500q0 76 -4 100.5t-22 47.5q-35 47 -109 47q-119 0 -233 -129 v-568l155 5v-193q-182 6 -276 6q-98 0 -291 -6z" />
<glyph unicode="o" horiz-adv-x="1191" d="M66 545q0 252 148 413.5t382 161.5q231 0 379.5 -161.5t148.5 -411.5t-148.5 -412t-379.5 -162q-233 0 -381.5 161t-148.5 411zM330 545q0 -164 72.5 -262.5t193.5 -98.5t191.5 97.5t70.5 263.5q0 170 -69.5 267t-192.5 97q-121 0 -193.5 -98t-72.5 -266z" />
<glyph unicode="p" horiz-adv-x="1308" d="M23 -190l170 -5v1098l-160 -4v193q188 -4 211 -5q20 0 196 5v-158q35 49 49 59q115 125 293 125q199 0 329 -160.5t130 -408.5q0 -244 -134 -408t-335 -164q-86 0 -160 33q-57 25 -91 54.5t-81 93.5v-353l164 5v-193q-258 4 -285 4q-35 0 -296 -4v193zM438 524 q0 -143 79 -234t198 -91t192.5 96t73.5 249.5t-72.5 250t-191.5 96.5q-123 0 -201 -98.5t-78 -251.5v-17z" />
<glyph unicode="q" horiz-adv-x="1298" d="M66 549q0 244 135 406.5t336 162.5q86 0 157 -33q63 -29 96 -57.5t76 -93.5v158q176 -4 201 -4.5t201 4.5v-193l-158 4v-1098l166 5v-193q-258 4 -289 4t-289 -4v193l160 -5v351q-37 -55 -66.5 -81t-76.5 -50q-80 -43 -178 -43q-205 0 -338 160.5t-133 406.5zM326 522 q0 -143 76.5 -232t195.5 -89q121 0 194.5 94t73.5 248q0 160 -74.5 256t-197.5 96q-121 0 -194.5 -96.5t-73.5 -253.5v-23z" />
<glyph unicode="r" horiz-adv-x="798" d="M23 899v193q92 -2 210 -2q115 0 205 2v-269q37 86 68 129t86 82q55 41 106.5 56.5t145.5 19.5v-256q-12 2 -33 2q-164 0 -261 -110.5t-97 -301.5v-256l215 5v-193q-217 6 -328 6q-106 0 -315 -6v193l184 -5v715z" />
<glyph unicode="s" horiz-adv-x="1032" d="M57 786q0 143 103.5 236.5t261.5 93.5q55 0 121 -16q80 -20 162 -80l10 88h192q-6 -160 -6 -215q0 -90 2 -160l-194 10q-4 80 -54 125q-78 68 -196 68q-80 0 -128 -34t-48 -91q0 -53 36.5 -78.5t143.5 -50.5l88 -20l92 -23q154 -37 207 -68q57 -35 91 -99t34 -142 q0 -152 -116 -252.5t-292 -100.5q-59 0 -129 17q-94 25 -170 88v-98h-198q6 141 6 209q0 23 -4 194h194q2 -86 41 -135q76 -92 230 -92q90 0 145 38t55 99q0 53 -48 86t-163 55l-90 19q-66 16 -86 22l-47 13l-45 12q-94 35 -147.5 109.5t-53.5 172.5z" />
<glyph unicode="t" horiz-adv-x="647" d="M23 897v197l145 -4v186l250 78v-264l213 4v-197l-215 6v-551q0 -84 18 -112q20 -39 86 -39q39 0 111 28v-202q-100 -45 -189 -45q-139 0 -215 73q-39 35 -50 78t-11 146v624z" />
<glyph unicode="u" horiz-adv-x="1226" d="M23 899v193q176 -4 198 -5q20 0 205 5v-713q0 -72 6 -96.5t27 -44.5q37 -37 94 -37q55 0 119 28q57 27 121 107v565l-162 -2v193l210.5 -4.5t202.5 4.5v-904l160 5v-193q-180 4 -203 4q-25 0 -208 -4v131q-68 -78 -156 -115q-90 -39 -166 -39q-123 0 -213 74 q-47 41 -66.5 102.5t-19.5 168.5v581z" />
<glyph unicode="v" horiz-adv-x="1136" d="M-66 899v193q254 -4 287 -5q31 0 277 5v-193l-146 4l170 -536l23 -64l20 -92l25 94l20 66l181 532l-142 -4v193l268.5 -4.5t284.5 4.5v-193l-141 4l-350 -903h-283l-350 903z" />
<glyph unicode="w" horiz-adv-x="1826" d="M-37 899v193q242 -4 275 -5q29 0 262 5v-193l-129 4l127 -502q12 -47 28 -165q4 39 15 83q0 4 3 15l8 26q5 16 9 33l141 506h-104v193l315.5 -4.5t323.5 4.5v-193h-117l137 -493q23 -84 33 -168q20 109 37 170l135 495l-133 -4v193q229 -4 258 -5q33 0 275 5v-193l-138 4 l-292 -903h-293l-189 668q-27 90 -32 198q-14 -102 -35 -172l-209 -694h-293l-277 903z" />
<glyph unicode="x" horiz-adv-x="1251" d="M-16 0v193l149 -5l279 367l-248 348l-141 -4v193q262 -4 292 -5q29 0 263 5v-193h-117l135 -201q25 -35 31 -80q10 47 35 82l139 199h-115v193l276.5 -4.5t264.5 4.5v-193l-127 4l-248 -323l270 -392l142 5v-193q-186 6 -283 6q-96 0 -276 -6v193l118 -3l-141 209 q-25 35 -45 101q-18 -53 -53 -103l-156 -213l125 9l2 -193q-129 4 -291 4q-155 0 -280 -4z" />
<glyph unicode="y" horiz-adv-x="1163" d="M-51 899v193q258 -4 289 -5q27 0 276 5v-193l-139 4l172 -489q18 -49 45 -138q14 63 20 80q2 4 25 74l162 473l-137 -4v193q242 -4 270 -5q35 0 280 5v-193l-141 4l-504 -1286q-197 4 -219 4q-25 0 -196 -4v203l219 -2l86 221l-363 864z" />
<glyph unicode="z" horiz-adv-x="1071" d="M51 0v184l557 637q41 47 101 92q-61 -4 -136 -4l-284 -2v-194h-191q4 180 4 207q0 96 -2 172q397 -4 449 -5q53 0 463 5v-187l-557 -637q-61 -66 -95 -96q84 10 127 10h338v199h189q-6 -109 -6 -219q0 -90 2 -162q-215 4 -484 4q-262 0 -475 -4z" />
<glyph unicode="{" horiz-adv-x="665" d="M88 737q57 4 94 44t37 104v667q0 74 45 116t127 42h187v-108h-25q-70 0 -93.5 -25t-23.5 -92v-578q0 -74 -55 -125q-43 -39 -98 -45q29 -4 53 -14q100 -49 100 -156v-577q0 -68 23.5 -92.5t93.5 -24.5h25v-109h-187q-82 0 -127 42t-45 116v668q0 63 -37 103t-94 44z" />
<glyph unicode="|" horiz-adv-x="360" d="M88 0v1475h184v-1475h-184z" />
<glyph unicode="}" horiz-adv-x="665" d="M88 -127h25q70 0 94 24.5t24 92.5v577q0 109 101 156q23 10 53 14q-31 4 -53 15q-100 47 -101 155v578q0 68 -24.5 92.5t-93.5 24.5h-25v108h186q84 0 129.5 -42t45.5 -116v-667q0 -63 36.5 -103.5t92.5 -44.5q-55 -4 -92 -44t-37 -103v-668q0 -74 -46.5 -116t-128.5 -42 h-186v109z" />
<glyph unicode="~" horiz-adv-x="727" d="M-6 1554q10 100 32.5 152.5t71.5 93.5q55 49 125 49q43 0 115 -39l51 -28l45 -27q49 -29 74 -29q63 0 76 111h149q-14 -98 -32.5 -146.5t-55.5 -84.5q-53 -53 -141 -54q-90 0 -213 90q-43 31 -70 31q-35 0 -51 -24.5t-27 -92.5z" />
<glyph unicode="&#xa1;" horiz-adv-x="491" d="M127 4v498l59 561h154l51 -561v-498h-264zM127 1159v322h266v-322h-266z" />
<glyph unicode="&#xa2;" horiz-adv-x="1175" d="M66 545q0 250 161 416q68 70 132.5 101.5t189.5 53.5v137l127 -2v-139q90 -23 133 -48.5t109 -90.5v139h186q-6 -158 -6 -235q0 -74 6 -222h-197q-20 104 -71 156q-45 45 -160 84l-2 -694q104 14 170 73q55 49 94 140l201 -99q-41 -84 -75 -126t-89 -89 q-70 -57 -129.5 -79.5t-171.5 -36.5v-131l-127 2v129q-113 16 -173.5 41.5t-125.5 85.5q-182 166 -182 434zM319 563q0 -98 21.5 -157.5t75.5 -114.5q35 -37 60.5 -52.5t72.5 -29.5v682q-53 -10 -76.5 -26.5t-73.5 -76.5q-80 -100 -80 -225z" />
<glyph unicode="&#xa3;" horiz-adv-x="1257" d="M66 229q0 98 66.5 167t162.5 69q66 0 145 -37q-2 70 -14 107.5t-66 130.5l-276 -4v174h188q-35 74 -51 122q-23 78 -22 132q0 172 140 289.5t343 117.5q160 0 283 -84q70 -51 112 -115q49 -78 58 -227l-258 -24q-14 240 -193 239q-74 0 -120 -46t-46 -120q0 -33 10 -73 q14 -53 62 -154l26 -57l308 4v-176l-260 2q27 -113 26 -177q0 -59 -22 -163q72 -43 96 -56q37 -18 76 -18q29 0 61 16q43 23 62.5 60t23.5 110l205 -47q-20 -125 -46 -188.5t-77 -120.5q-92 -102 -215 -102q-119 0 -283 135q-51 -61 -102 -92q-74 -43 -143 -43 q-109 0 -184.5 71.5t-75.5 177.5zM233 229q0 -35 23 -58.5t59 -23.5q84 0 123 111q-61 53 -119 53q-39 0 -62.5 -22.5t-23.5 -59.5z" />
<glyph unicode="&#xa4;" horiz-adv-x="935" d="M88 434l123 123q-27 35 -43 86q-49 154 43 281l-121 116q29 41 68 76l127 -123q84 61 184 62q102 0 184 -60l123 123q2 -4 10.5 -8t10.5 -8q29 -25 51 -62l-121 -114q59 -84 58 -186.5t-60 -186.5l123 -123l-17 -16l-16 -19q-12 -12 -41 -37l-121 123q-84 -61 -184 -61 q-102 0 -184 63l-127 -123l-19 17l-16 18l-19 19zM258 737q0 -84 61 -149q61 -61 149.5 -61.5t150 61t61.5 149.5t-61.5 149.5t-149.5 61.5t-149.5 -61.5t-61.5 -149.5z" />
<glyph unicode="&#xa5;" horiz-adv-x="1566" d="M37 1272v203q221 -6 328 -7q109 0 323 7v-203l-149 4l202 -371q12 -23 25 -41q12 -33 22 -76l23 74l37 60l199 354l-148 -4v203q203 -6 305 -7q111 0 326 7v-203l-168 4l-313 -479h321v-148h-414l-32 -45l2 -43h444v-147h-446v-217l176 4v-201q-215 6 -324 6 q-100 0 -307 -6v201l176 -4v217h-442l4 147h440l-2 47l-24 41h-414v148h315l-303 479z" />
<glyph unicode="&#xa7;" horiz-adv-x="1226" d="M66 604q0 86 40.5 156.5t145.5 167.5q-72 57 -96.5 103t-24.5 128q0 158 129 252t348 94q248 0 396 -129q53 -47 78.5 -103t39.5 -161l-264 -2q-29 223 -256 223q-82 0 -135 -39t-53 -98q0 -53 33.5 -84t138.5 -78l295 -129q279 -123 278 -366q0 -96 -38 -164t-140 -154 q72 -55 94.5 -99t22.5 -126q0 -174 -131 -271.5t-365 -97.5q-281 0 -416 150q-43 47 -63.5 103.5t-28.5 158.5h264q12 -240 252 -240q90 0 147.5 42t57.5 110q0 47 -29.5 77.5t-105.5 63.5l-322 141q-292 127 -292 371zM328 649q0 -113 112 -160l373 -157q92 78 92 153 q0 104 -135 168l-342 156q-57 -51 -78.5 -85t-21.5 -75z" />
<glyph unicode="&#xa8;" horiz-adv-x="610" d="M-57 1317q0 59 38.5 102t96.5 43q59 0 101 -43t42 -102q0 -57 -42 -96t-101 -39q-55 0 -95 39t-40 96zM389 1317q-2 59 42 102t106 43q53 0 94 -43t41 -100q0 -55 -41 -96t-96 -41q-59 0 -102.5 40t-43.5 95z" />
<glyph unicode="&#xa9;" horiz-adv-x="1765" d="M119 739q0 315 223 539q147 147 344 199.5t393.5 0t343.5 -199.5q223 -223 224 -539q0 -317 -223.5 -540.5t-541 -223.5t-540.5 223.5t-223 540.5zM229 739q0 -274 193 -471q190 -195 460.5 -194.5t460.5 194.5q193 195 193 470.5t-193 469.5q-190 193 -460.5 193 t-460.5 -193q-193 -197 -193 -469zM427 659.5q-19 122.5 32 253.5q59 164 209.5 249t332.5 52q131 -23 232 -106l-68 -96q-76 63 -168 82q-156 31 -281.5 -57.5t-150.5 -241.5q-25 -158 60.5 -280t234.5 -148q135 -23 256 53q33 20 47 33l68 -97q-131 -109 -309 -114 q-127 -4 -238 51t-174.5 149.5t-82.5 217z" />
<glyph unicode="&#xaa;" horiz-adv-x="913" d="M88 1135q2 176 123 281.5t270 74.5q123 -27 174 -117l11 -18l8 -15v134h151v-687h-153v142l-6 -17l-9 -16q-43 -82 -148.5 -112.5t-215.5 12.5q-164 68 -199 258q-6 39 -6 80zM109 549v139h716v-139h-716zM246 1135q0 -33 4 -48q12 -72 57 -118.5t112.5 -59t125.5 14.5 q102 45 127 163q8 47 0 93q-25 119 -123 164t-189.5 -5.5t-111.5 -162.5q-4 -25 -2 -41z" />
<glyph unicode="&#xab;" horiz-adv-x="1030" d="M37 551l303 543h270l-299 -541l301 -545h-268zM416 551l303 543h270l-297 -541l299 -545h-266z" />
<glyph unicode="&#xac;" horiz-adv-x="1208" d="M88 737v185h1032v-480h-147v295h-885z" />
<glyph unicode="&#xad;" horiz-adv-x="665" d="M23 459v243l622 3v-246h-622z" />
<glyph unicode="&#xae;" horiz-adv-x="1765" d="M119 739q0 315 223 539q147 147 344 199.5t393.5 0t343.5 -199.5q223 -223 224 -539q0 -317 -223.5 -540.5t-541 -223.5t-540.5 223.5t-223 540.5zM229 739q0 -274 193 -471q190 -195 460.5 -194.5t460.5 194.5q193 195 193 470.5t-193 469.5q-190 193 -460.5 193 t-460.5 -193q-193 -197 -193 -469zM637 276v943h233q145 0 215 -56q68 -59 86 -147q23 -121 -34.5 -206t-167.5 -103q-10 -2 -31 -2l289 -429h-158l-299 457v-457h-133zM770 780h78q92 0 141 43t51 119q4 78 -44 122t-138 44h-88v-328z" />
<glyph unicode="&#xaf;" horiz-adv-x="645" d="M0 1208v156h645v-156h-645z" />
<glyph unicode="&#xb1;" horiz-adv-x="1124" d="M90 39v139h946v-139h-946zM90 539v139h404v250h139v-250h403v-139h-403v-250h-139v250h-404z" />
<glyph unicode="&#xb2;" d="M94 0q27 223 78 350q35 82 94 164q76 106 223 231q131 113 168 154q92 98 93 211q0 88 -48.5 140.5t-128.5 52.5q-96 0 -148 -73t-52 -208q0 -43 2 -68l-244 9q2 188 53 297q55 119 161 184t241 65q184 0 307 -115.5t123 -289.5q0 -137 -80 -250q-74 -104 -150 -162 l-88 -67q-84 -66 -159 -146q-43 -45 -74 -92q-49 -80 -76 -186h432v262l205 -2q-10 -182 -10 -293q0 -96 2 -168q-297 6 -447 6q-158 0 -477 -6z" />
<glyph unicode="&#xb3;" d="M63 457l230 28q2 -102 31 -168q61 -137 213 -137q104 0 169.5 69.5t65.5 182.5q0 106 -66.5 173t-177.5 67q-31 0 -92 -10v219q27 -2 72 -2q100 0 156.5 58t56.5 163q0 90 -48 145t-128 55q-184 0 -197 -245l-233 14q14 209 127.5 323.5t308.5 114.5q188 0 308 -109.5 t120 -281.5q0 -96 -41 -178q-29 -59 -70 -92t-125 -66q74 -18 115 -39q82 -37 133 -125t51 -190q0 -197 -139 -327t-350 -130q-203 0 -330 109q-59 53 -98 129q-31 53 -42.5 103.5t-19.5 146.5z" />
<glyph unicode="&#xb4;" horiz-adv-x="442" d="M90 1184l186 303h263l-265 -303h-184z" />
<glyph unicode="&#xb5;" horiz-adv-x="1179" d="M150 -285q0 4 1 19.5t2 43t1 56.5q4 131 4 182q0 117 -2 207q-4 180 -4 195v502h188v-607q0 -145 28.5 -194t102.5 -49q117 -2 195 163q78 168 77 420v267h189v-672q0 -92 18 -135q18 -41 60 -43q41 0 65 43q23 41 23 125v28h43q0 -10 2 -18v-27q0 -115 -49 -178 q-45 -61 -136 -61q-98 -2 -155 88q-49 82 -53 264q-47 -182 -125 -266q-78 -82 -199 -86q-90 0 -150 53q-57 51 -81 158q0 -4 -1 -23.5t-1 -34.5q-2 -127 65 -289q66 -160 66 -188q0 -41 -22.5 -63.5t-63.5 -22.5q-45 -2 -68 35q-16 28 -20 108z" />
<glyph unicode="&#xb6;" horiz-adv-x="1228" d="M88 1065q0 170 119 290t287 120h647v-119h-647q-121 0 -205 -86t-82 -209q2 -119 86 -203t201 -84h137v488h125v-1262h-125v655h-137q-168 0 -287 120t-119 290zM889 0v1262h125v-1262h-125z" />
<glyph unicode="&#xb7;" horiz-adv-x="550" d="M139 371v323l273 -2v-321h-273z" />
<glyph unicode="&#xb8;" horiz-adv-x="256" d="M45 -358q45 8 63.5 32.5t22.5 75.5l-84 -4v184h209v-172q0 -94 -72 -170q-41 -43 -139 -67v121z" />
<glyph unicode="&#xb9;" d="M225 1278v203q102 -4 232 -4q80 0 241 6v-1286l199 6v-203q-225 6 -334 6q-113 0 -330 -6v203l205 -6v1087z" />
<glyph unicode="&#xba;" horiz-adv-x="913" d="M88 1135q0 27 8 75q33 154 156 237t278 52q152 -31 236 -158t53 -282q-31 -150 -156.5 -234t-279.5 -53q-111 23 -187.5 99.5t-99.5 187.5q-8 35 -8 76zM100 549v139h715v-139h-715zM240 1135q0 -16 4 -41q27 -152 168 -183q90 -20 165.5 33t92.5 148q12 72 -12.5 133 t-75.5 98q-98 74 -213 23q-102 -49 -125 -168q-4 -29 -4 -43z" />
<glyph unicode="&#xbb;" horiz-adv-x="1032" d="M37 6l307 547l-301 541h268l301 -541l-305 -545zM416 6l309 547l-303 541h270l301 -541l-305 -545z" />
<glyph unicode="&#xbf;" horiz-adv-x="1005" d="M23 430q0 180 112 299q61 63 124 88t183 29l19 223h157q8 -231 27 -436q-78 27 -123 26q-106 0 -172.5 -68.5t-66.5 -176.5q0 -106 63.5 -173t163.5 -67t159.5 64.5t59.5 171.5v55l246 -2v-41q0 -199 -131 -324t-342 -125t-345 128t-134 329zM403 1157v322h273v-322h-273 z" />
<glyph unicode="&#xc0;" horiz-adv-x="1454" d="M-45 0l2 201l160 -4l364 1079l-188 -4v203q297 -6 448 -7q147 0 437 7l2 -203l-189 4l365 -1079l143 4v-201q-203 6 -305 6q-104 0 -305 -6v201l176 -4l-88 292h-479l-90 -292l178 4l-2 -201q-207 6 -310 6q-104 0 -319 -6zM422 1946h260l172 -301h-184zM553 688h367 l-146 467q-8 25 -37 152l-13 -58l-12 -51q-5 -20 -14 -43z" />
<glyph unicode="&#xc1;" horiz-adv-x="1454" d="M-45 0l2 201l160 -4l364 1079l-188 -4v203q297 -6 448 -7q147 0 437 7l2 -203l-189 4l365 -1079l143 4v-201q-203 6 -305 6q-104 0 -305 -6v201l176 -4l-88 292h-479l-90 -292l178 4l-2 -201q-207 6 -310 6q-104 0 -319 -6zM553 688h367l-146 467q-8 25 -37 152l-13 -58 l-12 -51q-5 -20 -14 -43zM664 1638l186 304h262l-264 -304h-184z" />
<glyph unicode="&#xc2;" horiz-adv-x="1454" d="M-45 0l2 201l160 -4l364 1079l-188 -4v203q297 -6 448 -7q147 0 437 7l2 -203l-189 4l365 -1079l143 4v-201q-203 6 -305 6q-104 0 -305 -6v201l176 -4l-88 292h-479l-90 -292l178 4l-2 -201q-207 6 -310 6q-104 0 -319 -6zM416 1638l227 301h201l229 -301h-207l-121 174 l-124 -174h-205zM553 688h367l-146 467q-8 25 -37 152l-13 -58l-12 -51q-5 -20 -14 -43z" />
<glyph unicode="&#xc3;" horiz-adv-x="1454" d="M-45 0l2 201l160 -4l364 1079l-188 -4v203q297 -6 448 -7q147 0 437 7l2 -203l-189 4l365 -1079l143 4v-201q-203 6 -305 6q-104 0 -305 -6v201l176 -4l-88 292h-479l-90 -292l178 4l-2 -201q-207 6 -310 6q-104 0 -319 -6zM416 1636q10 96 30.5 145.5t67.5 90.5 q53 47 121 47q18 0 55 -12q16 -6 53 -27q25 -12 50 -29l41 -26q43 -27 71 -27q61 0 74 109h137q-10 -92 -27.5 -138.5t-56.5 -82.5q-51 -51 -129 -52q-82 0 -205 88q-43 33 -65 33q-35 0 -51.5 -24.5t-24.5 -92.5zM553 688h367l-146 467q-8 25 -37 152l-13 -58l-12 -51 q-5 -20 -14 -43z" />
<glyph unicode="&#xc4;" horiz-adv-x="1454" d="M-45 0l2 201l160 -4l364 1079l-188 -4v203q297 -6 448 -7q147 0 437 7l2 -203l-189 4l365 -1079l143 4v-201q-203 6 -305 6q-104 0 -305 -6v201l176 -4l-88 292h-479l-90 -292l178 4l-2 -201q-207 6 -310 6q-104 0 -319 -6zM434 1505v250h246v-250h-246zM553 688h367 l-146 467q-8 25 -37 152l-13 -58l-12 -51q-5 -20 -14 -43zM815 1505v250h246v-250h-246z" />
<glyph unicode="&#xc5;" horiz-adv-x="1454" d="M-45 0l2 201l160 -4l364 1079l-188 -4v203q297 -6 448 -7q147 0 437 7l2 -203l-189 4l365 -1079l143 4v-201q-203 6 -305 6q-104 0 -305 -6v201l176 -4l-88 292h-479l-90 -292l178 4l-2 -201q-207 6 -310 6q-104 0 -319 -6zM539 1667q0 74 62.5 124t148.5 50t145 -50 t59 -124q0 -72 -60 -122t-146 -50t-147.5 50t-61.5 122zM553 688h367l-146 467q-8 25 -37 152l-13 -58l-12 -51q-5 -20 -14 -43zM659 1669q0 -33 26 -55.5t60 -22.5q39 0 66 22.5t27 53.5q0 33 -26 56.5t-62 23.5q-39 0 -65 -22.5t-26 -55.5z" />
<glyph unicode="&#xc6;" horiz-adv-x="2142" d="M-51 0v213l137 -4l549 1057l-156 -4v213q729 -4 819 -5q84 0 748 5q-4 -131 -4 -263q0 -113 2 -202l-215 2v250h-531v-412h451v-197h-455v-444l547 2v274h236q-6 -160 -6 -239q0 -82 6 -246q-565 4 -637 4t-633 -4v213l205 -4v448l-420 -2l-234 -446l158 4v-213 q-246 4 -274 4q-35 0 -293 -4zM690 846h322v428h-101z" />
<glyph unicode="&#xc7;" horiz-adv-x="1521" d="M66 737q0 330 207.5 550t519.5 220q121 0 225 -37q72 -27 114 -57.5t103 -97.5v178h197q-6 -170 -7 -256q0 -115 11 -264l-207 -2q-35 123 -99 192q-117 129 -311 129q-203 0 -323.5 -151.5t-120.5 -407.5q0 -248 121.5 -392t328.5 -144q209 0 334 161q59 74 113 232 l227 -78q-43 -125 -78 -189.5t-94 -127.5q-197 -215 -532 -215q-322 0 -525.5 211.5t-203.5 545.5zM672 -336q45 8 63.5 32.5t22.5 76.5l-84 -6v186h209v-172q0 -98 -72 -170q-41 -43 -139 -68v121z" />
<glyph unicode="&#xc8;" horiz-adv-x="1302" d="M23 0v201l172 -4v1079l-172 -4v203q403 -6 604 -7q197 0 585 7q-2 -104 -2 -234q0 -127 2 -229l-221 -2v262h-518v-426l438 2v-201l-438 2v-448h543v262l219 2q-4 -106 -4 -242q0 -123 2 -223q-399 6 -600 6q-202 0 -610 -6zM348 1946h260l172 -301h-184z" />
<glyph unicode="&#xc9;" horiz-adv-x="1302" d="M23 0v201l172 -4v1079l-172 -4v203q403 -6 604 -7q197 0 585 7q-2 -104 -2 -234q0 -127 2 -229l-221 -2v262h-518v-426l438 2v-201l-438 2v-448h543v262l219 2q-4 -106 -4 -242q0 -123 2 -223q-399 6 -600 6q-202 0 -610 -6zM561 1638l187 304h262l-265 -304h-184z" />
<glyph unicode="&#xca;" horiz-adv-x="1302" d="M23 0v201l172 -4v1079l-172 -4v203q403 -6 604 -7q197 0 585 7q-2 -104 -2 -234q0 -127 2 -229l-221 -2v262h-518v-426l438 2v-201l-438 2v-448h543v262l219 2q-4 -106 -4 -242q0 -123 2 -223q-399 6 -600 6q-202 0 -610 -6zM342 1638l227 301h201l229 -301h-206 l-121 174l-125 -174h-205z" />
<glyph unicode="&#xcb;" horiz-adv-x="1302" d="M23 0v201l172 -4v1079l-172 -4v203q403 -6 604 -7q197 0 585 7q-2 -104 -2 -234q0 -127 2 -229l-221 -2v262h-518v-426l438 2v-201l-438 2v-448h543v262l219 2q-4 -106 -4 -242q0 -123 2 -223q-399 6 -600 6q-202 0 -610 -6zM309 1772q0 59 39 102t96 43q59 0 101.5 -43 t42.5 -102q0 -57 -42 -96.5t-102 -39.5q-55 0 -95 39.5t-40 96.5zM756 1772q-2 59 42 102t105 43q53 0 94 -43t41 -100q0 -55 -41 -96.5t-96 -41.5q-59 0 -102 40.5t-43 95.5z" />
<glyph unicode="&#xcc;" horiz-adv-x="671" d="M18 1946h261l172 -301h-185zM23 0v201l174 -4v1079l-174 -4v203q209 -6 311 -7q106 0 315 7v-203l-170 4v-1079l170 4v-201q-139 4 -313 4t-313 -4z" />
<glyph unicode="&#xcd;" horiz-adv-x="671" d="M23 0v201l174 -4v1079l-174 -4v203q209 -6 311 -7q106 0 315 7v-203l-170 4v-1079l170 4v-201q-139 4 -313 4t-313 -4zM262 1638l187 304h262l-265 -304h-184z" />
<glyph unicode="&#xce;" horiz-adv-x="671" d="M23 0v201l174 -4v1079l-174 -4v203q209 -6 311 -7q106 0 315 7v-203l-170 4v-1079l170 4v-201q-139 4 -313 4t-313 -4zM23 1638l227 301h201l229 -301h-207l-121 174l-125 -174h-204z" />
<glyph unicode="&#xcf;" horiz-adv-x="671" d="M-12 1772q0 59 39 102t96 43q59 0 101 -43t42 -102q0 -57 -42 -96.5t-101 -39.5q-55 0 -95 39.5t-40 96.5zM23 0v201l174 -4v1079l-174 -4v203q209 -6 311 -7q106 0 315 7v-203l-170 4v-1079l170 4v-201q-139 4 -313 4t-313 -4zM434 1772q-2 59 42 102t106 43 q53 0 94 -43t41 -100q0 -55 -41 -96.5t-96 -41.5q-59 0 -102.5 40.5t-43.5 95.5z" />
<glyph unicode="&#xd1;" horiz-adv-x="1667" d="M23 0v201l170 -4v1079l-168 -4v203q193 -6 292 -7q86 0 258 7l562 -979l34 -58l39 -90q-8 109 -8 172v756l-174 -4v203q193 -6 295 -7q106 0 322 7v-203l-168 4v-1274h-326l-610 1061l-41 72l-39 86q2 -25 5 -58t3 -37v-86v-843l174 4v-201q-197 6 -297 6q-108 0 -323 -6 zM522 1636q10 96 30.5 145.5t68.5 90.5q53 47 120 47q18 0 56 -12q16 -6 53 -27q25 -12 49 -29l41 -26q43 -27 72 -27q61 0 73 109h138q-10 -92 -27.5 -138.5t-56.5 -82.5q-51 -51 -129 -52q-82 0 -205 88q-43 33 -66 33q-35 0 -51 -24.5t-24 -92.5z" />
<glyph unicode="&#xd2;" horiz-adv-x="1634" d="M66 739q0 344 207.5 557t543.5 213t543 -213t207 -557t-207 -556t-543 -212t-543.5 212t-207.5 556zM375 739q0 -256 120.5 -410.5t321.5 -154.5t322 154.5t121 410.5t-121 411t-322 155t-321.5 -155t-120.5 -411zM500 1946h260l172 -301h-184z" />
<glyph unicode="&#xd3;" horiz-adv-x="1634" d="M66 739q0 344 207.5 557t543.5 213t543 -213t207 -557t-207 -556t-543 -212t-543.5 212t-207.5 556zM375 739q0 -256 120.5 -410.5t321.5 -154.5t322 154.5t121 410.5t-121 411t-322 155t-321.5 -155t-120.5 -411zM731 1638l187 304h262l-265 -304h-184z" />
<glyph unicode="&#xd4;" horiz-adv-x="1634" d="M66 739q0 344 207.5 557t543.5 213t543 -213t207 -557t-207 -556t-543 -212t-543.5 212t-207.5 556zM375 739q0 -256 120.5 -410.5t321.5 -154.5t322 154.5t121 410.5t-121 411t-322 155t-321.5 -155t-120.5 -411zM506 1638l227 301h201l229 -301h-207l-120 174 l-125 -174h-205z" />
<glyph unicode="&#xd5;" horiz-adv-x="1634" d="M66 739q0 344 207.5 557t543.5 213t543 -213t207 -557t-207 -556t-543 -212t-543.5 212t-207.5 556zM375 739q0 -256 120.5 -410.5t321.5 -154.5t322 154.5t121 410.5t-121 411t-322 155t-321.5 -155t-120.5 -411zM506 1636q10 96 30.5 145.5t67.5 90.5q53 47 121 47 q18 0 55 -12q16 -6 54 -27q25 -12 49 -29l41 -26q43 -27 71 -27q61 0 74 109h137q-10 -92 -27.5 -138.5t-56.5 -82.5q-51 -51 -129 -52q-82 0 -205 88q-43 33 -65 33q-35 0 -51.5 -24.5t-24.5 -92.5z" />
<glyph unicode="&#xd6;" horiz-adv-x="1634" d="M66 739q0 344 207.5 557t543.5 213t543 -213t207 -557t-207 -556t-543 -212t-543.5 212t-207.5 556zM268 1505v250l246 -2v-250zM375 739q0 -256 120.5 -410.5t321.5 -154.5t322 154.5t121 410.5t-121 411t-322 155t-321.5 -155t-120.5 -411zM1153 1503v250l246 2v-250z " />
<glyph unicode="&#xd7;" d="M147 430l281 279l-281 276l136 135l278 -276l277 276l135 -133l-279 -276l279 -277l-135 -135l-277 276l-280 -278z" />
<glyph unicode="&#xd8;" horiz-adv-x="1634" d="M66 748q0 334 208.5 545.5t534.5 211.5q154 0 249 -32.5t257 -141.5l172 178l80 -67l-174 -180q106 -156 139 -257.5t33 -267.5q0 -342 -206 -556t-536 -214q-156 0 -253 35t-259 150l-172 -179l-69 76l170 174q-109 147 -141.5 247t-32.5 278zM375 731q0 -102 11 -157.5 t52 -143.5l699 717q-94 94 -159 125t-167 31q-199 0 -317.5 -157t-118.5 -415zM489 334q98 -100 163 -131t175 -31q190 0 310 158.5t120 408.5q0 96 -11 157.5t-50 164.5z" />
<glyph unicode="&#xd9;" horiz-adv-x="1419" d="M16 1276v201q203 -6 306 -7q100 0 305 7v-201l-156 4v-788q0 -106 10.5 -149.5t44.5 -80.5q68 -72 185 -72q115 0 182 72q35 35 45 78t10 152v788l-153 -4v201q203 -6 303 -7q102 0 307 7v-201l-176 4v-795q0 -145 -34 -237t-110 -156q-139 -121 -374 -121 q-223 0 -377 121q-143 117 -144 393v795zM406 1946h260l172 -301h-185z" />
<glyph unicode="&#xda;" horiz-adv-x="1419" d="M16 1276v201q203 -6 306 -7q100 0 305 7v-201l-156 4v-788q0 -106 10.5 -149.5t44.5 -80.5q68 -72 185 -72q115 0 182 72q35 35 45 78t10 152v788l-153 -4v201q203 -6 303 -7q102 0 307 7v-201l-176 4v-795q0 -145 -34 -237t-110 -156q-139 -121 -374 -121 q-223 0 -377 121q-143 117 -144 393v795zM643 1638l186 304h263l-265 -304h-184z" />
<glyph unicode="&#xdb;" horiz-adv-x="1419" d="M16 1276v201q203 -6 306 -7q100 0 305 7v-201l-156 4v-788q0 -106 10.5 -149.5t44.5 -80.5q68 -72 185 -72q115 0 182 72q35 35 45 78t10 152v788l-153 -4v201q203 -6 303 -7q102 0 307 7v-201l-176 4v-795q0 -145 -34 -237t-110 -156q-139 -121 -374 -121 q-223 0 -377 121q-143 117 -144 393v795zM416 1638l227 301h201l229 -301h-207l-121 174l-124 -174h-205z" />
<glyph unicode="&#xdc;" horiz-adv-x="1419" d="M16 1276v201q203 -6 306 -7q100 0 305 7v-201l-156 4v-788q0 -106 10.5 -149.5t44.5 -80.5q68 -72 185 -72q115 0 182 72q35 35 45 78t10 152v788l-153 -4v201q203 -6 303 -7q102 0 307 7v-201l-176 4v-795q0 -145 -34 -237t-110 -156q-139 -121 -374 -121 q-223 0 -377 121q-143 117 -144 393v795zM328 1505v248h245v-248h-245zM870 1505v248h246v-248h-246z" />
<glyph unicode="&#xdd;" horiz-adv-x="1359" d="M588 1633l186 303h263l-265 -303h-184zM-66 1272v203q217 -6 328 -6.5t322 6.5v-203l-148 4l203 -371q4 -8 8 -15t7 -11.5l5.5 -8.5t2.5 -6q16 -47 22 -76l23 74l36 60l201 354l-149 -4v203q205 -6 307 -7q109 0 323 7v-203l-168 4l-436 -672v-407l174 4v-201 q-213 6 -321 6q-104 0 -309 -6v201l178 -4v411l-428 668z" />
<glyph unicode="&#xdf;" horiz-adv-x="1230" d="M45 184l154 -4l2 727l-154 -4l-2 191l156 -4v51q0 166 117.5 265t310.5 99q182 0 295.5 -92t113.5 -237q0 -68 -26 -127q-20 -45 -49 -70t-93 -53q303 -43 304 -426q0 -233 -115 -374.5t-303 -141.5q-31 0 -109 8l-2 215q23 -4 62 -4q102 0 158.5 81t56.5 228 q0 137 -63.5 210t-184.5 73q-10 0 -88 -9v197q10 0 25.5 -1t21.5 -1q74 0 121 47t47 121t-46 120t-120 46q-45 0 -86 -23q-53 -27 -73.5 -77t-20.5 -150v-877h151v-188q-242 4 -276 4q-33 0 -283 -4z" />
<glyph unicode="&#xe0;" horiz-adv-x="1173" d="M59 330q0 154 111 252t285 98q131 0 284 -76v117q0 98 -56 151.5t-161 53.5q-170 0 -233 -140l-228 43q37 76 69 114t85 77q137 92 328 92q201 0 327 -92q63 -47 89 -111.5t26 -179.5v-541l166 5v-193q-180 4 -204.5 4t-209.5 -4v113q-37 -33 -51 -43q-121 -92 -270 -93 q-154 0 -255.5 100.5t-101.5 252.5zM283 1491h260l172 -301h-185zM309 332q0 -72 48.5 -119t123.5 -47q51 0 119 29q61 29 139 98v139q-90 47 -147 62q-61 14 -94 14q-82 0 -135.5 -49t-53.5 -127z" />
<glyph unicode="&#xe1;" horiz-adv-x="1173" d="M59 330q0 154 111 252t285 98q131 0 284 -76v117q0 98 -56 151.5t-161 53.5q-170 0 -233 -140l-228 43q37 76 69 114t85 77q137 92 328 92q201 0 327 -92q63 -47 89 -111.5t26 -179.5v-541l166 5v-193q-180 4 -204.5 4t-209.5 -4v113q-37 -33 -51 -43q-121 -92 -270 -93 q-154 0 -255.5 100.5t-101.5 252.5zM309 332q0 -72 48.5 -119t123.5 -47q51 0 119 29q61 29 139 98v139q-90 47 -147 62q-61 14 -94 14q-82 0 -135.5 -49t-53.5 -127zM475 1184l187 303h262l-265 -303h-184z" />
<glyph unicode="&#xe2;" horiz-adv-x="1173" d="M59 330q0 154 111 252t285 98q131 0 284 -76v117q0 98 -56 151.5t-161 53.5q-170 0 -233 -140l-228 43q37 76 69 114t85 77q137 92 328 92q201 0 327 -92q63 -47 89 -111.5t26 -179.5v-541l166 5v-193q-180 4 -204.5 4t-209.5 -4v113q-37 -33 -51 -43q-121 -92 -270 -93 q-154 0 -255.5 100.5t-101.5 252.5zM254 1184l227 301h201l229 -301h-206l-121 174l-125 -174h-205zM309 332q0 -72 48.5 -119t123.5 -47q51 0 119 29q61 29 139 98v139q-90 47 -147 62q-61 14 -94 14q-82 0 -135.5 -49t-53.5 -127z" />
<glyph unicode="&#xe3;" horiz-adv-x="1173" d="M59 330q0 154 111 252t285 98q131 0 284 -76v117q0 98 -56 151.5t-161 53.5q-170 0 -233 -140l-228 43q37 76 69 114t85 77q137 92 328 92q201 0 327 -92q63 -47 89 -111.5t26 -179.5v-541l166 5v-193q-180 4 -204.5 4t-209.5 -4v113q-37 -33 -51 -43q-121 -92 -270 -93 q-154 0 -255.5 100.5t-101.5 252.5zM256 1182q10 96 30.5 145t67.5 90q53 47 121 47q18 0 55 -12q16 -6 54 -27q25 -12 49 -28l41 -27q43 -27 71 -27q61 0 74 109h137q-10 -92 -27.5 -138t-56.5 -83q-51 -51 -129 -51q-82 0 -204 88q-43 33 -66 32q-35 0 -51 -24.5 t-25 -91.5zM309 332q0 -72 48.5 -119t123.5 -47q51 0 119 29q61 29 139 98v139q-90 47 -147 62q-61 14 -94 14q-82 0 -135.5 -49t-53.5 -127z" />
<glyph unicode="&#xe4;" horiz-adv-x="1173" d="M59 330q0 154 111 252t285 98q131 0 284 -76v117q0 98 -56 151.5t-161 53.5q-170 0 -233 -140l-228 43q37 76 69 114t85 77q137 92 328 92q201 0 327 -92q63 -47 89 -111.5t26 -179.5v-541l166 5v-193q-180 4 -204.5 4t-209.5 -4v113q-37 -33 -51 -43q-121 -92 -270 -93 q-154 0 -255.5 100.5t-101.5 252.5zM225 1317q0 59 39 102t96 43q61 0 103.5 -43t42.5 -102q0 -57 -42 -96t-102 -39q-57 0 -97 39t-40 96zM309 332q0 -72 48.5 -119t123.5 -47q51 0 119 29q61 29 139 98v139q-90 47 -147 62q-61 14 -94 14q-82 0 -135.5 -49t-53.5 -127z M680 1317q-2 59 42 102t103 43q57 0 96.5 -42t39.5 -101q0 -55 -40 -96t-98 -41q-59 0 -101 39t-42 96z" />
<glyph unicode="&#xe5;" horiz-adv-x="1173" d="M59 330q0 154 111 252t285 98q131 0 284 -76v117q0 98 -56 151.5t-161 53.5q-170 0 -233 -140l-228 43q37 76 69 114t85 77q137 92 328 92q201 0 327 -92q63 -47 89 -111.5t26 -179.5v-541l166 5v-193q-180 4 -204.5 4t-209.5 -4v113q-37 -33 -51 -43q-121 -92 -270 -93 q-154 0 -255.5 100.5t-101.5 252.5zM309 332q0 -72 48.5 -119t123.5 -47q51 0 119 29q61 29 139 98v139q-90 47 -147 62q-61 14 -94 14q-82 0 -135.5 -49t-53.5 -127zM385 1380q0 86 61.5 147.5t147.5 61.5q84 0 143.5 -61.5t59.5 -147.5q0 -88 -60.5 -148.5t-144.5 -60.5 t-145.5 61.5t-61.5 147.5zM500 1380q0 -39 25.5 -66.5t64.5 -27.5t66.5 27.5t27.5 66.5t-26.5 68t-63.5 29q-39 0 -66.5 -29t-27.5 -68z" />
<glyph unicode="&#xe6;" horiz-adv-x="1908" d="M59 315.5q0 153.5 120 256t300 102.5q66 0 115 -10q88 -16 194 -64v131q0 115 -56 169t-175 54q-43 0 -102 -18q-55 -18 -84 -46t-62 -91l-239 32q61 123 117.5 177.5t150.5 81.5q98 31 229 30q147 0 253 -44t147 -122q18 25 37 39q53 55 145 89t186 34q133 0 251 -63.5 t183 -171.5q47 -80 66.5 -163t22.5 -239l-799 6q0 -90 11 -137t46 -94q76 -102 213 -102q109 0 193 65q51 39 106 117l230 -60q-53 -82 -90 -121.5t-103 -82.5q-145 -98 -334 -99q-127 0 -219 39q-59 25 -102 58.5t-105 105.5q-59 -57 -93 -82.5t-87 -52.5 q-135 -68 -276 -68q-174 0 -282 95.5t-108 249zM330 315q0 -76 52 -123t138 -47q111 0 266 113v176q-109 49 -174 62q-39 8 -82 8q-86 0 -143 -53.5t-57 -135.5zM1059 672h526q-25 90 -41 125q-29 59 -91 95t-138 36q-213 0 -256 -256z" />
<glyph unicode="&#xe7;" horiz-adv-x="1175" d="M66 545q0 244 150.5 407.5t373.5 163.5q86 0 176 -35q68 -29 152 -108v139h186q-6 -158 -6 -235q0 -74 6 -222h-197q-20 102 -76 156q-82 82 -210 82q-133 0 -216 -97.5t-83 -250.5q0 -158 85 -253t224 -95q123 0 211 77q51 45 94 140l203 -99q-45 -86 -78 -129t-88 -86 q-147 -121 -352 -120q-244 0 -399.5 158.5t-155.5 406.5zM504 -346q45 8 64.5 32.5t23.5 75.5l-84 -4v187h209v-172q0 -96 -72 -172q-41 -41 -141 -66v119z" />
<glyph unicode="&#xe8;" horiz-adv-x="1185" d="M66 537q0 250 153.5 414.5t386.5 164.5q121 0 228.5 -51t179.5 -141q66 -84 90 -180.5t24 -278.5l-823 2q12 -82 28.5 -124t55.5 -81q88 -94 229 -94q119 0 209 68q53 37 103 116l207 -84q-80 -113 -156 -170q-160 -123 -371 -123q-248 0 -396 154t-148 408zM289 1491 h260l172 -301h-184zM307 653h572q-18 115 -66 170q-82 98 -215 99q-123 0 -211 -95q-57 -61 -80 -174z" />
<glyph unicode="&#xe9;" horiz-adv-x="1185" d="M66 537q0 250 153.5 414.5t386.5 164.5q121 0 228.5 -51t179.5 -141q66 -84 90 -180.5t24 -278.5l-823 2q12 -82 28.5 -124t55.5 -81q88 -94 229 -94q119 0 209 68q53 37 103 116l207 -84q-80 -113 -156 -170q-160 -123 -371 -123q-248 0 -396 154t-148 408zM307 653h572 q-18 115 -66 170q-82 98 -215 99q-123 0 -211 -95q-57 -61 -80 -174zM518 1184l187 303h262l-265 -303h-184z" />
<glyph unicode="&#xea;" horiz-adv-x="1185" d="M66 537q0 250 153.5 414.5t386.5 164.5q121 0 228.5 -51t179.5 -141q66 -84 90 -180.5t24 -278.5l-823 2q12 -82 28.5 -124t55.5 -81q88 -94 229 -94q119 0 209 68q53 37 103 116l207 -84q-80 -113 -156 -170q-160 -123 -371 -123q-248 0 -396 154t-148 408zM283 1184 l227 301h201l229 -301h-207l-121 174l-125 -174h-204zM307 653h572q-18 115 -66 170q-82 98 -215 99q-123 0 -211 -95q-57 -61 -80 -174z" />
<glyph unicode="&#xeb;" horiz-adv-x="1185" d="M66 537q0 250 153.5 414.5t386.5 164.5q121 0 228.5 -51t179.5 -141q66 -84 90 -180.5t24 -278.5l-823 2q12 -82 28.5 -124t55.5 -81q88 -94 229 -94q119 0 209 68q53 37 103 116l207 -84q-80 -113 -156 -170q-160 -123 -371 -123q-248 0 -396 154t-148 408zM248 1317 q0 59 39 102t96 43q59 0 101 -43t42 -102q0 -57 -42 -96t-101 -39q-55 0 -95 39t-40 96zM307 653h572q-18 115 -66 170q-82 98 -215 99q-123 0 -211 -95q-57 -61 -80 -174zM694 1317q-2 59 42 102t106 43q53 0 94 -43t41 -100q0 -55 -41 -96t-96 -41q-59 0 -102.5 40 t-43.5 95z" />
<glyph unicode="&#xec;" horiz-adv-x="638" d="M0 1491h260l172 -301h-184zM37 0v193l172 -5v715l-170 -4v193q96 -2 215 -2q117 0 207 2v-904l157 5v-193q-190 6 -284 6q-100 0 -297 -6z" />
<glyph unicode="&#xed;" horiz-adv-x="638" d="M37 0v193l172 -5v715l-170 -4v193q96 -2 215 -2q117 0 207 2v-904l157 5v-193q-190 6 -284 6q-100 0 -297 -6zM260 1184l186 303h263l-265 -303h-184z" />
<glyph unicode="&#xee;" horiz-adv-x="638" d="M6 1184l227 301h201l230 -301h-207l-121 174l-125 -174h-205zM37 0v193l172 -5v715l-170 -4v193q96 -2 215 -2q117 0 207 2v-904l157 5v-193q-190 6 -284 6q-100 0 -297 -6z" />
<glyph unicode="&#xef;" horiz-adv-x="638" d="M-27 1317q0 59 39 102t97 43q59 0 101 -43t42 -102q0 -57 -42 -96t-101 -39q-55 0 -95.5 39t-40.5 96zM37 0v193l172 -5v715l-170 -4v193q96 -2 215 -2q117 0 207 2v-904l157 5v-193q-190 6 -284 6q-100 0 -297 -6zM420 1317q-2 59 42 102t105 43q53 0 94 -43t41 -100 q0 -55 -40.5 -96t-96.5 -41q-59 0 -102 40t-43 95z" />
<glyph unicode="&#xf1;" horiz-adv-x="1247" d="M37 0v193l162 -5v713l-160 -2v193q188 -4 209 -5q25 0 201 5v-121l47 37l26 22q111 82 248 82q147 0 229 -86q41 -45 55.5 -103.5t14.5 -179.5v-555l156 5v-193q-184 6 -277 6q-96 0 -286 -6v193l155 -3v500q0 76 -4 100.5t-22 47.5q-35 47 -109 47q-119 0 -233 -129 v-568l155 5v-193q-182 6 -276 6q-98 0 -291 -6zM313 1182q10 96 31 145t68 90q53 47 120 47q18 0 56 -12q16 -6 53 -27q25 -12 49 -28l41 -27q43 -27 72 -27q61 0 74 109h137q-10 -92 -27.5 -138t-56.5 -83q-51 -51 -129 -51q-82 0 -205 88q-43 33 -66 32q-35 0 -51 -24.5 t-24 -91.5z" />
<glyph unicode="&#xf2;" horiz-adv-x="1191" d="M66 545q0 252 148 413.5t382 161.5q231 0 379.5 -161.5t148.5 -411.5t-148.5 -412t-379.5 -162q-233 0 -381.5 161t-148.5 411zM285 1491h260l172 -301h-185zM330 545q0 -164 72.5 -262.5t193.5 -98.5t191.5 97.5t70.5 263.5q0 170 -69.5 267t-192.5 97 q-121 0 -193.5 -98t-72.5 -266z" />
<glyph unicode="&#xf3;" horiz-adv-x="1191" d="M66 545q0 252 148 413.5t382 161.5q231 0 379.5 -161.5t148.5 -411.5t-148.5 -412t-379.5 -162q-233 0 -381.5 161t-148.5 411zM330 545q0 -164 72.5 -262.5t193.5 -98.5t191.5 97.5t70.5 263.5q0 170 -69.5 267t-192.5 97q-121 0 -193.5 -98t-72.5 -266zM506 1184 l186 303h262l-264 -303h-184z" />
<glyph unicode="&#xf4;" horiz-adv-x="1191" d="M66 545q0 252 148 413.5t382 161.5q231 0 379.5 -161.5t148.5 -411.5t-148.5 -412t-379.5 -162q-233 0 -381.5 161t-148.5 411zM283 1184l227 301h201l229 -301h-207l-121 174l-125 -174h-204zM330 545q0 -164 72.5 -262.5t193.5 -98.5t191.5 97.5t70.5 263.5 q0 170 -69.5 267t-192.5 97q-121 0 -193.5 -98t-72.5 -266z" />
<glyph unicode="&#xf5;" horiz-adv-x="1191" d="M66 545q0 252 148 413.5t382 161.5q231 0 379.5 -161.5t148.5 -411.5t-148.5 -412t-379.5 -162q-233 0 -381.5 161t-148.5 411zM285 1182q10 96 30.5 145t67.5 90q53 47 121 47q18 0 55 -12q16 -6 53 -27q25 -12 50 -28l40 -27q43 -27 72 -27q61 0 74 109h137 q-10 -92 -27.5 -138t-56.5 -83q-51 -51 -129 -51q-82 0 -205 88q-43 33 -65 32q-35 0 -51.5 -24.5t-24.5 -91.5zM330 545q0 -164 72.5 -262.5t193.5 -98.5t191.5 97.5t70.5 263.5q0 170 -69.5 267t-192.5 97q-121 0 -193.5 -98t-72.5 -266z" />
<glyph unicode="&#xf6;" horiz-adv-x="1191" d="M66 545q0 252 148 413.5t382 161.5q231 0 379.5 -161.5t148.5 -411.5t-148.5 -412t-379.5 -162q-233 0 -381.5 161t-148.5 411zM254 1315q0 59 39 102t96 43q59 0 101 -43t42 -102q0 -57 -41.5 -96t-101.5 -39q-55 0 -95 39t-40 96zM330 545q0 -164 72.5 -262.5 t193.5 -98.5t191.5 97.5t70.5 263.5q0 170 -69.5 267t-192.5 97q-121 0 -193.5 -98t-72.5 -266zM700 1315q-2 59 42 102t106 43q53 0 94 -43t41 -100q0 -55 -41 -96t-96 -41q-59 0 -102.5 40t-43.5 95z" />
<glyph unicode="&#xf7;" horiz-adv-x="1124" d="M88 414v139h948v-139h-948zM446 207q0 49 33 82q39 35 84 35q49 0 82 -33t33 -84q0 -49 -35 -82q-31 -35 -80 -35t-84 35q-33 37 -33 82zM446 758q0 49 33 82q35 31 84 34q49 0 80 -34q35 -35 35 -82q0 -49 -35 -82q-31 -35 -80 -35t-84 35q-33 33 -33 82z" />
<glyph unicode="&#xf8;" horiz-adv-x="1200" d="M66 55l116 121q-70 109 -91 178.5t-21 190.5q0 252 148.5 413.5t381.5 161.5q94 0 165 -26.5t187 -104.5l103 109l80 -66l-115 -121q68 -106 88 -175.5t20 -184.5q0 -254 -149.5 -416t-384.5 -162q-96 0 -162.5 27t-175.5 106l-119 -126zM332 551q0 -92 28 -186l431 454 q-59 53 -98.5 71.5t-96.5 18.5q-121 0 -192.5 -98t-71.5 -260zM416 272q51 -53 85 -69.5t95 -16.5q121 0 191.5 97.5t70.5 263.5q0 88 -18 174z" />
<glyph unicode="&#xf9;" horiz-adv-x="1226" d="M23 899v193q176 -4 198 -5q20 0 205 5v-713q0 -72 6 -96.5t27 -44.5q37 -37 94 -37q55 0 119 28q57 27 121 107v565l-162 -2v193l210.5 -4.5t202.5 4.5v-904l160 5v-193q-180 4 -203 4q-25 0 -208 -4v131q-68 -78 -156 -115q-90 -39 -166 -39q-123 0 -213 74 q-47 41 -66.5 102.5t-19.5 168.5v581zM303 1491h260l172 -301h-184z" />
<glyph unicode="&#xfa;" horiz-adv-x="1226" d="M23 899v193q176 -4 198 -5q20 0 205 5v-713q0 -72 6 -96.5t27 -44.5q37 -37 94 -37q55 0 119 28q57 27 121 107v565l-162 -2v193l210.5 -4.5t202.5 4.5v-904l160 5v-193q-180 4 -203 4q-25 0 -208 -4v131q-68 -78 -156 -115q-90 -39 -166 -39q-123 0 -213 74 q-47 41 -66.5 102.5t-19.5 168.5v581zM512 1184l186 303h263l-265 -303h-184z" />
<glyph unicode="&#xfb;" horiz-adv-x="1226" d="M23 899v193q176 -4 198 -5q20 0 205 5v-713q0 -72 6 -96.5t27 -44.5q37 -37 94 -37q55 0 119 28q57 27 121 107v565l-162 -2v193l210.5 -4.5t202.5 4.5v-904l160 5v-193q-180 4 -203 4q-25 0 -208 -4v131q-68 -78 -156 -115q-90 -39 -166 -39q-123 0 -213 74 q-47 41 -66.5 102.5t-19.5 168.5v581zM293 1184l227 301h201l229 -301h-207l-120 174l-125 -174h-205z" />
<glyph unicode="&#xfc;" horiz-adv-x="1226" d="M23 899v193q176 -4 198 -5q20 0 205 5v-713q0 -72 6 -96.5t27 -44.5q37 -37 94 -37q55 0 119 28q57 27 121 107v565l-162 -2v193l210.5 -4.5t202.5 4.5v-904l160 5v-193q-180 4 -203 4q-25 0 -208 -4v131q-68 -78 -156 -115q-90 -39 -166 -39q-123 0 -213 74 q-47 41 -66.5 102.5t-19.5 168.5v581zM258 1313q0 59 39 102t96 43q59 0 101.5 -43t42.5 -102q0 -57 -42 -96t-102 -39q-55 0 -95 39t-40 96zM705 1313q-2 59 42 102t105 43q53 0 94 -43t41 -100q0 -55 -41 -96t-96 -41q-59 0 -102 40t-43 95z" />
<glyph unicode="&#xfd;" horiz-adv-x="1163" d="M487 1243l186 303h263l-265 -303h-184zM-51 899v193q258 -4 289 -5q27 0 276 5v-193l-139 4l172 -489q18 -49 45 -138q14 63 20 80q2 4 25 74l162 473l-137 -4v193q242 -4 270 -5q35 0 280 5v-193l-141 4l-504 -1286q-197 4 -219 4q-25 0 -196 -4v203l219 -2l86 221 l-363 864z" />
<glyph unicode="&#xff;" horiz-adv-x="1163" d="M-51 899v193q258 -4 289 -5q27 0 276 5v-193l-139 4l172 -489q18 -49 45 -138q14 63 20 80q2 4 25 74l162 473l-137 -4v193q242 -4 270 -5q35 0 280 5v-193l-141 4l-504 -1286q-197 4 -219 4q-25 0 -196 -4v203l219 -2l86 221l-363 864zM256 1317q0 59 39 102t96 43 q59 0 101.5 -43t42.5 -102q0 -57 -42 -96t-102 -39q-55 0 -95 39t-40 96zM702 1317q-2 59 42 102t106 43q53 0 94 -43t41 -100q0 -55 -41 -96t-96 -41q-59 0 -102.5 40t-43.5 95z" />
<glyph unicode="&#x152;" horiz-adv-x="2136" d="M66 731q0 176 63.5 331t175.5 253q100 88 227 126t318 38q47 0 194 -4q225 -4 418 -5q57 0 134 1.5t212.5 2.5t245.5 1q-4 -109 -4 -246q0 -125 2 -221h-217v254h-545v-410h451v-201h-451v-440h565v268h216q-4 -217 -5 -246q0 -25 5 -233l-525 4q-291 2 -512 -4 q-180 -4 -223 -4q-111 0 -165 7t-146 36q-197 61 -315.5 251.5t-118.5 440.5zM379 731q0 -268 145 -407q119 -113 342 -113q88 0 142 2v1049q-45 2 -117 2q-242 0 -348 -99q-164 -147 -164 -434z" />
<glyph unicode="&#x153;" horiz-adv-x="2093" d="M66 539q0 254 160.5 417.5t406.5 163.5q109 0 221 -43q82 -31 124 -66.5t89 -117.5q33 47 43 59q61 76 165.5 121t221.5 45q258 0 416 -192q72 -86 98.5 -179.5t30.5 -271.5h-844q2 -88 17.5 -137t52.5 -92q84 -100 229 -101q100 0 174 45.5t137 143.5l230 -60 q-49 -80 -83 -116.5t-100 -81.5q-160 -109 -358 -109q-115 0 -211 35q-84 29 -130 66.5t-99 124.5q-37 -55 -51 -72q-59 -72 -160 -112t-219 -40q-250 0 -405.5 158t-155.5 412zM340 536.5q0 -174.5 79 -274.5t218 -100q135 0 215 104.5t80 282.5q0 170 -79 269.5t-216 99.5 q-135 0 -216 -103.5t-81 -278zM1198 672h567l-8 22q-37 98 -61.5 137t-77.5 68q-70 35 -139 35q-232 0 -281 -262z" />
<glyph unicode="&#x178;" horiz-adv-x="1359" d="M-66 1272v203q217 -6 328 -6.5t322 6.5v-203l-148 4l203 -371q4 -8 8 -15t7 -11.5l5.5 -8.5t2.5 -6q16 -47 22 -76l23 74l36 60l201 354l-149 -4v203q205 -6 307 -7q109 0 323 7v-203l-168 4l-436 -672v-407l174 4v-201q-213 6 -321 6q-104 0 -309 -6v201l178 -4v411 l-428 668zM346 1772q0 59 39 102t96 43q59 0 101.5 -43t42.5 -102q0 -57 -42 -96.5t-102 -39.5q-55 0 -95 39.5t-40 96.5zM793 1772q-2 59 42 102t105 43q53 0 94 -43t41 -100q0 -55 -41 -96.5t-96 -41.5q-59 0 -102 40.5t-43 95.5z" />
<glyph unicode="&#x2c6;" horiz-adv-x="647" d="M-6 1184l227 301h201l229 -301h-207l-120 174l-125 -174h-205z" />
<glyph unicode="&#x2dc;" horiz-adv-x="690" d="M-6 1182q10 96 30.5 145t67.5 90q53 47 121 47q18 0 55 -12q16 -6 54 -27q25 -12 49 -28l41 -27q43 -27 71 -27q61 0 74 109h137q-10 -92 -27.5 -138t-56.5 -83q-51 -51 -129 -51q-82 0 -205 88q-43 33 -65 32q-35 0 -51.5 -24.5t-24.5 -91.5z" />
<glyph unicode="&#x2013;" d="M57 610v172l1008 -2v-170h-1008z" />
<glyph unicode="&#x2014;" horiz-adv-x="2039" d="M61 637v194h1917v-194h-1917z" />
<glyph unicode="&#x2018;" horiz-adv-x="436" d="M82 844v323q0 170 76 258q55 68 196 78v-143q-68 -16 -90 -54t-28 -141l118 2v-323h-272z" />
<glyph unicode="&#x2019;" horiz-adv-x="434" d="M82 813v143q66 18 90 60q27 41 27 127l-117 -2v336h270v-320q0 -178 -76 -264q-35 -41 -75.5 -57.5t-118.5 -22.5z" />
<glyph unicode="&#x201a;" horiz-adv-x="432" d="M82 0v322l270 2v-344q0 -152 -78 -242q-35 -39 -74.5 -55.5t-117.5 -20.5v145q63 14 90 58q25 37 25 123v14z" />
<glyph unicode="&#x201c;" horiz-adv-x="817" d="M82 844v323q0 170 76 258q55 68 196 78v-143q-68 -16 -90 -54t-28 -141l118 2v-323h-272zM463 844v323q0 168 78 258q55 68 196 78v-143q-68 -16 -91 -54t-28 -141l119 2v-323h-274z" />
<glyph unicode="&#x201d;" horiz-adv-x="817" d="M82 813v143q66 18 90 60q27 41 27 127l-117 -2v336h270v-320q0 -178 -76 -264q-35 -41 -75.5 -57.5t-118.5 -22.5zM463 813v143q41 10 59.5 22.5t32.5 37.5q25 39 25 127l-117 -2v336h272v-320q0 -178 -76 -264q-35 -41 -76.5 -57.5t-119.5 -22.5z" />
<glyph unicode="&#x201e;" horiz-adv-x="815" d="M82 0v322l270 2v-344q0 -152 -78 -242q-35 -39 -74.5 -55.5t-117.5 -20.5v145q63 14 90 58q25 37 25 123v14zM463 -193q63 14 90 58q27 45 27 123v14l-115 -2v322l268 2v-344q0 -154 -76 -242q-37 -39 -76.5 -55.5t-117.5 -20.5v145z" />
<glyph unicode="&#x2022;" horiz-adv-x="550" d="M139 371v323l273 -2v-321h-273z" />
<glyph unicode="&#x2026;" horiz-adv-x="2039" d="M195 124.5q0 61.5 43 104.5t104 43t104 -43t43 -104.5t-43 -104.5t-104 -43t-104 43t-43 104.5zM877 124.5q0 61.5 43 104.5t104 43t104 -43t43 -104.5t-43 -104.5t-104 -43t-104 43t-43 104.5zM1559 124.5q0 61.5 44 104.5t103 43q61 0 104 -43t43 -104.5t-43 -104.5 t-104 -43q-59 0 -103 43t-44 104.5z" />
<glyph unicode="&#x2039;" horiz-adv-x="688" d="M37 551l319 455h293l-315 -453l317 -455h-291z" />
<glyph unicode="&#x203a;" horiz-adv-x="688" d="M37 98l321 455l-315 453h293l317 -453l-323 -455h-293z" />
<glyph unicode="&#x20ac;" horiz-adv-x="1765" d="M66 516l73 174h129q-2 16 -2 47t2 45h-202l73 174h156q63 246 253.5 398.5t444.5 152.5q121 0 226 -37q72 -27 113.5 -57.5t103.5 -97.5v178h196q-6 -170 -6 -256q0 -115 10 -264l-206 -2q-35 123 -99 192q-117 129 -311 129q-154 0 -261.5 -88t-154.5 -248h680l-74 -174 h-632q-2 -16 -3 -49q0 -29 3 -43h591l-73 -174h-492q47 -152 156.5 -235.5t265.5 -83.5q209 0 334 161q59 74 113 232l227 -78q-43 -125 -78 -189.5t-94 -127.5q-197 -215 -533 -215q-264 0 -452.5 145t-249.5 391h-227z" />
<glyph unicode="&#x2122;" horiz-adv-x="1480" d="M88 1364v111h447v-111h-164v-627h-123v627h-160zM510 737l137 752h80l188 -445q33 -72 35 -139q2 63 35 139l191 445h79l138 -752h-123l-72 422l-2 23l-2 20q-2 39 0 78q-2 -14 -20 -76l-9 -30l-4 -11l-184 -438h-51l-185 438l-4 11l-10 30q-6 18 -20 76q4 -49 2 -78 l-2 -20l-5 -23l-71 -422h-121z" />
<glyph unicode="&#xe000;" horiz-adv-x="1090" d="M0 1090h1090v-1090h-1090v1090z" />
<glyph unicode="&#xfb01;" horiz-adv-x="1314" d="M713 0v193l172 -5v715l-170 -4v193q96 -2 215 -2q117 0 207 2v-904l157 5v-193q-190 6 -284 6q-100 0 -297 -6zM860 1347.5q0 65.5 45 111.5t109 46q66 0 111 -46t45 -113q0 -63 -45.5 -107.5t-110.5 -44.5q-63 0 -108.5 44t-45.5 109.5zM23 0v193l178 -5v715l-178 -4 v195l180 -4v57q0 158 73 246q96 113 265 112q119 0 202 -63q57 -43 109 -142l-188 -100q-45 115 -121 115q-53 0 -76 -47q-12 -33 -12 -121v-60l209 5v-195l-211 4v-713l211 5v-193q-143 4 -326 4q-174 0 -315 -4z" />
<glyph unicode="&#xfb02;" horiz-adv-x="1298" d="M699 0v193l167 -5v1098l-165 -4v195q139 -6 213 -7q68 0 202 7v-1289l160 5v-193q-129 4 -285 4q-161 0 -292 -4zM23 0v193l178 -5v715l-178 -4v195l180 -4v57q0 158 73 246q96 113 265 112q119 0 202 -63q57 -43 109 -142l-188 -100q-45 115 -121 115q-53 0 -76 -47 q-12 -33 -12 -121v-60l209 5v-195l-211 4v-713l211 5v-193q-143 4 -326 4q-174 0 -315 -4z" />
<glyph unicode="&#xfb03;" horiz-adv-x="1990" d="M1389 0v193l172 -5v715l-170 -4v193q96 -2 215 -2q117 0 207 2v-904l157 5v-193q-190 6 -284 6q-100 0 -297 -6zM1536 1347.5q0 65.5 45 111.5t109 46q66 0 111 -46t45 -113q0 -63 -45.5 -107.5t-110.5 -44.5q-63 0 -108.5 44t-45.5 109.5zM699 0v193l178 -5v715l-178 -4 v195l180 -4v57q0 158 73 246q96 113 265 112q119 0 202 -63q57 -43 109 -142l-188 -100q-45 115 -121 115q-53 0 -76 -47q-12 -33 -12 -121v-60l209 5v-195l-211 4v-713l211 5v-193q-143 4 -326 4q-174 0 -315 -4zM23 0v193l178 -5v715l-178 -4v195l180 -4v57q0 158 73 246 q96 113 265 112q119 0 202 -63q57 -43 109 -142l-188 -100q-45 115 -121 115q-53 0 -76 -47q-12 -33 -12 -121v-60l209 5v-195l-211 4v-713l211 5v-193q-143 4 -326 4q-174 0 -315 -4z" />
<glyph unicode="&#xfb04;" horiz-adv-x="1974" d="M1375 0v193l167 -5v1098l-165 -4v195q139 -6 213 -7q68 0 202 7v-1289l160 5v-193q-129 4 -285 4q-161 0 -292 -4zM699 0v193l178 -5v715l-178 -4v195l180 -4v57q0 158 73 246q96 113 265 112q119 0 202 -63q57 -43 109 -142l-188 -100q-45 115 -121 115q-53 0 -76 -47 q-12 -33 -12 -121v-60l209 5v-195l-211 4v-713l211 5v-193q-143 4 -326 4q-174 0 -315 -4zM23 0v193l178 -5v715l-178 -4v195l180 -4v57q0 158 73 246q96 113 265 112q119 0 202 -63q57 -43 109 -142l-188 -100q-45 115 -121 115q-53 0 -76 -47q-12 -33 -12 -121v-60l209 5 v-195l-211 4v-713l211 5v-193q-143 4 -326 4q-174 0 -315 -4z" />
</font>
</defs>
</svg>
