<?xml version="1.0" standalone="no"?>
<!DOCTYPE svg PUBLIC "-//W3C//DTD SVG 1.1//EN" "http://www.w3.org/Graphics/SVG/1.1/DTD/svg11.dtd" >
<svg xmlns="http://www.w3.org/2000/svg">
<metadata>
This is a custom SVG webfont generated by Font Squirrel.
Copyright   : Copyright c 2010 by SoftMaker Software GmbH All rights reserved
Foundry     : SoftMaker Software GmbH
</metadata>
<defs>
<font id="StaffordSerialRegular" horiz-adv-x="1112" >
<font-face units-per-em="2048" ascent="1638" descent="-410" />
<missing-glyph horiz-adv-x="593" />
<glyph unicode=" "  horiz-adv-x="593" />
<glyph unicode="&#x09;" horiz-adv-x="593" />
<glyph unicode="&#xa0;" horiz-adv-x="593" />
<glyph unicode="!" horiz-adv-x="446" d="M129 -2v287h207v-287h-207zM131 946v531h205v-531l-41 -565h-129z" />
<glyph unicode="&#x22;" horiz-adv-x="716" d="M90 870v138q31 10 44 21t26 38q16 35 16 96v8l-86 -2v310h211v-299q0 -152 -65 -236q-29 -35 -59 -50.5t-87 -23.5zM416 870l2 138q31 8 43 19t24 40q16 35 17 92v12l-84 -2l-2 310h213v-299q0 -150 -68 -236q-29 -35 -58.5 -50.5t-86.5 -23.5z" />
<glyph unicode="#" horiz-adv-x="1294" d="M96 459l23 102h235l74 352h-235l20 103h238l90 430h102l-92 -430h215l90 430h100l-90 -430h236l-21 -103h-235l-76 -352h236l-21 -102h-235l-93 -430h-100l90 430h-213l-92 -430h-100l90 430h-236zM455 561h215l73 352h-213z" />
<glyph unicode="$" horiz-adv-x="1120" d="M76 1100q0 96 39 176q35 72 96 123q53 47 110.5 67.5t165.5 32.5v117h113v-123q78 -16 119 -39.5t112 -89.5l-2 133h164q-6 -154 -6 -229q0 -94 8 -234h-168q-2 123 -28 170q-51 98 -199 133v-469q180 -76 227 -100q111 -55 171.5 -153.5t60.5 -215.5q0 -168 -129 -297 q-70 -66 -140.5 -93t-189.5 -32l-2 -120l-113 2l2 131q-88 20 -132 45.5t-111 95.5l2 -151h-160q8 162 8 270q0 86 -6 260h160v-39q0 -137 49 -209q29 -41 84 -80q43 -29 106 -41v539q-150 47 -229 96q-86 51 -134 138.5t-48 185.5zM285 1130q0 -41 20.5 -86t48.5 -67 q23 -18 72 -41q8 -4 28.5 -12.5t32.5 -14.5v434q-90 -12 -135 -57q-67 -62 -67 -156zM600 133q111 8 179.5 79t68.5 177q0 68 -55 131q-35 37 -58.5 53.5t-79.5 38.5q-4 2 -12 5.5l-20 8.5l-23 9v-502z" />
<glyph unicode="%" horiz-adv-x="1501" d="M90 1104q0 172 86 286.5t215 114.5t215 -114.5t86 -286.5q0 -170 -86 -283.5t-215 -113.5t-215 113.5t-86 283.5zM248 23l899 1495l104 -60l-899 -1501zM248 1104q0 -293 143 -293q145 0 146 293q0 297 -146 297q-143 0 -143 -297zM807 367q0 174 86 287.5t217 113.5 q129 0 215 -113.5t86 -287.5q0 -170 -86 -284t-215 -114q-131 0 -217 113t-86 285zM963 367q0 -137 38.5 -215t108.5 -78q68 0 106.5 77.5t38.5 215.5q0 141 -38.5 219t-106.5 78q-70 0 -108.5 -78t-38.5 -219z" />
<glyph unicode="&#x26;" horiz-adv-x="1443" d="M59 420q0 115 52 213q45 82 107.5 133t193.5 115q-96 119 -113 178q-16 49 -16 115q0 139 98 232t244 93q141 0 243 -84q45 -39 65.5 -85t31.5 -132h-172q-18 160 -166 160q-74 0 -118 -48t-44 -128q0 -59 70 -154l432 -584q63 115 86.5 176.5t54.5 196.5q59 -2 137 -2 q74 0 137 4v-160l-159 5q-37 -117 -62.5 -174.5t-95.5 -170.5l125 -165l192 4v-158q-70 4 -153.5 4t-147.5 -4l-133 174q-74 -70 -104 -94q-133 -106 -322 -107q-195 0 -329 130.5t-134 316.5zM250 455q0 -123 91 -216.5t214 -93.5q129 0 221 80q29 25 76 74l-352 465 q-100 -51 -147.5 -91t-76.5 -100q-26 -50 -26 -118z" />
<glyph unicode="'" horiz-adv-x="391" d="M90 868v138q31 10 44 21t26 38q16 35 16 94v10l-86 -2v310h211v-299q0 -158 -65 -238q-27 -33 -57 -47.5t-89 -24.5z" />
<glyph unicode="(" horiz-adv-x="626" d="M80 764q0 295 104 528q43 96 109.5 193.5t206.5 261.5l127 -76q-197 -285 -252 -411q-92 -217 -92 -496q0 -281 92 -498q47 -117 252 -411l-127 -76q-141 166 -208 262t-108 192q-104 236 -104 531z" />
<glyph unicode=")" horiz-adv-x="624" d="M0 -147q203 301 250 415q88 213 88 496q0 285 -88 493q-49 119 -250 416l127 76q139 -168 205.5 -264t109.5 -193q102 -227 103 -528q0 -303 -103 -531q-43 -96 -109.5 -191t-205.5 -265z" />
<glyph unicode="*" horiz-adv-x="958" d="M33 1098q43 78 49 159l346 -141l-27 375q45 -12 86 -12q31 0 82 8l-34 -371l339 146q8 -74 50 -158l-361 -84l238 -287q-49 -20 -72.5 -35.5t-62.5 -54.5l-183 315l-178 -325q-43 41 -64.5 55t-70.5 39l229 289z" />
<glyph unicode="+" d="M76 637v147h407v412h148v-412h407v-147h-409l2 -412h-148l2 412h-409z" />
<glyph unicode="," horiz-adv-x="389" d="M90 0v289h209v-301q0 -154 -70 -236q-29 -35 -56.5 -48t-82.5 -21v137q31 10 43 21.5t25 39.5q16 39 16 109v12z" />
<glyph unicode="-" horiz-adv-x="638" d="M31 479v187h577l2 -187h-579z" />
<glyph unicode="." horiz-adv-x="378" d="M84 -2v291l211 -4v-287h-211z" />
<glyph unicode="/" horiz-adv-x="817" d="M39 0l565 1475h172l-563 -1475h-174z" />
<glyph unicode="0" d="M76 741q0 356 128 561t351 205q225 0 354 -204.5t129 -563.5q0 -352 -130 -559t-353 -207t-351 207t-128 561zM276 741q0 -291 73 -450.5t206 -159.5q76 0 136.5 53.5t88.5 145.5q57 176 58 413q0 287 -75 447t-208 160t-206 -160t-73 -449z" />
<glyph unicode="1" d="M242 1315v166q176 -4 198.5 -4t206.5 4v-1325l201 4v-160q-203 6 -301 6q-100 0 -299 -6v160l205 -2v1163z" />
<glyph unicode="2" d="M113 0q20 201 61 307q90 231 326 426l100 84q106 90 137 131q61 80 62 172q0 98 -61.5 162t-155.5 64q-117 0 -181.5 -85t-64.5 -245q0 -37 2 -58l-186 5q0 119 11 182t44 131q55 113 154.5 173t230.5 60q172 0 289.5 -112.5t117.5 -278.5q0 -221 -217 -387l-96 -74 q-102 -78 -182 -161q-43 -43 -84 -105q-55 -90 -88 -231l506 2v319h161q-10 -186 -10 -295q0 -106 2 -186q-287 6 -428 6q-153 0 -450 -6z" />
<glyph unicode="3" d="M70 481l178 17q6 -131 35 -199q33 -76 103.5 -120t158.5 -44q121 0 199.5 82t78.5 209q0 121 -78.5 196.5t-205.5 75.5q-16 0 -103 -8v176q27 -2 68 -2q121 0 188.5 64.5t67.5 181.5q0 104 -57.5 168.5t-151.5 64.5q-106 0 -166.5 -75.5t-60.5 -210.5l-183 8 q8 207 118 324.5t294 117.5q174 0 288.5 -109.5t114.5 -277.5q0 -96 -45 -180q-31 -61 -70.5 -93t-123.5 -61q98 -25 133 -43q80 -39 130 -128t50 -195q0 -193 -135 -321t-340 -128q-207 0 -334 117q-59 55 -96 133q-47 100 -55 260z" />
<glyph unicode="4" d="M61 569l598 918h181v-912l180 3v-148l-182 2v-276l157 4v-160q-172 6 -258 6t-268 -6l2 160l188 -4v278l-530 -2zM236 569q49 6 104 6h319v529q0 59 13 156q-49 -98 -74 -140l-297 -465q-26 -43 -65 -86z" />
<glyph unicode="5" d="M61 434l183 21q12 -141 63 -217q74 -106 211 -107q129 0 210 97.5t81 252.5q0 145 -71.5 233.5t-190.5 88.5q-55 0 -105 -19q-49 -20 -84.5 -51t-85.5 -96l-143 37l61 807q223 -8 379 -8q147 0 367 8q-4 -160 -4 -178q0 -20 4 -189h-154v205h-432l-39 -453l15 -10 q117 106 268 107q184 0 301 -133.5t117 -344.5q0 -225 -137.5 -370.5t-352.5 -145.5t-346 156q-49 61 -74 124.5t-41 184.5z" />
<glyph unicode="6" d="M109 678q0 393 131 610t368 217q203 0 316 -162q61 -88 82 -272l-183 -10q-4 113 -41 176q-59 109 -180 109q-139 0 -211 -140q-35 -66 -53 -143q-18 -76 -35 -266q43 43 49 47q125 113 273 112q174 0 283.5 -131t109.5 -338q0 -229 -122 -372.5t-318 -143.5 q-229 0 -349 180.5t-120 526.5zM305 571q0 -203 73 -320.5t197 -117.5q115 0 183.5 93t68.5 247q0 150 -65.5 236t-179.5 86q-106 0 -193 -66q-37 -31 -84 -78v-80z" />
<glyph unicode="7" d="M115 1085q4 94 4 213q0 102 -2 183q289 -6 434 -6q150 0 444 6v-162q-135 -172 -194.5 -282.5t-112.5 -293.5q-47 -160 -62.5 -272.5t-19.5 -314.5l201 4v-160q-197 6 -293 6q-102 0 -305 -6l2 160l201 -4q12 225 32.5 348t73.5 282q59 176 115.5 277.5t181.5 253.5 l-541 -2v-230h-159z" />
<glyph unicode="8" d="M74 408q0 104 41 186q37 74 86 114t153 78q-55 20 -96 39q-68 39 -108.5 117t-40.5 168q0 170 129 284.5t317 114.5q193 0 321 -114.5t128 -284.5q0 -90 -43 -172q-33 -59 -75 -91t-128 -61q61 -20 121 -55q74 -45 117.5 -133t43.5 -190q0 -193 -136 -316t-349 -123 q-211 0 -346 123t-135 316zM262 426q0 -127 84 -211t211 -84q125 0 209 83t84 208q0 129 -82 210t-213 81q-127 0 -210 -81t-83 -206zM293 1092q0 -106 72.5 -172t189.5 -66q119 0 191.5 66.5t72.5 173.5q0 111 -74.5 182.5t-189.5 71.5q-113 0 -187.5 -72.5t-74.5 -183.5z " />
<glyph unicode="9" d="M92 991q0 229 125 373.5t322 144.5q133 0 236.5 -71.5t160.5 -204.5q72 -170 72 -469q0 -365 -133.5 -578t-362.5 -213q-203 0 -315 160q-41 57 -58.5 111.5t-32.5 161.5l187 10q6 -119 39 -176q61 -104 182 -105q279 0 295 547q-74 -78 -143 -115q-86 -45 -174 -45 q-170 0 -285 134t-115 335zM281 1014q0 -150 70.5 -240t185.5 -90q102 0 190 72l80 73q2 37 2 84q0 199 -73.5 317t-198.5 118q-115 0 -185.5 -91t-70.5 -243z" />
<glyph unicode=":" horiz-adv-x="448" d="M129 -2v291l209 -4v-287h-209zM129 657v291h211v-289z" />
<glyph unicode=";" horiz-adv-x="448" d="M129 0v289h209v-301q0 -156 -68 -236q-49 -57 -141 -69v137q29 10 42 22.5t24 38.5q18 37 18 109v12zM129 657v289h211v-289h-211z" />
<glyph unicode="&#x3c;" horiz-adv-x="651" d="M39 549l348 479h221l-338 -479l340 -483h-221z" />
<glyph unicode="=" d="M63 508v129h981l3 -133zM63 885l984 -2v-129h-981z" />
<glyph unicode="&#x3e;" horiz-adv-x="657" d="M39 66l352 483l-346 481h225l348 -481l-350 -483h-229z" />
<glyph unicode="?" horiz-adv-x="946" d="M35 1012v41q0 199 122 325.5t314.5 126.5t319.5 -128t127 -320q0 -168 -107 -291q-57 -63 -118.5 -90t-178.5 -39l-12 -264h-135q-2 213 -19 430q51 -16 101 -17q119 0 193.5 78t74.5 201t-71 202t-179 79q-119 0 -182.5 -78t-63.5 -221v-39zM332 -2v287h211v-287h-211z " />
<glyph unicode="@" horiz-adv-x="1722" d="M119 788q14 233 145 412q197 264 504 301q342 39 553 -187.5t154 -574.5q-33 -190 -128.5 -307t-207.5 -133q-94 -14 -155.5 39t-53.5 133q-10 -37 -41 -74q-113 -131 -268 -61q-172 78 -158 364q4 49 8 72q31 190 137 318q109 121 226.5 118.5t173.5 -108.5 q2 -2 5 -10.5t5 -10.5l18 117l101 -2l-78 -440l-29 -179q-12 -78 4 -126q10 -37 44 -54.5t71 -3.5q49 16 117 94q80 98 106 275q45 307 -135 494.5t-469 144.5q-244 -37 -397.5 -248t-126.5 -496q6 -66 20 -114q39 -158 136.5 -271.5t222.5 -165t272 -39t283 96.5 q49 29 100 74q66 55 111 116l41 -73q-33 -41 -52 -60q-236 -248 -544 -248q-317 -2 -527.5 233.5t-187.5 583.5zM582 596q2 -76 26 -127q29 -61 95.5 -72.5t115.5 37.5q51 49 96 176q18 55 37 154l4 20l15 86q10 61 2 121q-12 74 -69.5 108t-119.5 7q-55 -23 -92 -73 t-71 -154q-20 -59 -27 -101q-16 -88 -12 -182z" />
<glyph unicode="A" horiz-adv-x="1402" d="M-33 0l2 160l162 -4l389 1165l-184 -6l2 160q246 -6 373 -7q121 0 362 7l2 -160l-180 6l389 -1167l152 6v-160q-178 6 -267 6q-92 0 -274 -6v160l174 -4l-115 364h-493l-115 -366l174 6v-160q-184 6 -276.5 6t-276.5 -6zM508 676h399l-162 520l-15 60q-11 44 -23 85 q-16 -68 -41 -145z" />
<glyph unicode="B" horiz-adv-x="1222" d="M31 0v160l176 -6v1167l-176 -6l2 160l282 -7l283 7h31q207 0 311 -60q80 -45 128 -132t48 -187q0 -90 -41 -168q-29 -59 -68.5 -90t-121.5 -58q82 -23 108 -35q82 -33 134.5 -121.5t52.5 -197.5q0 -113 -55.5 -209t-145.5 -147q-127 -70 -356 -70h-39l-265 6zM412 156h75 q20 0 51 -1t44 -1q190 0 270 57q109 72 109 223q0 131 -103 205q-76 53 -221 53h-19l-114 -2l-92 -2v-532zM412 840h98q168 0 227 12q55 10 94 51q70 70 70 178q0 240 -295 240q-49 0 -98 -2q-51 0 -94 -2z" />
<glyph unicode="C" horiz-adv-x="1503" d="M72 729q0 330 203.5 552t506.5 222q115 0 236 -45q86 -33 132 -69.5t103 -116.5l-2 225h158q-8 -156 -8 -264q0 -104 8 -258h-160q-16 82 -37.5 126t-68.5 95q-133 143 -344 143q-221 0 -360.5 -171t-139.5 -441q0 -262 137 -418.5t367 -156.5q246 0 389 188 q57 78 108 225l173 -65q-39 -109 -69 -163t-83 -116q-203 -240 -539 -239q-313 0 -511.5 208.5t-198.5 538.5z" />
<glyph unicode="D" horiz-adv-x="1470" d="M31 0v160l176 -6v1165l-176 -4v160l276 -5l311 5h21q189 0 310 -37q128 -39 231 -133q104 -96 161.5 -246t57.5 -326q0 -360 -209 -557q-184 -176 -530 -176h-23l-332 4zM412 158q164 -4 206 -4q287 0 418 145q145 160 146 428q0 274 -142 438q-72 84 -169 121t-244 37 q-82 0 -213 -6z" />
<glyph unicode="E" horiz-adv-x="1284" d="M31 0v160l176 -4v1163l-176 -4v160q395 -6 596 -7q184 0 569 7q-2 -84 -2 -195q0 -125 2 -248l-170 -2v287h-612v-492l512 2v-155l-514 2v-516l635 2v295h170q-6 -143 -7 -215q0 -80 7 -240q-393 6 -590 6t-596 -6z" />
<glyph unicode="F" horiz-adv-x="1165" d="M31 0v160l178 -4l-2 1163l-176 -4v160q375 -6 563 -7q186 0 555 7q0 -51 -1 -123t-1 -90q0 -23 4 -228h-168v283h-569v-490l413 2l2 -153l-415 2v-522l188 4l-2 -160q-127 4 -283 4q-159 0 -286 -4z" />
<glyph unicode="G" horiz-adv-x="1581" d="M74 731q0 332 205.5 553t515.5 221q129 0 239 -41q90 -35 139.5 -70.5t112.5 -119.5l-2 223h164q-10 -197 -10 -317q0 -29 4 -213h-160q-23 98 -50.5 147t-84.5 98q-147 127 -336 127q-221 0 -366.5 -169t-145.5 -427q0 -264 147.5 -433t378.5 -169q205 0 344 135 q57 55 86 118t50 179h-369v158h596q-12 -209 -59 -334q-72 -195 -249 -308.5t-409 -113.5q-322 0 -531.5 213t-209.5 543z" />
<glyph unicode="H" horiz-adv-x="1449" d="M29 0l2 160l172 -4v1163l-174 -4l2 160q250 -4 278 -5q31 0 273 5v-160l-170 4v-461h626v461l-170 -4v160q238 -4 271 -5q31 0 280 5v-160l-174 4v-1165l174 6v-160q-121 4 -274.5 4t-272.5 -4v160l166 -4v549h-626l-2 -549l168 4v-160q-119 4 -269 4q-155 0 -280 -4z " />
<glyph unicode="I" horiz-adv-x="624" d="M31 0v160l180 -4v1163l-180 -4l2 160q250 -4 276 -5q31 0 285 5v-160l-178 4v-1165l176 6v-160q-125 4 -280.5 4t-280.5 -4z" />
<glyph unicode="J" horiz-adv-x="608" d="M-133 -385l2 172q74 -27 121 -27q57 0 102 23q55 29 73.5 87t18.5 200l2 1251l-176 -6v160q250 -4 281 -5q27 0 284 5v-160l-182 4l-2 -1247q0 -141 -12 -211t-47 -127q-39 -66 -122 -104t-187 -38q-76 0 -156 23z" />
<glyph unicode="K" horiz-adv-x="1327" d="M31 0l2 160l176 -4l-2 1163l-176 -4v160q125 -4 280.5 -4.5t280.5 4.5v-160l-178 4l-2 -1163l174 4v-160q-242 4 -277 4q-28 0 -278 -4zM418 770l530 551l-153 -6v160q238 -4 268 -5q27 0 264 5v-160l-176 4l-506 -528l555 -637l148 6l2 -160q-246 4 -279 4 q-29 0 -278 -4v160l161 -6z" />
<glyph unicode="L" horiz-adv-x="1171" d="M31 0v160l176 -4v1163l-174 -4v160q250 -4 282 -5q31 0 281 5v-160l-182 4v-1163l549 2q2 82 2 190q0 74 -7 295h172q-6 -264 -6 -350q0 -164 2 -293q-356 6 -542 6q-184 0 -553 -6z" />
<glyph unicode="M" horiz-adv-x="1902" d="M31 0v160l176 -4l2 1163l-178 -4v160l253.5 -4.5t233.5 4.5l383 -1016l27 -74l24 -86l23 84l29 80l372 1012l239.5 -4.5t256.5 4.5v-160l-176 4v-1163l172 4v-160q-119 4 -273 4q-156 0 -280 -4v160l180 -4l2 979q0 33 10 155l-32 -84l-27 -65l-447 -1141h-104l-430 1114 q-29 70 -61 178l2 -106v-92v-940l174 6v-160q-119 4 -267 4q-157 0 -284 -4z" />
<glyph unicode="N" horiz-adv-x="1581" d="M31 0v160l176 -4l2 1163l-174 -4v160q205 -4 233 -5q23 0 211 5l623 -1067l37 -58l43 -88q-8 113 -8 176v881l-175 -4v160l268.5 -4.5t284.5 4.5v-160l-176 4v-1325h-235l-658 1120q-41 72 -80 154l7 -92v-84l2 -936l174 4v-160q-178 6 -269 6q-96 0 -286 -6z" />
<glyph unicode="O" horiz-adv-x="1593" d="M74 739q0 340 201.5 553t521.5 213q322 0 524.5 -213t202.5 -551t-203 -552t-524 -214q-319 0 -521 214t-202 550zM299 741.5q0 -268.5 139.5 -439.5t358.5 -171q221 0 361 170t140 440q0 268 -140 438.5t-361.5 170.5t-359.5 -170t-138 -438.5z" />
<glyph unicode="P" horiz-adv-x="1179" d="M31 0v160l178 -4v1163l-174 -4v160l284 -5l271 5h26q246 0 375 -89q84 -55 131 -152t47 -212q0 -117 -49 -215t-135 -158q-70 -47 -150 -64q-72 -16 -205 -16h-32l-184 2v-417l180 6l2 -160q-127 4 -281 4q-157 0 -284 -4zM414 727q80 -6 176 -6q360 0 360 299 q0 154 -86 227.5t-266 73.5q-66 0 -184 -6v-588z" />
<glyph unicode="Q" horiz-adv-x="1593" d="M74 739q20 238 68 360t167 228q197 178 488 178q322 0 524.5 -213t202.5 -551q0 -369 -240 -585q-82 -76 -151.5 -109t-202.5 -59l65 -33l74 -27q100 -37 143 -37q49 0 193 39l6 -166q-147 -27 -211 -26q-20 0 -61 4q-90 12 -226 78q-145 70 -204 69q-35 0 -70 -14 q-43 -12 -125 -70l-88 115q72 57 145 86q-96 33 -145 60.5t-117 89.5q-121 113 -168 231.5t-67 351.5zM299 741.5q0 -268.5 139.5 -439.5t358.5 -171q221 0 361 170t140 440q0 268 -140 438.5t-361.5 170.5t-359.5 -170t-138 -438.5z" />
<glyph unicode="R" horiz-adv-x="1259" d="M31 0v160l176 -4v1163l-174 -4v160q254 -4 284 -5q16 0 299 5q18 2 58 2q123 0 186.5 -12.5t128.5 -49.5q80 -45 125 -131t45 -190q0 -109 -45 -197q-41 -76 -95 -111.5t-161 -60.5l297 -571l158 6v-160q-131 4 -150 4q-20 0 -155 -4l-353 700h-243v-544l180 4v-160 q-186 6 -277 6q-94 0 -284 -6zM414 858q135 -6 194 -6q154 0 230 39q100 55 100 199q0 131 -86 184q-72 45 -248 45q-104 0 -190 -2v-459z" />
<glyph unicode="S" horiz-adv-x="1116" d="M74 1085q0 180 120.5 298t307.5 118q88 0 162 -28q78 -31 172 -117v141h157q-6 -154 -6 -225q0 -80 6 -238h-145q-6 117 -37 170q-37 63 -116 104.5t-165 41.5q-106 0 -176.5 -64.5t-70.5 -161.5q0 -78 51 -133q35 -27 67 -47q61 -37 211 -90q131 -43 217 -88 q227 -117 228 -358q0 -184 -128 -308.5t-321 -124.5q-72 0 -151 23q-70 20 -112 48t-105 93l2 -159h-156q6 180 6 270q0 86 -6 260h158v-31q0 -147 47 -217q43 -59 120.5 -97t161.5 -38q119 0 194 71.5t75 182.5q0 94 -68 158q-37 33 -76 55q-55 29 -202 80 q-170 57 -242 100q-180 106 -180 311z" />
<glyph unicode="T" horiz-adv-x="1236" d="M20 938q6 227 7 299q0 135 -2 238q528 -4 596 -5q63 0 600 5q-8 -242 -9 -277q0 -31 3.5 -118t3.5 -142h-162v379l-330 -2l2 -1161l219 6l-2 -160q-143 4 -319 4q-184 0 -330 -4l2 160l221 -4l-2 1159l-334 2l-2 -379h-162z" />
<glyph unicode="U" horiz-adv-x="1392" d="M25 1317v160q180 -6 276 -7q92 0 274 7l-2 -160l-163 4v-821q0 -123 11 -173.5t52 -97.5q80 -90 225.5 -90t225.5 90q37 41 48 94.5t11 176.5v821l-164 -4v160q178 -6 271 -7q94 0 278 7v-160l-176 4l-2 -827q0 -152 -27.5 -238t-97.5 -154q-135 -131 -365 -131 q-225 0 -372 131q-70 63 -98.5 150.5t-28.5 241.5l2 827z" />
<glyph unicode="V" horiz-adv-x="1284" d="M-59 1315v160q242 -4 274 -5q29 0 266 5v-160l-164 4l287 -918l25 -77l22 -101l21 101l20 75l289 920l-162 -4v160q225 -4 256 -4.5t268 4.5v-160l-157 4l-428 -1327h-209l-455 1327z" />
<glyph unicode="W" horiz-adv-x="2041" d="M-43 1315v160q242 -4 268 -5q31 0 264 5v-158l-159 4l241 -920q25 -100 33 -157q14 74 39 170l246 907l-182 -6l2 160q283 -4 319 -5q33 0 315 5v-160l-186 6l238 -905l20 -80l21 -90l14 92l18 68l248 915l-164 -8v162q233 -4 263 -5q33 0 270 5v-160l-162 4l-375 -1327 h-227l-262 1016l-21 75l-16 97l-14 -93l-21 -73l-272 -1022h-219l-377 1327z" />
<glyph unicode="X" horiz-adv-x="1443" d="M0 0l2 162l174 -6l393 594l-381 571l-180 -4v160q190 -6 285 -7q100 0 293 7v-162l-148 6l221 -348q41 -66 68 -164q23 98 64 164l219 348l-152 -6v162q197 -6 295 -7q88 0 264 7v-162l-178 6l-371 -567l381 -598l195 4v-160q-195 6 -289 6q-98 0 -285 -6v162l148 -6 l-244 381q-39 61 -59 141q-31 -96 -58 -135l-245 -387l149 4v-160q-184 6 -278 6q-93 0 -283 -6z" />
<glyph unicode="Y" horiz-adv-x="1261" d="M-63 1315l2 162q188 -6 282 -7q94 0 281 7v-162l-156 6l238 -436q31 -53 49 -117l26 72l31 55l240 426l-156 -6v162q188 -6 278.5 -6.5t274.5 6.5v-162l-164 6l-428 -698l-2 -467l189 4v-160q-197 6 -297 6q-96 0 -287 -6v162l186 -6l2 469l-417 696z" />
<glyph unicode="Z" horiz-adv-x="1120" d="M31 0v160l717 1071q33 49 81 96q-72 -12 -124 -12l-463 2v-299h-160q4 209 4 235q0 23 -4 224q272 -4 549 -4q236 0 416 2v-158l-711 -1063q-35 -51 -94 -107q78 12 141 13h520v313h162q-4 -100 -4 -229q0 -135 4 -244q-340 6 -514 6t-520 -6z" />
<glyph unicode="[" horiz-adv-x="487" d="M119 -193v1862q119 -6 178 -6q63 0 186 6v-160l-166 2v-1548l166 4v-160q-164 4 -186 5q-98 -1 -178 -5z" />
<glyph unicode="\" horiz-adv-x="657" d="M96 1475h156l260 -1475h-158z" />
<glyph unicode="]" horiz-adv-x="487" d="M6 -33l166 -4v1548l-166 -2v160q123 -6 184 -6q59 0 177 6v-1862q-76 4 -177 5q-20 0 -184 -5v160z" />
<glyph unicode="^" horiz-adv-x="577" d="M-2 1184l219 293h143l222 -293h-162l-131 166l-131 -166h-160z" />
<glyph unicode="_" horiz-adv-x="1005" d="M96 0h738v-61h-738v61z" />
<glyph unicode="`" horiz-adv-x="385" d="M-37 1481h203l141 -295h-149z" />
<glyph unicode="a" horiz-adv-x="1140" d="M70 332q0 156 107.5 254t279.5 98q137 0 307 -88l2 143q2 115 -62.5 173.5t-187.5 58.5q-193 0 -262 -162l-170 39q33 70 58.5 104.5t72.5 69.5q121 92 311.5 92t313.5 -88q59 -45 83.5 -107.5t24.5 -170.5l-2 -603l166 7v-152q-152 4 -174 4q-16 0 -176 -4v129 q-78 -72 -154 -106q-98 -43 -180 -43q-158 0 -258 99t-100 253zM256 332q0 -90 59.5 -148.5t151.5 -58.5q59 0 131 31q70 31 166 114v191q-90 47 -172 69q-61 16 -107 17q-102 0 -165.5 -59.5t-63.5 -155.5z" />
<glyph unicode="b" horiz-adv-x="1288" d="M25 0v152l165 -7l3 1184l-166 -2v150q80 -4 180 -4q96 0 174 4l-2 -564q27 45 43 64q53 63 139 100t180 37q209 0 343.5 -157.5t134.5 -405.5q0 -246 -138.5 -407.5t-347.5 -161.5q-102 0 -192 43q-55 27 -90 61.5t-80 108.5l2 -195q-152 4 -174 4q-18 0 -174 -4z M373 557q0 -207 92 -311q96 -102 233 -103q145 0 234.5 113t89.5 293q0 182 -88 292.5t-232 110.5q-139 0 -237 -104q-92 -101 -92 -291z" />
<glyph unicode="c" horiz-adv-x="1167" d="M72 545q0 244 148.5 407.5t371.5 163.5q94 0 182 -39q86 -35 170 -127l-4 160h152q-6 -147 -7 -219q0 -76 7 -223h-154q-20 129 -88 190q-98 92 -242 92q-152 0 -247 -111.5t-95 -289.5q0 -184 99.5 -296t263.5 -112q141 0 237 84q53 45 109 152l151 -76 q-41 -78 -71.5 -117t-79.5 -82q-150 -125 -354 -125q-242 0 -395.5 159t-153.5 409z" />
<glyph unicode="d" horiz-adv-x="1304" d="M74 545q0 246 138 407.5t353 161.5q98 0 191 -43q53 -25 89 -57.5t83 -100.5v418l-170 -4v148q156 -4 176 -5q61 0 180 7l-2 -1334l168 9l-2 -152q-156 4 -176 4q-16 0 -176 -4v190q-27 -47 -45 -65q-51 -68 -137.5 -106.5t-182.5 -38.5q-215 0 -351 158.5t-136 406.5z M268 543q0 -180 91.5 -293t236.5 -113q154 0 244 112.5t90 303.5q0 193 -94 293q-94 104 -238 104q-147 0 -238.5 -112.5t-91.5 -294.5z" />
<glyph unicode="e" horiz-adv-x="1208" d="M74 541q0 250 152.5 412.5t385.5 162.5q256 0 408 -184q70 -82 95.5 -176t29.5 -269l-891 2q12 -104 33.5 -158.5t72.5 -105.5q100 -100 267 -100q139 0 250 78q68 49 122 137l152 -70q-49 -70 -81 -104.5t-85 -73.5q-156 -117 -362 -117q-248 0 -397.5 155t-151.5 411z M254 633l702 -2q-20 145 -82 219q-100 121 -266 121q-154 0 -256 -115q-41 -45 -61.5 -91t-36.5 -132z" />
<glyph unicode="f" horiz-adv-x="620" d="M29 0v152l178 -7l2 805l-180 -6v150l182 -4v79q0 90 11 135.5t46 88.5q88 113 248 112q127 0 205 -84q47 -47 76 -145l-144 -64q-31 152 -137 152q-70 0 -106 -61q-18 -41 -19 -134v-79l211 4v-150l-211 4v-805l209 4l2 -147q-131 4 -293 4q-155 0 -280 -4z" />
<glyph unicode="g" horiz-adv-x="1288" d="M70 553q0 242 138 402.5t345 160.5q102 0 197 -49q53 -29 86.5 -58.5t83.5 -97.5v181q152 -4 174 -4.5t174 4.5v-152l-166 8v-893q0 -225 -130 -345t-378 -120q-164 0 -287 54q-72 31 -166 100l105 123q72 -57 141 -84q90 -37 182 -37q170 0 262.5 84t92.5 240v131 q-39 -72 -69 -107t-83 -67q-102 -59 -219 -60q-213 0 -348 164t-135 422zM266 528q0 -178 91.5 -292.5t226.5 -114.5q152 0 244 119.5t92 316.5q0 182 -89.5 290.5t-240.5 108.5q-147 0 -235.5 -110.5t-88.5 -292.5v-25z" />
<glyph unicode="h" horiz-adv-x="1212" d="M25 0l2 147l166 -4v1188l-162 -4l-2 150q80 -4 180 -4q94 0 172 4l-2 -529l63 62q125 109 285 108q154 0 238 -100q39 -43 50 -93.5t11 -166.5v-615l160 4v-147q-221 4 -250 4t-258 -4v147l162 -2v580q0 80 -6.5 109.5t-26.5 58.5q-39 57 -133 57q-55 0 -103 -20 q-37 -12 -73 -37q-43 -29 -119 -107v-643l162 4v-147q-168 6 -250 6q-90 0 -266 -6z" />
<glyph unicode="i" horiz-adv-x="585" d="M39 0v152l174 -9v803l-170 -6v152q82 -2 180.5 -2t175.5 2v-949l164 9l2 -152q-176 6 -260 6q-88 0 -266 -6zM174 1337q0 53 37 91t90 38q51 0 88 -37.5t37 -91t-37 -89.5t-90 -36t-89 37t-36 88z" />
<glyph unicode="j" horiz-adv-x="493" d="M-129 -403l10 155q86 -16 109 -16q61 0 114 26q45 23 61.5 75t16.5 173v936l-178 -6v152q168 -4 189 -5q23 0 174 5l-2 -1076q0 -139 -8.5 -190t-39.5 -105q-80 -133 -309 -133q-67 1 -137 9zM143 1339q0 53 37 90t90 37q51 0 87 -37.5t36 -91.5q0 -49 -37 -87t-88 -38 t-88 38t-37 89z" />
<glyph unicode="k" horiz-adv-x="1177" d="M25 0v152l163 -7l2 1184l-163 -6v154q121 -6 180 -7q55 0 170 7v-893l444 370l-172 -4v142q182 -6 275 -7q88 0 262 7l-2 -144l-127 4l-461 -368l461 -439l166 7v-152q-127 4 -141.5 4t-141.5 -4l-565 567v-420l164 5v-152q-174 6 -258 6t-256 -6z" />
<glyph unicode="l" horiz-adv-x="569" d="M25 0v152l170 -7l2 1186l-170 -4v150q121 -6 182 -7q55 0 172 7v-1332l164 7l-2 -152q-113 4 -254 4q-147 0 -264 -4z" />
<glyph unicode="m" horiz-adv-x="1845" d="M39 940v152q160 -4 180 -5q18 0 178 5v-144q90 90 176 129q80 37 162 37q207 0 273 -166q45 45 75 68q123 100 277 100q152 0 231 -90q39 -39 52.5 -95.5t13.5 -166.5v-621l162 4l2 -147q-113 4 -254 4q-143 0 -260 -4v147l161 -2l2 574q0 88 -6 117.5t-32 60.5 q-43 49 -123 49q-37 0 -84 -14q-37 -10 -82 -35q-51 -33 -115 -100v-654l166 4v-147q-117 4 -258 4t-256 -4l2 147l162 -2l-2 574q0 82 -6.5 112.5t-28.5 59.5q-49 55 -135 55q-133 0 -279 -162v-641l168 4l-4 -147q-113 4 -254 4q-143 0 -260 -4v147l166 -4v803z" />
<glyph unicode="n" horiz-adv-x="1228" d="M39 0v147l170 -4v803l-166 -6l2 152q160 -4 176 -5q20 0 172 5v-146q35 35 76 66q125 102 274 102q147 0 232 -88q41 -45 53 -94t12 -176v-613l162 4v-147q-111 4 -250 4q-143 0 -258 -4l-2 147l162 -2v576q0 82 -6 111.5t-29 58.5q-47 53 -135 53q-45 0 -100 -20 q-43 -18 -74 -41q-57 -35 -117 -103l-2 -637l164 4l-2 -147q-113 4 -252 4q-145 0 -262 -4z" />
<glyph unicode="o" horiz-adv-x="1196" d="M76 547q0 250 146.5 410.5t375.5 160.5t375.5 -160.5t146.5 -410.5t-146.5 -411t-375.5 -161t-375.5 161t-146.5 411zM272 546.5q0 -186.5 90.5 -299t235.5 -112.5t235.5 112.5t90.5 299t-89.5 300.5t-236.5 114t-236.5 -114t-89.5 -300.5z" />
<glyph unicode="p" horiz-adv-x="1300" d="M25 -389l2 149l170 -4v1192l-166 -8v152q164 -4 184 -5q16 0 168 5l-2 -195q31 51 45 66q51 72 139 113.5t185 41.5q207 0 342 -159.5t135 -403.5q0 -250 -137.5 -414t-346.5 -164q-86 0 -176 39q-66 29 -103.5 65t-82.5 112v-439l172 6v-149q-117 4 -260 4 q-149 0 -268 -4zM379 537q0 -20 2 -29q6 -160 97 -262.5t229 -102.5q145 0 235 111t90 289q0 180 -90 292.5t-233 112.5q-145 0 -237.5 -114.5t-92.5 -296.5z" />
<glyph unicode="q" horiz-adv-x="1288" d="M72 545q0 246 139 409.5t346 163.5q94 0 178 -37q63 -29 99 -64.5t84 -113.5l-5 189q156 -4 177 -5q16 0 172 5v-152l-166 6v-1190l170 4v-149q-172 6 -256 6q-86 0 -265 -6v149l166 -4v432q-37 -63 -66.5 -95t-82.5 -60q-96 -51 -207 -51q-211 0 -347 158.5t-136 404.5z M266 516q0 -164 93.5 -267.5t236.5 -103.5t230 108.5t87 291t-88 294t-231 111.5q-145 0 -236.5 -114.5t-91.5 -298.5v-21z" />
<glyph unicode="r" horiz-adv-x="747" d="M31 0v147l184 -2l-2 801l-182 -6v152q80 -2 180 -2q98 0 178 2l-2 -267q39 90 70.5 132t93.5 83q57 37 106.5 51.5t139.5 18.5v-192h-21q-184 0 -281.5 -115t-97.5 -328v-330l213 7v-152q-193 6 -293 6q-91 0 -286 -6z" />
<glyph unicode="s" horiz-adv-x="989" d="M63 -16q0 43 3.5 112.5t3.5 91.5q0 25 -3.5 91.5t-3.5 107.5h152v-10q0 -92 41 -144q41 -53 111.5 -83.5t150.5 -30.5q100 0 165 48t65 126q0 63 -49.5 102t-155.5 62l-101 22q-10 2 -90 23q-70 20 -88 26q-92 33 -143 106t-51 167q0 139 98 228t250 89q63 0 131 -18 q82 -23 164 -94l4 104h153q-6 -139 -6 -207q0 -100 4 -176l-151 4v8q0 59 -9.5 88t-35.5 62q-84 90 -228 90q-92 0 -146 -44t-54 -118q0 -70 49 -104q31 -23 59 -31q90 -29 168 -45l92 -21q123 -27 197 -69q121 -74 121 -225q0 -150 -109.5 -247.5t-279.5 -97.5 q-78 0 -142 21q-59 16 -97 39.5t-89 75.5l6 -129h-156z" />
<glyph unicode="t" horiz-adv-x="602" d="M25 940l2 156l155 -4l-2 213l185 57v-270l225 4l-4 -152l-224 6l3 -647q0 -84 16 -113q20 -43 94 -43q43 0 109 25v-156q-80 -33 -158 -32q-133 0 -201 73q-29 33 -37 72t-8 137v682z" />
<glyph unicode="u" horiz-adv-x="1206" d="M25 940l2 152q78 -4 172 -5q96 0 174 5v-730q0 -86 6 -115.5t31 -56.5q43 -43 129 -43q57 0 125 29q80 35 167 135v635l-165 -6v152q160 -4 180 -5q23 0 174 5l-2 -949l164 4v-147q-156 4 -174 4q-20 0 -177 -4v154q-53 -57 -87.5 -84t-90.5 -52q-92 -41 -170 -41 q-129 0 -221 82q-47 43 -62.5 94.5t-15.5 161.5l2 631z" />
<glyph unicode="v" horiz-adv-x="1069" d="M-57 944v148q225 -4 254 -5q25 0 241 5l-2 -148l-145 4l201 -629l20 -63l23 -90l22 92l23 64l204 626l-145 -4v148q213 -4 238 -5q29 0 249 5v-148l-141 4l-350 -958h-199l-352 958z" />
<glyph unicode="w" horiz-adv-x="1693" d="M-35 944v150q106 -4 236 -4q127 0 229 4v-150l-133 2l160 -600q4 -14 28 -166q2 47 11 86q0 4 3 15l8 26q5 16 9 33l174 606l-119 -2v148q123 -2 277 -2q156 0 278 4v-148h-125l170 -598q27 -88 35 -166q16 119 29 166l164 598l-133 -2v150q100 -4 225 -4q131 0 238 4 v-150l-138 2l-284 -956h-207l-219 747q-20 70 -33 183q-10 -92 -33 -166l-231 -764h-203l-279 956z" />
<glyph unicode="x" horiz-adv-x="1181" d="M-8 0l2 147l149 -2l303 422l-264 379l-137 -6v152q221 -4 250 -5q131 0 235 5l-2 -152l-125 4l152 -231q29 -43 41 -86q14 49 41 86l158 231l-123 -4v152q221 -4 250 -5q23 0 227 5v-154l-135 8l-264 -364l299 -439l143 4v-147q-111 4 -248 4t-246 -4v152l127 -7 l-178 267q-25 37 -45 98q-25 -61 -51 -98l-191 -271l136 6v-147q-168 6 -256 6q-82 0 -248 -6z" />
<glyph unicode="y" horiz-adv-x="1075" d="M-43 940v152q225 -4 252 -5q25 0 237 5v-152l-141 6l203 -559l18 -57l25 -74l22 74l23 71l186 545l-143 -6l4 152q154 -6 236 -7q84 0 245 7l2 -152l-143 6l-498 -1335q-176 4 -200 4q-109 0 -197 -4v160l256 -4l105 307l-349 872z" />
<glyph unicode="z" horiz-adv-x="1026" d="M59 0v147l592 719q39 45 88 88l-67 -4h-56l-366 -2v-235h-150q4 90 4 209q0 94 -2 170q377 -4 422 -5q47 0 428 5l2 -154l-587 -711q-61 -70 -86 -94q76 8 125 8h403l2 236h147q-6 -131 -6 -203q0 -18 4 -174q-297 6 -446 6q-154 0 -451 -6z" />
<glyph unicode="{" horiz-adv-x="700" d="M96 737q55 4 92 44t37 104v676q0 145 166 145h160v-92h-25q-72 0 -95 -23.5t-23 -95.5v-594q0 -63 -41 -110.5t-105 -53.5q63 -6 104.5 -53t41.5 -111v-593q0 -72 23.5 -95.5t94.5 -23.5h25v-92h-160q-166 0 -166 145v676q0 63 -37 103t-92 44z" />
<glyph unicode="|" horiz-adv-x="376" d="M96 0v1475h156v-1475h-156z" />
<glyph unicode="}" horiz-adv-x="700" d="M96 -139h25q72 0 95.5 23.5t23.5 95.5v593q0 63 41 110.5t104 53.5q-63 6 -104 53.5t-41 110.5v594q0 72 -23.5 95.5t-95.5 23.5h-25v92h160q166 0 166 -145v-676q0 -63 37 -103.5t92 -44.5q-55 -4 -92 -44t-37 -103v-676q0 -145 -166 -145h-160v92z" />
<glyph unicode="~" horiz-adv-x="688" d="M-2 1554q8 98 28.5 147.5t67.5 90.5q53 43 117 43q59 0 111 -41l45 -37l43 -28q49 -33 75 -33q74 0 86 133h121q-8 -94 -27.5 -142.5t-60.5 -84.5q-51 -47 -121 -48q-92 0 -200 97q-51 43 -76 43q-39 0 -58.5 -31t-29.5 -109h-121z" />
<glyph unicode="&#xa1;" horiz-adv-x="446" d="M129 2v528l41 566h129l35 -566v-528h-205zM129 1194v287h207v-289z" />
<glyph unicode="&#xa2;" horiz-adv-x="1167" d="M72 545q0 240 145 403q68 78 136.5 112t201.5 56v137l109 -2v-137q104 -20 155 -51t125 -113l-4 160h152q-6 -152 -6.5 -225.5t6.5 -216.5h-154q-12 74 -30.5 113.5t-57.5 76.5q-61 59 -186 90l-2 -805q135 20 204 82q61 57 111 152l149 -76q-41 -78 -70.5 -117 t-80.5 -82q-70 -59 -132.5 -83.5t-180.5 -38.5v-132h-109v134q-117 18 -179.5 44.5t-125.5 88.5q-176 164 -176 430zM264 553q0 -188 111 -305q43 -45 76.5 -64.5t101.5 -36.5l2 799q-78 -14 -116 -36.5t-87 -84.5q-88 -110 -88 -272z" />
<glyph unicode="&#xa3;" horiz-adv-x="1193" d="M70 209q0 92 61.5 156.5t149.5 64.5q59 0 149 -45v18q0 72 -11 115t-61 154l-276 -4v143l209 -2q-39 88 -53 137q-27 78 -27 154q0 172 124 285.5t310 113.5q166 0 273 -88q57 -45 96 -125q43 -86 45 -223l-193 -14q-6 104 -28 159q-23 57 -76 92t-119 35 q-90 0 -145.5 -58t-55.5 -155q0 -57 27 -141q25 -70 70 -170l325 2l-2 -141h-280q35 -139 34 -213q0 -55 -16 -160q49 -41 115 -84q47 -31 94 -31q31 0 68 19q45 29 64.5 77t21.5 140l159 -29q-10 -113 -29.5 -173t-60.5 -116q-90 -125 -219 -125q-113 0 -278 152 q-96 -150 -232 -149q-100 0 -166.5 66.5t-66.5 162.5zM207 211q0 -41 25.5 -67.5t64.5 -26.5q86 0 129 123q-66 63 -127 63q-41 0 -66.5 -26.5t-25.5 -65.5z" />
<glyph unicode="&#xa4;" horiz-adv-x="1013" d="M96 436l127 125q-57 80 -58 178.5t56 178.5l-123 118q25 37 64 72l127 -127q80 59 179 60t179 -58l125 127q35 -29 55 -53q0 -2 6.5 -9.5t8.5 -11.5l-127 -118q57 -80 57 -179.5t-59 -179.5l127 -127l-15 -16l-16 -15q-25 -25 -39 -34l-123 127q-80 -59 -179 -59.5 t-177 59.5l-129 -125q-35 24 -66 67zM264 737q0 -84 60.5 -143t144.5 -59t143.5 59t59.5 143t-59.5 143.5t-143.5 59.5t-144.5 -59.5t-60.5 -143.5z" />
<glyph unicode="&#xa5;" horiz-adv-x="1470" d="M39 1315v162q195 -6 287 -6.5t280 6.5v-162l-157 6l239 -436q20 -33 49 -117l25 72l33 55l237 426l-153 -6v162q184 -6 276 -7q94 0 275 7v-162l-164 6l-322 -526h311v-123h-387l-28 -49v-41h415v-125h-415l-2 -301l188 4v-160q-197 6 -297 6q-96 0 -287 -6v162l187 -6 l2 301h-414l2 125h414l-2 43l-25 47h-387v123h307l-313 526z" />
<glyph unicode="&#xa7;" horiz-adv-x="1159" d="M74 596q0 90 43 161.5t153 164.5q-84 59 -111.5 107t-27.5 136q0 152 123 246t324 94q227 0 370 -137q47 -47 69.5 -104.5t31.5 -161.5h-197q-12 113 -64 174q-80 92 -217 92q-96 0 -159.5 -50t-63.5 -126q0 -59 32 -96t124 -82l325 -158q258 -125 258 -348 q0 -102 -43 -172t-155 -150q84 -57 111.5 -104t27.5 -133q0 -170 -126 -268.5t-345 -98.5q-254 0 -371 144q-43 53 -60 108t-28 162h197q4 -74 17.5 -113t43.5 -78q70 -86 209 -86q109 0 178.5 55.5t69.5 141.5q0 55 -27.5 90t-99.5 70l-352 168q-260 125 -260 352zM266 623 q0 -57 34 -105.5t91 -75.5l363 -170q78 51 109.5 96.5t31.5 102.5q0 123 -160 201l-325 157q-63 -47 -89 -73.5t-40 -63.5q-15 -28 -15 -69z" />
<glyph unicode="&#xa8;" horiz-adv-x="520" d="M-57 1307q0 47 33.5 81.5t78.5 34.5q49 0 84 -34.5t35 -83.5q0 -47 -35 -80t-84 -33q-47 0 -79.5 33t-32.5 82zM346 1305q-2 49 34 83.5t85 34.5q45 0 79 -34.5t34 -81.5q0 -49 -33 -82t-80 -33q-49 0 -84 33t-35 80z" />
<glyph unicode="&#xa9;" horiz-adv-x="1908" d="M119 739.5q0 317.5 223 540.5t540.5 223t541 -223t223.5 -540.5t-223.5 -541t-541 -223.5t-540.5 223.5t-223 541zM221 739q0 -276 197 -477q193 -193 466 -192.5t466 192.5q195 199 194.5 476.5t-194.5 475.5q-195 195 -467.5 195t-464.5 -195q-197 -201 -197 -475z M416.5 657q-19.5 125 32.5 258q61 168 214.5 255t337.5 55q133 -23 238 -111l-61 -90q-82 72 -181 90q-184 37 -322 -81t-136 -310q0 -39 6 -76q18 -94 79.5 -166.5t142.5 -107.5t177 -30t180 58q27 18 50 37l63 -88q-131 -111 -317 -117q-131 -4 -243 52.5t-176.5 151.5 t-84 220z" />
<glyph unicode="&#xaa;" horiz-adv-x="987" d="M102 1061q-25 129 26.5 238.5t150 161.5t206.5 30q117 -27 179 -125l10 -16l6 -15v140h135l2 -678h-137v149l-6 -16q-35 -96 -145.5 -133t-229.5 10q-162 66 -197 254zM117 571v125h700v-125h-700zM236 1139q0 -25 6 -47q18 -98 94 -152q59 -39 125.5 -39t124.5 41 q74 53 92 148q10 49 0 98q-25 123 -127 170q-90 41 -178 2q-109 -49 -133 -178q-4 -29 -4 -43z" />
<glyph unicode="&#xab;" horiz-adv-x="985" d="M39 549l338 534h209l-330 -534l330 -539h-207zM399 549l336 534h211l-330 -534l330 -539h-207z" />
<glyph unicode="&#xac;" horiz-adv-x="1284" d="M96 737v156h996v-451h-129v295h-867z" />
<glyph unicode="&#xad;" horiz-adv-x="638" d="M31 479v187h577l2 -187h-579z" />
<glyph unicode="&#xae;" horiz-adv-x="1908" d="M119 739.5q0 317.5 223 540.5t540.5 223t541 -223t223.5 -540.5t-223.5 -541t-541 -223.5t-540.5 223.5t-223 541zM221 739q0 -276 197 -477q193 -193 466 -192.5t466 192.5q195 199 194.5 476.5t-194.5 475.5q-195 195 -467.5 195t-464.5 -195q-197 -201 -197 -475z M643 268v961h225q143 0 215 -58q68 -55 86 -147q23 -127 -36.5 -212t-176.5 -101q-6 0 -16 -1t-16 -1l301 -441h-146l-313 473v-473h-123zM766 782h80q201 0 205 170q2 82 -48.5 128t-144.5 46h-92v-344z" />
<glyph unicode="&#xaf;" horiz-adv-x="604" d="M-2 1210v129l606 -2v-127h-606z" />
<glyph unicode="&#xb1;" horiz-adv-x="1216" d="M90 39v139h946v-139h-946zM90 539v139h404v250h139v-250h403v-139h-403v-250h-139v250h-404z" />
<glyph unicode="&#xb2;" d="M113 0q20 201 61 307q90 231 326 426l100 84q106 90 137 131q61 80 62 172q0 98 -61.5 162t-155.5 64q-117 0 -181.5 -85t-64.5 -245q0 -37 2 -58l-186 5q0 119 11 182t44 131q55 113 154.5 173t230.5 60q172 0 289.5 -112.5t117.5 -278.5q0 -221 -217 -387l-96 -74 q-102 -78 -182 -161q-43 -43 -84 -105q-55 -90 -88 -231l506 2v319h161q-10 -186 -10 -295q0 -106 2 -186q-287 6 -428 6q-153 0 -450 -6z" />
<glyph unicode="&#xb3;" d="M70 481l178 17q6 -131 35 -199q33 -76 103.5 -120t158.5 -44q121 0 199.5 82t78.5 209q0 121 -78.5 196.5t-205.5 75.5q-16 0 -103 -8v176q27 -2 68 -2q121 0 188.5 64.5t67.5 181.5q0 104 -57.5 168.5t-151.5 64.5q-106 0 -166.5 -75.5t-60.5 -210.5l-183 8 q8 207 118 324.5t294 117.5q174 0 288.5 -109.5t114.5 -277.5q0 -96 -45 -180q-31 -61 -70.5 -93t-123.5 -61q98 -25 133 -43q80 -39 130 -128t50 -195q0 -193 -135 -321t-340 -128q-207 0 -334 117q-59 55 -96 133q-47 100 -55 260z" />
<glyph unicode="&#xb4;" horiz-adv-x="374" d="M78 1184l158 295h206l-217 -295h-147z" />
<glyph unicode="&#xb5;" horiz-adv-x="1275" d="M150 -285q0 4 1 19.5t2 43t1 56.5q4 131 4 182q0 117 -2 207q-4 180 -4 195v502h188v-607q0 -145 28.5 -194t102.5 -49q117 -2 195 163q78 168 77 420v267h189v-672q0 -92 18 -135q18 -41 60 -43q41 0 65 43q23 41 23 125v28h43q0 -10 2 -18v-27q0 -115 -49 -178 q-45 -61 -136 -61q-98 -2 -155 88q-49 82 -53 264q-47 -182 -125 -266q-78 -82 -199 -86q-90 0 -150 53q-57 51 -81 158q0 -4 -1 -23.5t-1 -34.5q-2 -127 65 -289q66 -160 66 -188q0 -41 -22.5 -63.5t-63.5 -22.5q-45 -2 -68 35q-16 28 -20 108z" />
<glyph unicode="&#xb6;" horiz-adv-x="1318" d="M96 1075q0 166 116 283t280 117h632v-107h-632q-121 0 -205 -87t-82 -210q2 -121 86 -205t201 -84h141v496h112v-1278h-112v676h-141q-164 0 -280 116.5t-116 282.5zM881 0v1278h112v-1278h-112z" />
<glyph unicode="&#xb7;" horiz-adv-x="440" d="M115 385v291h211v-291h-211z" />
<glyph unicode="&#xb8;" horiz-adv-x="241" d="M51 -473l2 108q43 12 63.5 39t22.5 78l-82 -4v172h187v-160q0 -92 -68 -163q-41 -45 -125 -70z" />
<glyph unicode="&#xb9;" d="M242 1315v166q176 -4 198.5 -4t206.5 4v-1325l201 4v-160q-203 6 -301 6q-100 0 -299 -6v160l205 -2v1163z" />
<glyph unicode="&#xba;" horiz-adv-x="987" d="M96 1141q0 25 8 73q35 172 183.5 252t312.5 11q117 -47 177.5 -162t33.5 -248q-23 -109 -98.5 -186.5t-182.5 -98.5q-74 -16 -145 0q-109 20 -184.5 98t-98.5 187q-6 37 -6 74zM109 571v125h698v-125h-698zM233 1141q0 -29 3 -43q23 -125 129 -174q102 -47 198 6t115 166 q12 74 -12.5 138t-79.5 103q-106 76 -221 23q-106 -49 -129 -174q-3 -14 -3 -45z" />
<glyph unicode="&#xbb;" horiz-adv-x="991" d="M39 10l342 539l-336 534h211l338 -534l-342 -539h-213zM399 10l340 539l-336 534h213l336 -534l-342 -539h-211z" />
<glyph unicode="&#xbf;" horiz-adv-x="946" d="M31 422q0 172 106 291q57 63 117.5 89.5t177.5 39.5l10 266h136q2 -190 22 -434q-61 18 -104 18q-119 0 -194 -77.5t-75 -200.5q0 -125 71 -203t181 -78q119 0 182.5 79t63.5 224v33l184 -2q2 -12 2 -35q0 -205 -120.5 -332t-315.5 -127q-193 0 -318.5 127t-125.5 322z M403 1192v287h213v-287h-213z" />
<glyph unicode="&#xc0;" horiz-adv-x="1402" d="M-33 0l2 160l162 -4l389 1165l-184 -6l2 160q246 -6 373 -7q121 0 362 7l2 -160l-180 6l389 -1167l152 6v-160q-178 6 -267 6q-92 0 -274 -6v160l174 -4l-115 364h-493l-115 -366l174 6v-160q-184 6 -276.5 6t-276.5 -6zM449 1935h202l142 -295h-150zM508 676h399 l-162 520l-15 60q-11 44 -23 85q-16 -68 -41 -145z" />
<glyph unicode="&#xc1;" horiz-adv-x="1402" d="M-33 0l2 160l162 -4l389 1165l-184 -6l2 160q246 -6 373 -7q121 0 362 7l2 -160l-180 6l389 -1167l152 6v-160q-178 6 -267 6q-92 0 -274 -6v160l174 -4l-115 364h-493l-115 -366l174 6v-160q-184 6 -276.5 6t-276.5 -6zM508 676h399l-162 520l-15 60q-11 44 -23 85 q-16 -68 -41 -145zM647 1638l158 295h207l-217 -295h-148z" />
<glyph unicode="&#xc2;" horiz-adv-x="1402" d="M-33 0l2 160l162 -4l389 1165l-184 -6l2 160q246 -6 373 -7q121 0 362 7l2 -160l-180 6l389 -1167l152 6v-160q-178 6 -267 6q-92 0 -274 -6v160l174 -4l-115 364h-493l-115 -366l174 6v-160q-184 6 -276.5 6t-276.5 -6zM426 1638l219 293h143l222 -293h-162l-131 166 l-131 -166h-160zM508 676h399l-162 520l-15 60q-11 44 -23 85q-16 -68 -41 -145z" />
<glyph unicode="&#xc3;" horiz-adv-x="1402" d="M-33 0l2 160l162 -4l389 1165l-184 -6l2 160q246 -6 373 -7q121 0 362 7l2 -160l-180 6l389 -1167l152 6v-160q-178 6 -267 6q-92 0 -274 -6v160l174 -4l-115 364h-493l-115 -366l174 6v-160q-184 6 -276.5 6t-276.5 -6zM410 1638q8 94 27.5 140.5t64.5 85.5 q47 41 106 41q57 0 107 -39l45 -35l39 -31q37 -31 73 -31q72 0 84 129h111q-8 -90 -25.5 -135t-58.5 -82q-47 -43 -115 -43q-80 0 -186 95q-43 39 -78 39t-53.5 -29t-28.5 -105h-112zM508 676h399l-162 520l-15 60q-11 44 -23 85q-16 -68 -41 -145z" />
<glyph unicode="&#xc4;" horiz-adv-x="1402" d="M-33 0l2 160l162 -4l389 1165l-184 -6l2 160q246 -6 373 -7q121 0 362 7l2 -160l-180 6l389 -1167l152 6v-160q-178 6 -267 6q-92 0 -274 -6v160l174 -4l-115 364h-493l-115 -366l174 6v-160q-184 6 -276.5 6t-276.5 -6zM455 1520v221h196v-219zM508 676h399l-162 520 l-15 60q-11 44 -23 85q-16 -68 -41 -145zM786 1522v219h197l2 -221z" />
<glyph unicode="&#xc5;" horiz-adv-x="1400" d="M-33 0l2 160l162 -4l389 1165l-184 -6l2 160q246 -6 373 -7q121 0 362 7l2 -160l-180 6l389 -1167l152 6v-160q-178 6 -267 6q-92 0 -274 -6v160l174 -4l-115 364h-493l-115 -366l174 6v-160q-184 6 -276.5 6t-276.5 -6zM508 676h399l-162 520l-15 60q-11 44 -23 85 q-16 -68 -41 -145zM522 1665q0 72 56.5 122t136.5 50q76 0 131 -50t55 -122q0 -70 -55 -119t-133 -49t-134.5 49t-56.5 119zM625 1665q0 -33 24.5 -54.5t61.5 -21.5t62.5 21.5t25.5 54.5q0 35 -24.5 59.5t-59.5 24.5q-39 0 -64.5 -24.5t-25.5 -59.5z" />
<glyph unicode="&#xc6;" horiz-adv-x="2138" d="M-20 0v166l145 -4l618 1151l-165 -2v164q684 -4 768 -5q74 0 700 5q-4 -131 -4 -263q0 -109 2 -192h-168l2 289h-618v-478h518v-155l-521 2v-516l633 2v323h181q-6 -156 -7 -235q0 -84 7 -252q-281 4 -631 4q-346 0 -623 -4l-2 166l234 -4v518l-443 -2l-272 -516l166 4 v-166q-229 4 -255.5 4t-264.5 -4zM692 829h361v486h-103z" />
<glyph unicode="&#xc7;" horiz-adv-x="1503" d="M72 729q0 330 203.5 552t506.5 222q115 0 236 -45q86 -33 132 -69.5t103 -116.5l-2 225h158q-8 -156 -8 -264q0 -104 8 -258h-160q-16 82 -37.5 126t-68.5 95q-133 143 -344 143q-221 0 -360.5 -171t-139.5 -441q0 -262 137 -418.5t367 -156.5q246 0 389 188 q57 78 108 225l173 -65q-39 -109 -69 -163t-83 -116q-203 -240 -539 -239q-313 0 -511.5 208.5t-198.5 538.5zM655 -442l2 108q80 23 86 117l-81 -4v172h186v-160q0 -92 -66 -164q-43 -42 -127 -69z" />
<glyph unicode="&#xc8;" horiz-adv-x="1284" d="M31 0v160l176 -4v1163l-176 -4v160q395 -6 596 -7q184 0 569 7q-2 -84 -2 -195q0 -125 2 -248l-170 -2v287h-612v-492l512 2v-155l-514 2v-516l635 2v295h170q-6 -143 -7 -215q0 -80 7 -240q-393 6 -590 6t-596 -6zM399 1935h203l141 -295h-149z" />
<glyph unicode="&#xc9;" horiz-adv-x="1284" d="M31 0v160l176 -4v1163l-176 -4v160q395 -6 596 -7q184 0 569 7q-2 -84 -2 -195q0 -125 2 -248l-170 -2v287h-612v-492l512 2v-155l-514 2v-516l635 2v295h170q-6 -143 -7 -215q0 -80 7 -240q-393 6 -590 6t-596 -6zM586 1638l157 295h207l-217 -295h-147z" />
<glyph unicode="&#xca;" horiz-adv-x="1284" d="M31 0v160l176 -4v1163l-176 -4v160q395 -6 596 -7q184 0 569 7q-2 -84 -2 -195q0 -125 2 -248l-170 -2v287h-612v-492l512 2v-155l-514 2v-516l635 2v295h170q-6 -143 -7 -215q0 -80 7 -240q-393 6 -590 6t-596 -6zM381 1638l219 293h143l222 -293h-162l-131 166 l-131 -166h-160z" />
<glyph unicode="&#xcb;" horiz-adv-x="1284" d="M31 0v160l176 -4v1163l-176 -4v160q395 -6 596 -7q184 0 569 7q-2 -84 -2 -195q0 -125 2 -248l-170 -2v287h-612v-492l512 2v-155l-514 2v-516l635 2v295h170q-6 -143 -7 -215q0 -80 7 -240q-393 6 -590 6t-596 -6zM362 1761q0 47 34 82t79 35q49 0 84 -35t35 -84 q0 -47 -35 -79.5t-84 -32.5q-47 0 -80 32.5t-33 81.5zM766 1759q-2 49 34 84t85 35q45 0 78.5 -35t33.5 -82q0 -49 -32.5 -81.5t-79.5 -32.5q-49 0 -84 32.5t-35 79.5z" />
<glyph unicode="&#xcc;" horiz-adv-x="624" d="M31 0v160l180 -4v1163l-180 -4l2 160q250 -4 276 -5q31 0 285 5v-160l-178 4v-1165l176 6v-160q-125 4 -280.5 4t-280.5 -4zM47 1935h203l141 -295h-149z" />
<glyph unicode="&#xcd;" horiz-adv-x="624" d="M31 0v160l180 -4v1163l-180 -4l2 160q250 -4 276 -5q31 0 285 5v-160l-178 4v-1165l176 6v-160q-125 4 -280.5 4t-280.5 -4zM260 1638l158 295h207l-217 -295h-148z" />
<glyph unicode="&#xce;" horiz-adv-x="624" d="M31 0v160l180 -4v1163l-180 -4l2 160q250 -4 276 -5q31 0 285 5v-160l-178 4v-1165l176 6v-160q-125 4 -280.5 4t-280.5 -4zM33 1638l219 293h143l221 -293h-161l-131 166l-131 -166h-160z" />
<glyph unicode="&#xcf;" horiz-adv-x="624" d="M10 1761q0 47 34 82t79 35q49 0 84 -35t35 -84q0 -47 -35 -79.5t-84 -32.5q-47 0 -80 32.5t-33 81.5zM31 0v160l180 -4v1163l-180 -4l2 160q250 -4 276 -5q31 0 285 5v-160l-178 4v-1165l176 6v-160q-125 4 -280.5 4t-280.5 -4zM414 1759q-2 49 33.5 84t84.5 35 q45 0 79 -35t34 -82q0 -49 -32.5 -81.5t-80.5 -32.5q-49 0 -83.5 32.5t-34.5 79.5z" />
<glyph unicode="&#xd1;" horiz-adv-x="1581" d="M31 0v160l176 -4l2 1163l-174 -4v160q205 -4 233 -5q23 0 211 5l623 -1067l37 -58l43 -88q-8 113 -8 176v881l-175 -4v160l268.5 -4.5t284.5 4.5v-160l-176 4v-1325h-235l-658 1120q-41 72 -80 154l7 -92v-84l2 -936l174 4v-160q-178 6 -269 6q-96 0 -286 -6zM492 1638 q8 94 27.5 140.5t64.5 85.5q47 41 106 41q57 0 107 -39l45 -35l39 -31q37 -31 73 -31q72 0 84 129h111q-8 -90 -25.5 -135t-58.5 -82q-47 -43 -115 -43q-80 0 -186 95q-43 39 -78 39t-53.5 -29t-28.5 -105h-112z" />
<glyph unicode="&#xd2;" horiz-adv-x="1593" d="M74 739q0 340 201.5 553t521.5 213q322 0 524.5 -213t202.5 -551t-203 -552t-524 -214q-319 0 -521 214t-202 550zM299 741.5q0 -268.5 139.5 -439.5t358.5 -171q221 0 361 170t140 440q0 268 -140 438.5t-361.5 170.5t-359.5 -170t-138 -438.5zM537 1935h202l142 -295 h-150z" />
<glyph unicode="&#xd3;" horiz-adv-x="1593" d="M74 739q0 340 201.5 553t521.5 213q322 0 524.5 -213t202.5 -551t-203 -552t-524 -214q-319 0 -521 214t-202 550zM299 741.5q0 -268.5 139.5 -439.5t358.5 -171q221 0 361 170t140 440q0 268 -140 438.5t-361.5 170.5t-359.5 -170t-138 -438.5zM729 1638l158 295h207 l-217 -295h-148z" />
<glyph unicode="&#xd4;" horiz-adv-x="1593" d="M74 739q0 340 201.5 553t521.5 213q322 0 524.5 -213t202.5 -551t-203 -552t-524 -214q-319 0 -521 214t-202 550zM299 741.5q0 -268.5 139.5 -439.5t358.5 -171q221 0 361 170t140 440q0 268 -140 438.5t-361.5 170.5t-359.5 -170t-138 -438.5zM524 1638l219 293h144 l221 -293h-162l-131 166l-131 -166h-160z" />
<glyph unicode="&#xd5;" horiz-adv-x="1593" d="M74 739q0 340 201.5 553t521.5 213q322 0 524.5 -213t202.5 -551t-203 -552t-524 -214q-319 0 -521 214t-202 550zM299 741.5q0 -268.5 139.5 -439.5t358.5 -171q221 0 361 170t140 440q0 268 -140 438.5t-361.5 170.5t-359.5 -170t-138 -438.5zM498 1638 q8 94 27.5 140.5t64.5 85.5q47 41 106 41q57 0 107 -39l45 -35l39 -31q37 -31 74 -31q72 0 83 129h111q-8 -90 -25.5 -135t-58.5 -82q-47 -43 -115 -43q-80 0 -186 95q-43 39 -78 39t-53 -29t-29 -105h-112z" />
<glyph unicode="&#xd6;" horiz-adv-x="1593" d="M74 739q0 340 201.5 553t521.5 213q322 0 524.5 -213t202.5 -551t-203 -552t-524 -214q-319 0 -521 214t-202 550zM299 741.5q0 -268.5 139.5 -439.5t358.5 -171q221 0 361 170t140 440q0 268 -140 438.5t-361.5 170.5t-359.5 -170t-138 -438.5zM338 1518v219h197v-224z M1094 1513v224h196v-219z" />
<glyph unicode="&#xd7;" d="M162 420l293 289l-291 292l104 103l287 -289l293 289l104 -103l-293 -290l291 -289l-104 -103l-291 287l-289 -289z" />
<glyph unicode="&#xd8;" horiz-adv-x="1593" d="M74 55l168 178q-104 150 -136 245t-32 263q0 330 202.5 545t514.5 215q145 0 238 -32.5t251 -141.5l172 180l70 -59l-174 -184q106 -162 141 -264.5t35 -260.5q0 -334 -202 -549t-515 -215q-154 0 -250 36t-254 153l-166 -174zM299 731q0 -111 16.5 -175t71.5 -171 l762 807q-106 90 -177 119.5t-179 29.5q-219 0 -356.5 -169t-137.5 -441zM438 303q109 -102 181.5 -135t189.5 -33q215 0 352 172t137 441q0 113 -18 182t-78 184z" />
<glyph unicode="&#xd9;" horiz-adv-x="1392" d="M25 1317v160q180 -6 276 -7q92 0 274 7l-2 -160l-163 4v-821q0 -123 11 -173.5t52 -97.5q80 -90 225.5 -90t225.5 90q37 41 48 94.5t11 176.5v821l-164 -4v160q178 -6 271 -7q94 0 278 7v-160l-176 4l-2 -827q0 -152 -27.5 -238t-97.5 -154q-135 -131 -365 -131 q-225 0 -372 131q-70 63 -98.5 150.5t-28.5 241.5l2 827zM451 1935h202l142 -295h-150z" />
<glyph unicode="&#xda;" horiz-adv-x="1392" d="M25 1317v160q180 -6 276 -7q92 0 274 7l-2 -160l-163 4v-821q0 -123 11 -173.5t52 -97.5q80 -90 225.5 -90t225.5 90q37 41 48 94.5t11 176.5v821l-164 -4v160q178 -6 271 -7q94 0 278 7v-160l-176 4l-2 -827q0 -152 -27.5 -238t-97.5 -154q-135 -131 -365 -131 q-225 0 -372 131q-70 63 -98.5 150.5t-28.5 241.5l2 827zM647 1638l158 295h207l-217 -295h-148z" />
<glyph unicode="&#xdb;" horiz-adv-x="1392" d="M25 1317v160q180 -6 276 -7q92 0 274 7l-2 -160l-163 4v-821q0 -123 11 -173.5t52 -97.5q80 -90 225.5 -90t225.5 90q37 41 48 94.5t11 176.5v821l-164 -4v160q178 -6 271 -7q94 0 278 7v-160l-176 4l-2 -827q0 -152 -27.5 -238t-97.5 -154q-135 -131 -365 -131 q-225 0 -372 131q-70 63 -98.5 150.5t-28.5 241.5l2 827zM440 1638l219 293h144l221 -293h-162l-131 166l-131 -166h-160z" />
<glyph unicode="&#xdc;" horiz-adv-x="1392" d="M25 1317v160q180 -6 276 -7q92 0 274 7l-2 -160l-163 4v-821q0 -123 11 -173.5t52 -97.5q80 -90 225.5 -90t225.5 90q37 41 48 94.5t11 176.5v821l-164 -4v160q178 -6 271 -7q94 0 278 7v-160l-176 4l-2 -827q0 -152 -27.5 -238t-97.5 -154q-135 -131 -365 -131 q-225 0 -372 131q-70 63 -98.5 150.5t-28.5 241.5l2 827zM360 1522l2 217l195 2v-219h-197zM854 1741l197 -2v-217h-195z" />
<glyph unicode="&#xdd;" horiz-adv-x="1261" d="M559 1628l158 295h206l-217 -295h-147zM-63 1315l2 162q188 -6 282 -7q94 0 281 7v-162l-156 6l238 -436q31 -53 49 -117l26 72l31 55l240 426l-156 -6v162q188 -6 278.5 -6.5t274.5 6.5v-162l-164 6l-428 -698l-2 -467l189 4v-160q-197 6 -297 6q-96 0 -287 -6v162 l186 -6l2 469l-417 696z" />
<glyph unicode="&#xdf;" horiz-adv-x="1191" d="M45 0v143l162 -4v811l-162 -4v148l162 -4v59q0 164 104.5 260t280.5 96q172 0 279.5 -90t107.5 -233q0 -63 -27 -123q-20 -43 -47.5 -68.5t-87.5 -56.5q68 -16 101.5 -32.5t74.5 -53.5q125 -117 125 -348q0 -225 -106.5 -370.5t-274.5 -145.5q-27 0 -116 12l-3 162 q49 -6 82 -6q104 0 166 95t62 257q0 160 -73 243.5t-210 83.5q-18 0 -88 -4v150h29q96 0 155.5 53t59.5 139q0 82 -57.5 135.5t-145.5 53.5q-205 0 -205 -256v-957h160v-143q-111 2 -246 2q-145 0 -262 -4z" />
<glyph unicode="&#xe0;" horiz-adv-x="1140" d="M70 332q0 156 107.5 254t279.5 98q137 0 307 -88l2 143q2 115 -62.5 173.5t-187.5 58.5q-193 0 -262 -162l-170 39q33 70 58.5 104.5t72.5 69.5q121 92 311.5 92t313.5 -88q59 -45 83.5 -107.5t24.5 -170.5l-2 -603l166 7v-152q-152 4 -174 4q-16 0 -176 -4v129 q-78 -72 -154 -106q-98 -43 -180 -43q-158 0 -258 99t-100 253zM256 332q0 -90 59.5 -148.5t151.5 -58.5q59 0 131 31q70 31 166 114v191q-90 47 -172 69q-61 16 -107 17q-102 0 -165.5 -59.5t-63.5 -155.5zM332 1481h203l141 -295h-150z" />
<glyph unicode="&#xe1;" horiz-adv-x="1140" d="M70 332q0 156 107.5 254t279.5 98q137 0 307 -88l2 143q2 115 -62.5 173.5t-187.5 58.5q-193 0 -262 -162l-170 39q33 70 58.5 104.5t72.5 69.5q121 92 311.5 92t313.5 -88q59 -45 83.5 -107.5t24.5 -170.5l-2 -603l166 7v-152q-152 4 -174 4q-16 0 -176 -4v129 q-78 -72 -154 -106q-98 -43 -180 -43q-158 0 -258 99t-100 253zM256 332q0 -90 59.5 -148.5t151.5 -58.5q59 0 131 31q70 31 166 114v191q-90 47 -172 69q-61 16 -107 17q-102 0 -165.5 -59.5t-63.5 -155.5zM514 1184l158 295h207l-217 -295h-148z" />
<glyph unicode="&#xe2;" horiz-adv-x="1140" d="M70 332q0 156 107.5 254t279.5 98q137 0 307 -88l2 143q2 115 -62.5 173.5t-187.5 58.5q-193 0 -262 -162l-170 39q33 70 58.5 104.5t72.5 69.5q121 92 311.5 92t313.5 -88q59 -45 83.5 -107.5t24.5 -170.5l-2 -603l166 7v-152q-152 4 -174 4q-16 0 -176 -4v129 q-78 -72 -154 -106q-98 -43 -180 -43q-158 0 -258 99t-100 253zM256 332q0 -90 59.5 -148.5t151.5 -58.5q59 0 131 31q70 31 166 114v191q-90 47 -172 69q-61 16 -107 17q-102 0 -165.5 -59.5t-63.5 -155.5zM295 1184l219 293h143l222 -293h-162l-131 166l-131 -166h-160z " />
<glyph unicode="&#xe3;" horiz-adv-x="1140" d="M70 332q0 156 107.5 254t279.5 98q137 0 307 -88l2 143q2 115 -62.5 173.5t-187.5 58.5q-193 0 -262 -162l-170 39q33 70 58.5 104.5t72.5 69.5q121 92 311.5 92t313.5 -88q59 -45 83.5 -107.5t24.5 -170.5l-2 -603l166 7v-152q-152 4 -174 4q-16 0 -176 -4v129 q-78 -72 -154 -106q-98 -43 -180 -43q-158 0 -258 99t-100 253zM256 332q0 -90 59.5 -148.5t151.5 -58.5q59 0 131 31q70 31 166 114v191q-90 47 -172 69q-61 16 -107 17q-102 0 -165.5 -59.5t-63.5 -155.5zM279 1184q8 94 27.5 140t64.5 85q47 41 106 41q57 0 107 -39 l45 -35l39 -30q37 -31 73 -31q72 0 84 129h111q-8 -90 -25.5 -135t-58.5 -82q-47 -43 -115 -43q-80 0 -186 94q-43 39 -78 39t-53.5 -28.5t-28.5 -104.5h-112z" />
<glyph unicode="&#xe4;" horiz-adv-x="1140" d="M70 332q0 156 107.5 254t279.5 98q137 0 307 -88l2 143q2 115 -62.5 173.5t-187.5 58.5q-193 0 -262 -162l-170 39q33 70 58.5 104.5t72.5 69.5q121 92 311.5 92t313.5 -88q59 -45 83.5 -107.5t24.5 -170.5l-2 -603l166 7v-152q-152 4 -174 4q-16 0 -176 -4v129 q-78 -72 -154 -106q-98 -43 -180 -43q-158 0 -258 99t-100 253zM256 332q0 -90 59.5 -148.5t151.5 -58.5q59 0 131 31q70 31 166 114v191q-90 47 -172 69q-61 16 -107 17q-102 0 -165.5 -59.5t-63.5 -155.5zM262 1319q0 51 34 86t81 35q49 0 85 -35t36 -86q0 -47 -35 -80 t-84 -33t-83 33t-34 80zM670 1319q0 51 34.5 86t86.5 35q47 0 80.5 -35t33.5 -86q0 -45 -33.5 -79t-80.5 -34q-51 0 -86 33t-35 80z" />
<glyph unicode="&#xe5;" horiz-adv-x="1140" d="M72 332q0 156 107.5 254t279.5 98q137 0 307 -88l2 143q2 115 -62.5 173.5t-187.5 58.5q-193 0 -262 -162l-170 39q33 70 58.5 104.5t72.5 69.5q121 92 311.5 92t313.5 -88q59 -45 83.5 -107.5t24.5 -170.5l-2 -603l166 7v-152q-152 4 -174 4q-16 0 -176 -4v129 q-78 -72 -154 -106q-98 -43 -180 -43q-158 0 -258 99t-100 253zM258 332q0 -90 59.5 -148.5t151.5 -58.5q59 0 131 31q70 31 166 114v191q-90 47 -172 69q-61 16 -107 17q-102 0 -165.5 -59.5t-63.5 -155.5zM387 1370q0 82 57.5 139.5t139.5 57.5q78 0 132 -57.5t54 -139.5 q0 -80 -54 -136t-132 -56q-82 0 -139.5 56t-57.5 136zM485 1372q0 -39 28 -65.5t65 -26.5q41 0 68.5 26.5t27.5 65.5t-26.5 67.5t-63.5 28.5q-41 0 -70 -28.5t-29 -67.5z" />
<glyph unicode="&#xe6;" horiz-adv-x="1865" d="M70 311q0 158 114.5 261.5t288.5 103.5q49 0 121 -14q98 -20 199 -70v153q0 242 -252 242q-57 0 -113 -16q-59 -18 -92 -51t-70 -111l-184 35q53 104 102 155q104 121 359 121q152 0 255 -52t132 -142q18 31 33 47q55 66 148 105.5t192 39.5q131 0 244.5 -65.5 t176.5 -180.5q41 -74 58.5 -151.5t21.5 -222.5l-815 4q0 -102 14.5 -159.5t51.5 -109.5q84 -119 243 -118q123 0 224 75q47 39 118 134l168 -52q-47 -76 -81.5 -113.5t-96.5 -82.5q-147 -104 -330 -105q-139 0 -231 48.5t-180 166.5q-90 -96 -178 -143q-137 -72 -269 -72 q-166 0 -269 94t-103 246zM270 315q0 -92 60.5 -147t158.5 -55q82 0 168 43q49 23 134 90l2 213q-131 63 -201 71q-29 10 -88 11q-100 0 -167 -65t-67 -161zM989 645h610q-18 158 -99 242t-212 84q-166 0 -248 -140q-35 -63 -51 -186z" />
<glyph unicode="&#xe7;" horiz-adv-x="1167" d="M72 545q0 244 148.5 407.5t371.5 163.5q94 0 182 -39q86 -35 170 -127l-4 160h152q-6 -147 -7 -219q0 -76 7 -223h-154q-20 129 -88 190q-98 92 -242 92q-152 0 -247 -111.5t-95 -289.5q0 -184 99.5 -296t263.5 -112q141 0 237 84q53 45 109 152l151 -76 q-41 -78 -71.5 -117t-79.5 -82q-150 -125 -354 -125q-242 0 -395.5 159t-153.5 409zM514 -453l2 109q43 14 63.5 41t22.5 78l-82 -4v172h187v-160q0 -92 -68 -164q-41 -43 -125 -72z" />
<glyph unicode="&#xe8;" horiz-adv-x="1208" d="M74 541q0 250 152.5 412.5t385.5 162.5q256 0 408 -184q70 -82 95.5 -176t29.5 -269l-891 2q12 -104 33.5 -158.5t72.5 -105.5q100 -100 267 -100q139 0 250 78q68 49 122 137l152 -70q-49 -70 -81 -104.5t-85 -73.5q-156 -117 -362 -117q-248 0 -397.5 155t-151.5 411z M254 633l702 -2q-20 145 -82 219q-100 121 -266 121q-154 0 -256 -115q-41 -45 -61.5 -91t-36.5 -132zM356 1481h203l141 -295h-149z" />
<glyph unicode="&#xe9;" horiz-adv-x="1208" d="M74 541q0 250 152.5 412.5t385.5 162.5q256 0 408 -184q70 -82 95.5 -176t29.5 -269l-891 2q12 -104 33.5 -158.5t72.5 -105.5q100 -100 267 -100q139 0 250 78q68 49 122 137l152 -70q-49 -70 -81 -104.5t-85 -73.5q-156 -117 -362 -117q-248 0 -397.5 155t-151.5 411z M254 633l702 -2q-20 145 -82 219q-100 121 -266 121q-154 0 -256 -115q-41 -45 -61.5 -91t-36.5 -132zM553 1184l158 295h207l-218 -295h-147z" />
<glyph unicode="&#xea;" horiz-adv-x="1208" d="M74 541q0 250 152.5 412.5t385.5 162.5q256 0 408 -184q70 -82 95.5 -176t29.5 -269l-891 2q12 -104 33.5 -158.5t72.5 -105.5q100 -100 267 -100q139 0 250 78q68 49 122 137l152 -70q-49 -70 -81 -104.5t-85 -73.5q-156 -117 -362 -117q-248 0 -397.5 155t-151.5 411z M254 633l702 -2q-20 145 -82 219q-100 121 -266 121q-154 0 -256 -115q-41 -45 -61.5 -91t-36.5 -132zM330 1184l219 293h143l221 -293h-161l-131 166l-132 -166h-159z" />
<glyph unicode="&#xeb;" horiz-adv-x="1208" d="M74 541q0 250 152.5 412.5t385.5 162.5q256 0 408 -184q70 -82 95.5 -176t29.5 -269l-891 2q12 -104 33.5 -158.5t72.5 -105.5q100 -100 267 -100q139 0 250 78q68 49 122 137l152 -70q-49 -70 -81 -104.5t-85 -73.5q-156 -117 -362 -117q-248 0 -397.5 155t-151.5 411z M254 633l702 -2q-20 145 -82 219q-100 121 -266 121q-154 0 -256 -115q-41 -45 -61.5 -91t-36.5 -132zM305 1307q0 47 34 81.5t79 34.5q49 0 84 -34.5t35 -83.5q0 -47 -35 -80t-84 -33q-47 0 -80 33t-33 82zM709 1305q-2 49 33.5 83.5t84.5 34.5q45 0 79 -34.5t34 -81.5 q0 -49 -33 -82t-80 -33q-49 0 -83.5 33t-34.5 80z" />
<glyph unicode="&#xec;" horiz-adv-x="585" d="M37 1481h203l141 -295h-150zM39 0v152l174 -9v803l-170 -6v152q82 -2 180.5 -2t175.5 2v-949l164 9l2 -152q-176 6 -260 6q-88 0 -266 -6z" />
<glyph unicode="&#xed;" horiz-adv-x="585" d="M39 0v152l174 -9v803l-170 -6v152q82 -2 180.5 -2t175.5 2v-949l164 9l2 -152q-176 6 -260 6q-88 0 -266 -6zM240 1184l157 295h207l-217 -295h-147z" />
<glyph unicode="&#xee;" horiz-adv-x="585" d="M14 1184l219 293h144l221 -293h-162l-131 166l-131 -166h-160zM39 0v152l174 -9v803l-170 -6v152q82 -2 180.5 -2t175.5 2v-949l164 9l2 -152q-176 6 -260 6q-88 0 -266 -6z" />
<glyph unicode="&#xef;" horiz-adv-x="585" d="M-10 1307q0 47 33.5 81.5t78.5 34.5q49 0 84 -34.5t35 -83.5q0 -47 -34.5 -80t-84.5 -33q-47 0 -79.5 33t-32.5 82zM39 0v152l174 -9v803l-170 -6v152q82 -2 180.5 -2t175.5 2v-949l164 9l2 -152q-176 6 -260 6q-88 0 -266 -6zM393 1305q-2 49 34 83.5t85 34.5 q45 0 79 -34.5t34 -81.5q0 -49 -33 -82t-80 -33q-49 0 -84 33t-35 80z" />
<glyph unicode="&#xf1;" horiz-adv-x="1228" d="M39 0v147l170 -4v803l-166 -6l2 152q160 -4 176 -5q20 0 172 5v-146q35 35 76 66q125 102 274 102q147 0 232 -88q41 -45 53 -94t12 -176v-613l162 4v-147q-111 4 -250 4q-143 0 -258 -4l-2 147l162 -2v576q0 82 -6 111.5t-29 58.5q-47 53 -135 53q-45 0 -100 -20 q-43 -18 -74 -41q-57 -35 -117 -103l-2 -637l164 4l-2 -147q-113 4 -252 4q-145 0 -262 -4zM326 1184q8 94 27.5 140t64.5 85q47 41 106 41q57 0 107 -39l45 -35l39 -30q37 -31 73 -31q72 0 84 129h111q-8 -90 -25.5 -135t-58.5 -82q-47 -43 -115 -43q-80 0 -186 94 q-43 39 -78 39t-53 -28.5t-29 -104.5h-112z" />
<glyph unicode="&#xf2;" horiz-adv-x="1196" d="M76 547q0 250 146.5 410.5t375.5 160.5t375.5 -160.5t146.5 -410.5t-146.5 -411t-375.5 -161t-375.5 161t-146.5 411zM272 546.5q0 -186.5 90.5 -299t235.5 -112.5t235.5 112.5t90.5 299t-89.5 300.5t-236.5 114t-236.5 -114t-89.5 -300.5zM348 1481h203l141 -295h-149z " />
<glyph unicode="&#xf3;" horiz-adv-x="1196" d="M76 547q0 250 146.5 410.5t375.5 160.5t375.5 -160.5t146.5 -410.5t-146.5 -411t-375.5 -161t-375.5 161t-146.5 411zM272 546.5q0 -186.5 90.5 -299t235.5 -112.5t235.5 112.5t90.5 299t-89.5 300.5t-236.5 114t-236.5 -114t-89.5 -300.5zM528 1184l158 295h207 l-217 -295h-148z" />
<glyph unicode="&#xf4;" horiz-adv-x="1196" d="M76 547q0 250 146.5 410.5t375.5 160.5t375.5 -160.5t146.5 -410.5t-146.5 -411t-375.5 -161t-375.5 161t-146.5 411zM272 546.5q0 -186.5 90.5 -299t235.5 -112.5t235.5 112.5t90.5 299t-89.5 300.5t-236.5 114t-236.5 -114t-89.5 -300.5zM319 1184l220 293h143 l221 -293h-162l-131 166l-131 -166h-160z" />
<glyph unicode="&#xf5;" horiz-adv-x="1196" d="M76 547q0 250 146.5 410.5t375.5 160.5t375.5 -160.5t146.5 -410.5t-146.5 -411t-375.5 -161t-375.5 161t-146.5 411zM272 546.5q0 -186.5 90.5 -299t235.5 -112.5t235.5 112.5t90.5 299t-89.5 300.5t-236.5 114t-236.5 -114t-89.5 -300.5zM307 1184q8 94 27.5 140 t64.5 85q47 41 107 41q57 0 106 -39l45 -35l39 -30q37 -31 74 -31q72 0 84 129h111q-8 -90 -25.5 -135t-58.5 -82q-47 -43 -115 -43q-80 0 -186 94q-43 39 -78 39t-53.5 -28.5t-28.5 -104.5h-113z" />
<glyph unicode="&#xf6;" horiz-adv-x="1196" d="M76 547q0 250 146.5 410.5t375.5 160.5t375.5 -160.5t146.5 -410.5t-146.5 -411t-375.5 -161t-375.5 161t-146.5 411zM272 546.5q0 -186.5 90.5 -299t235.5 -112.5t235.5 112.5t90.5 299t-89.5 300.5t-236.5 114t-236.5 -114t-89.5 -300.5zM297 1319q0 47 34 82t79 35 q49 0 83.5 -35t34.5 -84q0 -47 -34.5 -80t-83.5 -33q-47 0 -80 33t-33 82zM700 1317q-2 49 34 84t85 35q45 0 79 -35t34 -82q0 -49 -33 -82t-80 -33q-49 0 -84 33t-35 80z" />
<glyph unicode="&#xf7;" horiz-adv-x="1216" d="M88 414v139h948v-139h-948zM446 207q0 49 33 82q39 35 84 35q49 0 82 -33t33 -84q0 -49 -35 -82q-31 -35 -80 -35t-84 35q-33 37 -33 82zM446 758q0 49 33 82q35 31 84 34q49 0 80 -34q35 -35 35 -82q0 -49 -35 -82q-31 -35 -80 -35t-84 35q-33 33 -33 82z" />
<glyph unicode="&#xf8;" horiz-adv-x="1198" d="M76 51l114 123q-70 115 -92 185.5t-22 187.5q0 252 147.5 412.5t378.5 160.5q94 0 161.5 -25.5t176.5 -103.5l113 121l69 -57l-116 -129q72 -117 94 -189.5t22 -189.5q0 -252 -147.5 -412t-378.5 -160q-98 0 -166 27t-176 109l-115 -127zM274 547q0 -78 8.5 -121 t39.5 -111l499 549q-68 57 -112.5 77t-110.5 20q-145 0 -234.5 -114t-89.5 -300zM375 238q66 -63 108.5 -83t116.5 -20q143 0 232.5 113.5t89.5 298.5q0 74 -9.5 117t-40.5 118z" />
<glyph unicode="&#xf9;" horiz-adv-x="1206" d="M25 940l2 152q78 -4 172 -5q96 0 174 5v-730q0 -86 6 -115.5t31 -56.5q43 -43 129 -43q57 0 125 29q80 35 167 135v635l-165 -6v152q160 -4 180 -5q23 0 174 5l-2 -949l164 4v-147q-156 4 -174 4q-20 0 -177 -4v154q-53 -57 -87.5 -84t-90.5 -52q-92 -41 -170 -41 q-129 0 -221 82q-47 43 -62.5 94.5t-15.5 161.5l2 631zM352 1481h203l141 -295h-149z" />
<glyph unicode="&#xfa;" horiz-adv-x="1206" d="M25 940l2 152q78 -4 172 -5q96 0 174 5v-730q0 -86 6 -115.5t31 -56.5q43 -43 129 -43q57 0 125 29q80 35 167 135v635l-165 -6v152q160 -4 180 -5q23 0 174 5l-2 -949l164 4v-147q-156 4 -174 4q-20 0 -177 -4v154q-53 -57 -87.5 -84t-90.5 -52q-92 -41 -170 -41 q-129 0 -221 82q-47 43 -62.5 94.5t-15.5 161.5l2 631zM535 1184l157 295h207l-217 -295h-147z" />
<glyph unicode="&#xfb;" horiz-adv-x="1206" d="M25 940l2 152q78 -4 172 -5q96 0 174 5v-730q0 -86 6 -115.5t31 -56.5q43 -43 129 -43q57 0 125 29q80 35 167 135v635l-165 -6v152q160 -4 180 -5q23 0 174 5l-2 -949l164 4v-147q-156 4 -174 4q-20 0 -177 -4v154q-53 -57 -87.5 -84t-90.5 -52q-92 -41 -170 -41 q-129 0 -221 82q-47 43 -62.5 94.5t-15.5 161.5l2 631zM332 1184l219 293h143l221 -293h-161l-131 166l-131 -166h-160z" />
<glyph unicode="&#xfc;" horiz-adv-x="1206" d="M25 940l2 152q78 -4 172 -5q96 0 174 5v-730q0 -86 6 -115.5t31 -56.5q43 -43 129 -43q57 0 125 29q80 35 167 135v635l-165 -6v152q160 -4 180 -5q23 0 174 5l-2 -949l164 4v-147q-156 4 -174 4q-20 0 -177 -4v154q-53 -57 -87.5 -84t-90.5 -52q-92 -41 -170 -41 q-129 0 -221 82q-47 43 -62.5 94.5t-15.5 161.5l2 631zM303 1319q0 51 35 86t86 35q47 0 82 -35t35 -86q0 -47 -35 -82t-82 -35q-51 0 -86 35t-35 82zM707 1319q0 51 34.5 86t81.5 35q51 0 86 -35t35 -86q0 -47 -35 -82t-86 -35q-47 0 -81.5 35t-34.5 82z" />
<glyph unicode="&#xfd;" horiz-adv-x="1075" d="M467 1241l158 295h206l-217 -295h-147zM-43 940v152q225 -4 252 -5q25 0 237 5v-152l-141 6l203 -559l18 -57l25 -74l22 74l23 71l186 545l-143 -6l4 152q154 -6 236 -7q84 0 245 7l2 -152l-143 6l-498 -1335q-176 4 -200 4q-109 0 -197 -4v160l256 -4l105 307l-349 872z " />
<glyph unicode="&#xff;" horiz-adv-x="1075" d="M-43 940v152q225 -4 252 -5q25 0 237 5v-152l-141 6l203 -559l18 -57l25 -74l22 74l23 71l186 545l-143 -6l4 152q154 -6 236 -7q84 0 245 7l2 -152l-143 6l-498 -1335q-176 4 -200 4q-109 0 -197 -4v160l256 -4l105 307l-349 872zM240 1307q0 47 33.5 81.5t78.5 34.5 q49 0 84 -34.5t35 -83.5q0 -47 -35 -80t-84 -33q-47 0 -79.5 33t-32.5 82zM643 1305q-2 49 34 83.5t85 34.5q45 0 78.5 -34.5t33.5 -81.5q0 -49 -32.5 -82t-79.5 -33q-49 0 -84 33t-35 80z" />
<glyph unicode="&#x152;" horiz-adv-x="2113" d="M74 727q0 180 61.5 335t173.5 257q174 160 527 160q135 0 227 -2q106 -4 391 -4q295 0 582 2q-6 -164 -6 -244q0 -121 2 -219l-168 2v297h-633v-475h516v-160h-516v-512h645l2 311l168 -2q-6 -162 -6 -248q0 -25 4 -225l-514 4q-274 2 -490 -4q-111 -4 -258 -4 q-324 0 -497 168q-100 94 -155.5 242.5t-55.5 320.5zM303 729q0 -285 160 -440q72 -70 158 -98.5t223 -28.5q14 0 178 4v1145q-70 2 -170 2q-250 0 -369 -111q-180 -168 -180 -473z" />
<glyph unicode="&#x153;" horiz-adv-x="2060" d="M76 539q0 252 152.5 415.5t387.5 163.5q115 0 222 -47q84 -37 125 -80t86 -141l34 68q55 92 162 146t234 54q262 0 411 -205q59 -82 84 -171t27 -250h-856q2 -104 18.5 -161t59.5 -110q94 -113 260 -112q139 0 246 86q53 43 110 129l164 -54q-43 -72 -75 -106.5 t-89 -77.5q-160 -119 -358 -119q-125 0 -219 39q-88 35 -133.5 81t-90.5 146q-33 -66 -47 -86q-53 -82 -158.5 -130t-228.5 -48q-236 0 -382 158t-146 412zM281 535q0 -195 90 -305.5t245 -110.5q152 0 242 117.5t90 314.5q0 193 -88 301.5t-241.5 108.5t-245.5 -116.5 t-92 -309.5zM1143 643h653q-18 115 -55 176q-88 156 -275 156q-174 0 -266 -146q-43 -71 -57 -186z" />
<glyph unicode="&#x178;" horiz-adv-x="1261" d="M-63 1315l2 162q188 -6 282 -7q94 0 281 7v-162l-156 6l238 -436q31 -53 49 -117l26 72l31 55l240 426l-156 -6v162q188 -6 278.5 -6.5t274.5 6.5v-162l-164 6l-428 -698l-2 -467l189 4v-160q-197 6 -297 6q-96 0 -287 -6v162l186 -6l2 469l-417 696zM352 1761 q0 47 34 82t79 35q49 0 84 -35t35 -84q0 -47 -35 -79.5t-84 -32.5q-47 0 -80 32.5t-33 81.5zM756 1759q-2 49 33.5 84t84.5 35q45 0 79 -35t34 -82q0 -49 -32.5 -81.5t-80.5 -32.5q-49 0 -83.5 32.5t-34.5 79.5z" />
<glyph unicode="&#x2c6;" horiz-adv-x="577" d="M-2 1184l219 293h143l222 -293h-162l-131 166l-131 -166h-160z" />
<glyph unicode="&#x2dc;" horiz-adv-x="653" d="M-2 1184q8 94 27.5 140t64.5 85q47 41 107 41q57 0 106 -39l45 -35l39 -30q37 -31 74 -31q72 0 84 129h110q-8 -90 -25.5 -135t-58.5 -82q-47 -43 -114 -43q-80 0 -187 94q-43 39 -77.5 39t-53 -28.5t-28.5 -104.5h-113z" />
<glyph unicode="&#x2013;" d="M63 758h984v-133l-981 2z" />
<glyph unicode="&#x2014;" horiz-adv-x="2039" d="M61 678v151h1917v-151h-1917z" />
<glyph unicode="&#x2018;" horiz-adv-x="391" d="M90 895v297q0 156 68 238q29 35 58.5 49t84.5 20v-135q-49 -18 -66.5 -55t-19.5 -129l86 2v-287h-211z" />
<glyph unicode="&#x2019;" horiz-adv-x="391" d="M90 868v138q31 10 44 21t26 38q16 35 16 94v10l-86 -2v310h211v-299q0 -158 -65 -238q-27 -33 -57 -47.5t-89 -24.5z" />
<glyph unicode="&#x201a;" horiz-adv-x="389" d="M90 0v289h209v-301q0 -154 -70 -236q-29 -35 -56.5 -48t-82.5 -21v137q31 10 43 21.5t25 39.5q16 39 16 109v12z" />
<glyph unicode="&#x201c;" horiz-adv-x="716" d="M90 897v297q0 156 68 238q29 35 58.5 49t84.5 20v-135q-49 -18 -66.5 -55t-19.5 -129l86 2v-287h-211zM416 897l2 297q0 158 65 238q29 35 58.5 49t85.5 20l2 -135q-49 -18 -67.5 -55t-20.5 -129l86 2v-287h-211z" />
<glyph unicode="&#x201d;" horiz-adv-x="716" d="M90 870v138q31 10 44 21t26 38q16 35 16 96v8l-86 -2v310h211v-299q0 -152 -65 -236q-29 -35 -59 -50.5t-87 -23.5zM416 870l2 138q31 8 43 19t24 40q16 35 17 92v12l-84 -2l-2 310h213v-299q0 -150 -68 -236q-29 -35 -58.5 -50.5t-86.5 -23.5z" />
<glyph unicode="&#x201e;" horiz-adv-x="714" d="M90 0v289h209v-301q0 -154 -70 -236q-29 -35 -56.5 -48t-82.5 -21v137q31 10 43 21.5t25 39.5q16 39 16 109v12zM416 0v289h211v-301q0 -154 -70 -236q-49 -57 -139 -69l-2 137q31 10 43 21.5t24 39.5q16 39 17 107v14z" />
<glyph unicode="&#x2022;" horiz-adv-x="440" d="M115 385v291h211v-291h-211z" />
<glyph unicode="&#x2026;" horiz-adv-x="2039" d="M213 108.5q0 53.5 38 91.5t91 38t91 -38t38 -91.5t-38 -91t-91 -37.5t-91 37.5t-38 91zM895 108.5q0 53.5 38 91.5t91 38t91 -38t38 -91.5t-38 -91t-91 -37.5t-91 37.5t-38 91zM1577 108.5q0 53.5 38 91.5t91 38t91 -38t38 -91.5t-38 -91t-91 -37.5t-91 37.5t-38 91z" />
<glyph unicode="&#x2039;" horiz-adv-x="651" d="M39 549l348 479h221l-338 -479l340 -483h-221z" />
<glyph unicode="&#x203a;" horiz-adv-x="657" d="M39 66l352 483l-346 481h225l348 -481l-350 -483h-229z" />
<glyph unicode="&#x20ac;" horiz-adv-x="1722" d="M76 551l59 141h115q-2 12 -2 37q0 8 1 26.5t1 26.5h-174l59 142h135q55 256 245 417.5t443 161.5q115 0 236 -45q86 -33 132 -69.5t104 -116.5l-3 225h158q-8 -156 -8 -264q0 -104 8 -258h-160q-16 84 -37.5 127t-68.5 94q-131 143 -344 143q-176 0 -303 -112.5 t-174 -302.5h786l-59 -142h-748q0 -8 -1 -26.5t-1 -28.5q0 -23 2 -35h711l-60 -141h-634q43 -186 171 -292.5t314 -106.5q246 0 389 188q55 72 109 225l172 -65q-39 -109 -69 -163t-83 -116q-203 -240 -539 -239q-266 0 -453.5 155.5t-238.5 413.5h-190z" />
<glyph unicode="&#x2122;" horiz-adv-x="1613" d="M96 1372v103h445v-103h-166v-635h-115v635h-164zM516 737l141 756h62l205 -467q31 -72 32 -129q2 59 33 129l205 467h61l142 -756h-115l-74 430l-4 23l-2 18q-4 39 2 72l-20 -72l-10 -26l-3 -11l-194 -450h-41l-195 450l-4 15l-8 24q-18 61 -20 70q6 -33 2 -72l-2 -18 l-4 -23l-74 -430h-115z" />
<glyph unicode="&#xe000;" horiz-adv-x="1090" d="M0 1090h1090v-1090h-1090v1090z" />
<glyph unicode="&#xfb01;" horiz-adv-x="1206" d="M660 0v152l174 -9v803l-170 -6v152q82 -2 180.5 -2t175.5 2v-949l164 9l2 -152q-176 6 -260 6q-88 0 -266 -6zM795 1337q0 53 37 91t90 38q51 0 88 -37.5t37 -91t-37 -89.5t-90 -36t-89 37t-36 88zM29 0v152l178 -7l2 805l-180 -6v150l182 -4v79q0 90 11 135.5t46 88.5 q88 113 248 112q127 0 205 -84q47 -47 76 -145l-144 -64q-31 152 -137 152q-70 0 -106 -61q-18 -41 -19 -134v-79l211 4v-150l-211 4v-805l209 4l2 -147q-131 4 -293 4q-155 0 -280 -4z" />
<glyph unicode="&#xfb02;" horiz-adv-x="1189" d="M646 0v152l170 -7l2 1186l-170 -4v150q121 -6 182 -7q55 0 172 7v-1332l164 7l-2 -152q-113 4 -254 4q-147 0 -264 -4zM29 0v152l178 -7l2 805l-180 -6v150l182 -4v79q0 90 11 135.5t46 88.5q88 113 248 112q127 0 205 -84q47 -47 76 -145l-144 -64q-31 152 -137 152 q-70 0 -106 -61q-18 -41 -19 -134v-79l211 4v-150l-211 4v-805l209 4l2 -147q-131 4 -293 4q-155 0 -280 -4z" />
<glyph unicode="&#xfb03;" horiz-adv-x="1826" d="M1280 0v152l174 -9v803l-170 -6v152q82 -2 180.5 -2t175.5 2v-949l164 9l2 -152q-176 6 -260 6q-88 0 -266 -6zM1415 1337q0 53 37 91t90 38q51 0 88 -37.5t37 -91t-37 -89.5t-90 -36t-89 37t-36 88zM650 0v152l178 -7l2 805l-180 -6v150l182 -4v79q0 90 11 135.5 t46 88.5q88 113 248 112q127 0 205 -84q47 -47 76 -145l-144 -64q-31 152 -137 152q-70 0 -106 -61q-18 -41 -19 -134v-79l211 4v-150l-211 4v-805l209 4l2 -147q-131 4 -293 4q-155 0 -280 -4zM29 0v152l178 -7l2 805l-180 -6v150l182 -4v79q0 90 11 135.5t46 88.5 q88 113 248 112q127 0 205 -84q47 -47 76 -145l-144 -64q-31 152 -137 152q-70 0 -106 -61q-18 -41 -19 -134v-79l211 4v-150l-211 4v-805l209 4l2 -147q-131 4 -293 4q-155 0 -280 -4z" />
<glyph unicode="&#xfb04;" horiz-adv-x="1810" d="M1266 0v152l170 -7l2 1186l-170 -4v150q121 -6 182 -7q55 0 172 7v-1332l164 7l-2 -152q-113 4 -254 4q-147 0 -264 -4zM650 0v152l178 -7l2 805l-180 -6v150l182 -4v79q0 90 11 135.5t46 88.5q88 113 248 112q127 0 205 -84q47 -47 76 -145l-144 -64q-31 152 -137 152 q-70 0 -106 -61q-18 -41 -19 -134v-79l211 4v-150l-211 4v-805l209 4l2 -147q-131 4 -293 4q-155 0 -280 -4zM29 0v152l178 -7l2 805l-180 -6v150l182 -4v79q0 90 11 135.5t46 88.5q88 113 248 112q127 0 205 -84q47 -47 76 -145l-144 -64q-31 152 -137 152q-70 0 -106 -61 q-18 -41 -19 -134v-79l211 4v-150l-211 4v-805l209 4l2 -147q-131 4 -293 4q-155 0 -280 -4z" />
</font>
</defs>
</svg>
